<svg width="210" height="36" viewBox="0 0 210 36" fill="none" xmlns="http://www.w3.org/2000/svg">
<rect width="36" height="36" rx="4" fill="#E9F4FF"/>
<path d="M21 28.75H15C9.57 28.75 7.25 26.43 7.25 21V15C7.25 9.57 9.57 7.25 15 7.25H20C20.41 7.25 20.75 7.59 20.75 8C20.75 8.41 20.41 8.75 20 8.75H15C10.39 8.75 8.75 10.39 8.75 15V21C8.75 25.61 10.39 27.25 15 27.25H21C25.61 27.25 27.25 25.61 27.25 21V16C27.25 15.59 27.59 15.25 28 15.25C28.41 15.25 28.75 15.59 28.75 16V21C28.75 26.43 26.43 28.75 21 28.75Z" fill="#1A2630"/>
<path d="M28 16.75H24C20.58 16.75 19.25 15.42 19.25 12V7.99999C19.25 7.69999 19.43 7.41999 19.71 7.30999C19.99 7.18999 20.31 7.25999 20.53 7.46999L28.53 15.47C28.74 15.68 28.81 16.01 28.69 16.29C28.57 16.57 28.3 16.75 28 16.75ZM20.75 9.80999V12C20.75 14.58 21.42 15.25 24 15.25H26.19L20.75 9.80999Z" fill="#1A2630"/>
<path d="M19 19.75H13C12.59 19.75 12.25 19.41 12.25 19C12.25 18.59 12.59 18.25 13 18.25H19C19.41 18.25 19.75 18.59 19.75 19C19.75 19.41 19.41 19.75 19 19.75Z" fill="#1A2630"/>
<path d="M17 23.75H13C12.59 23.75 12.25 23.41 12.25 23C12.25 22.59 12.59 22.25 13 22.25H17C17.41 22.25 17.75 22.59 17.75 23C17.75 23.41 17.41 23.75 17 23.75Z" fill="#1A2630"/>
<path d="M57.78 24.24C53.78 24.24 50.68 21.44 50.68 17.34C50.68 13.24 53.78 10.44 57.78 10.44C60.72 10.44 62.42 12.04 63.36 13.7L60.92 14.9C60.36 13.82 59.16 12.96 57.78 12.96C55.36 12.96 53.6 14.82 53.6 17.34C53.6 19.86 55.36 21.72 57.78 21.72C59.16 21.72 60.36 20.88 60.92 19.78L63.36 20.96C62.4 22.62 60.72 24.24 57.78 24.24ZM69.4705 24.24C66.2905 24.24 64.3705 21.92 64.3705 19.16C64.3705 16.42 66.2905 14.1 69.4705 14.1C72.6705 14.1 74.5905 16.42 74.5905 19.16C74.5905 21.92 72.6705 24.24 69.4705 24.24ZM69.4705 21.98C71.0505 21.98 71.9505 20.68 71.9505 19.16C71.9505 17.66 71.0505 16.36 69.4705 16.36C67.8905 16.36 67.0105 17.66 67.0105 19.16C67.0105 20.68 67.8905 21.98 69.4705 21.98ZM85.5348 24H82.9948V18.16C82.9948 16.82 82.2948 16.36 81.2148 16.36C80.2148 16.36 79.4348 16.92 79.0148 17.5V24H76.4748V14.34H79.0148V15.6C79.6348 14.86 80.8148 14.1 82.3948 14.1C84.5148 14.1 85.5348 15.3 85.5348 17.18V24ZM91.2969 24.24C89.5169 24.24 88.5569 23.32 88.5569 21.6V16.56H86.9569V14.34H88.5569V11.7H91.1169V14.34H93.0769V16.56H91.1169V20.92C91.1169 21.52 91.4369 21.98 91.9969 21.98C92.3769 21.98 92.7369 21.84 92.8769 21.7L93.4169 23.62C93.0369 23.96 92.3569 24.24 91.2969 24.24ZM99.3547 24.24C96.4147 24.24 94.1947 22.26 94.1947 19.16C94.1947 16.36 96.2547 14.1 99.1947 14.1C102.075 14.1 104.035 16.26 104.035 19.42V19.98H96.8547C97.0147 21.2 97.9947 22.22 99.6347 22.22C100.455 22.22 101.595 21.86 102.215 21.26L103.335 22.9C102.375 23.78 100.855 24.24 99.3547 24.24ZM101.575 18.26C101.515 17.34 100.875 16.12 99.1947 16.12C97.6147 16.12 96.9347 17.3 96.8147 18.26H101.575ZM114.929 24H112.389V18.16C112.389 16.82 111.689 16.36 110.609 16.36C109.609 16.36 108.829 16.92 108.409 17.5V24H105.869V14.34H108.409V15.6C109.029 14.86 110.209 14.1 111.789 14.1C113.909 14.1 114.929 15.3 114.929 17.18V24ZM120.691 24.24C118.911 24.24 117.951 23.32 117.951 21.6V16.56H116.351V14.34H117.951V11.7H120.511V14.34H122.471V16.56H120.511V20.92C120.511 21.52 120.831 21.98 121.391 21.98C121.771 21.98 122.131 21.84 122.271 21.7L122.811 23.62C122.431 23.96 121.751 24.24 120.691 24.24ZM142.606 24H139.586L137.246 14.84L134.926 24H131.906L128.086 10.66H131.266L133.606 20.3L136.146 10.66H138.366L140.886 20.3L143.206 10.66H146.406L142.606 24ZM149.62 24H147.08V14.34H149.62V15.66C150.3 14.8 151.5 14.1 152.7 14.1V16.58C152.52 16.54 152.28 16.52 152 16.52C151.16 16.52 150.04 17 149.62 17.62V24ZM155.547 13.3C154.727 13.3 154.027 12.62 154.027 11.78C154.027 10.94 154.727 10.28 155.547 10.28C156.387 10.28 157.067 10.94 157.067 11.78C157.067 12.62 156.387 13.3 155.547 13.3ZM156.827 24H154.287V14.34H156.827V24ZM162.586 24.24C160.806 24.24 159.846 23.32 159.846 21.6V16.56H158.246V14.34H159.846V11.7H162.406V14.34H164.366V16.56H162.406V20.92C162.406 21.52 162.726 21.98 163.286 21.98C163.666 21.98 164.026 21.84 164.166 21.7L164.706 23.62C164.326 23.96 163.646 24.24 162.586 24.24ZM167.364 13.3C166.544 13.3 165.844 12.62 165.844 11.78C165.844 10.94 166.544 10.28 167.364 10.28C168.204 10.28 168.884 10.94 168.884 11.78C168.884 12.62 168.204 13.3 167.364 13.3ZM168.644 24H166.104V14.34H168.644V24ZM180.222 24H177.682V18.16C177.682 16.82 176.982 16.36 175.902 16.36C174.902 16.36 174.122 16.92 173.702 17.5V24H171.162V14.34H173.702V15.6C174.322 14.86 175.502 14.1 177.082 14.1C179.202 14.1 180.222 15.3 180.222 17.18V24ZM186.704 27.92C185.044 27.92 183.764 27.54 182.544 26.48L183.684 24.64C184.464 25.5 185.484 25.84 186.704 25.84C187.924 25.84 189.364 25.3 189.364 23.4V22.42C188.604 23.38 187.564 23.94 186.384 23.94C183.964 23.94 182.124 22.24 182.124 19.02C182.124 15.86 183.944 14.1 186.384 14.1C187.544 14.1 188.584 14.6 189.364 15.58V14.34H191.924V23.34C191.924 27.02 189.084 27.92 186.704 27.92ZM187.184 21.68C188.024 21.68 188.944 21.2 189.364 20.58V17.46C188.944 16.82 188.024 16.36 187.184 16.36C185.744 16.36 184.744 17.36 184.744 19.02C184.744 20.68 185.744 21.68 187.184 21.68Z" fill="white"/>
</svg>
