<svg width="288" height="70" viewBox="0 0 288 70" fill="none" xmlns="http://www.w3.org/2000/svg">
<rect width="40" height="40" rx="4" fill="white"/>
<path d="M24.1667 27.7083H15.8334C12.7917 27.7083 11.0417 25.9583 11.0417 22.9166V17.0833C11.0417 14.0416 12.7917 12.2916 15.8334 12.2916H24.1667C27.2084 12.2916 28.9584 14.0416 28.9584 17.0833V22.9166C28.9584 25.9583 27.2084 27.7083 24.1667 27.7083ZM15.8334 13.5416C13.45 13.5416 12.2917 14.7 12.2917 17.0833V22.9166C12.2917 25.3 13.45 26.4583 15.8334 26.4583H24.1667C26.55 26.4583 27.7084 25.3 27.7084 22.9166V17.0833C27.7084 14.7 26.55 13.5416 24.1667 13.5416H15.8334Z" fill="#1A2630"/>
<path d="M19.9998 20.725C19.2998 20.725 18.5915 20.5083 18.0498 20.0666L15.4415 17.9833C15.1748 17.7666 15.1248 17.375 15.3415 17.1083C15.5581 16.8416 15.9498 16.7916 16.2165 17.0083L18.8248 19.0916C19.4581 19.6 20.5331 19.6 21.1665 19.0916L23.7748 17.0083C24.0415 16.7916 24.4415 16.8333 24.6498 17.1083C24.8665 17.375 24.8248 17.775 24.5498 17.9833L21.9415 20.0666C21.4081 20.5083 20.6998 20.725 19.9998 20.725Z" fill="#1A2630"/>
<path d="M68.36 27.5H57.872V11.492H68.36V13.268H59.864V18.428H68.192V20.204H59.864V25.724H68.36V27.5ZM87.2561 27.5H85.4561V19.628C85.4561 18.164 84.8081 17.228 83.3201 17.228C82.1201 17.228 80.8481 18.092 80.2481 19.004V27.5H78.4481V19.628C78.4481 18.164 77.8241 17.228 76.3121 17.228C75.1361 17.228 73.8881 18.092 73.2641 19.028V27.5H71.4641V15.908H73.2641V17.588C73.7441 16.844 75.3041 15.62 77.0081 15.62C78.7841 15.62 79.7921 16.58 80.1281 17.78C80.7761 16.724 82.3361 15.62 84.0161 15.62C86.1281 15.62 87.2561 16.796 87.2561 19.124V27.5ZM99.8949 27.5H98.0949V26.18C97.1349 27.236 95.8149 27.788 94.2549 27.788C92.2869 27.788 90.1989 26.468 90.1989 23.948C90.1989 21.356 92.2869 20.132 94.2549 20.132C95.8389 20.132 97.1589 20.636 98.0949 21.716V19.628C98.0949 18.068 96.8469 17.18 95.1669 17.18C93.7749 17.18 92.6469 17.684 91.6149 18.788L90.7749 17.54C92.0229 16.244 93.5109 15.62 95.4069 15.62C97.8549 15.62 99.8949 16.724 99.8949 19.532V27.5ZM94.9029 26.492C96.1749 26.492 97.3989 26.012 98.0949 25.052V22.868C97.3989 21.908 96.1749 21.428 94.9029 21.428C93.2229 21.428 92.0469 22.484 92.0469 23.972C92.0469 25.436 93.2229 26.492 94.9029 26.492ZM104.391 14.252C103.743 14.252 103.191 13.724 103.191 13.052C103.191 12.38 103.743 11.828 104.391 11.828C105.063 11.828 105.615 12.38 105.615 13.052C105.615 13.724 105.063 14.252 104.391 14.252ZM105.303 27.5H103.503V15.908H105.303V27.5ZM110.694 27.5H108.894V11.492H110.694V27.5Z" fill="#1A2630"/>
<path d="M63.184 65.216C60.592 65.216 58.846 63.236 58.846 60.644C58.846 58.07 60.592 56.09 63.184 56.09C64.768 56.09 65.704 56.738 66.37 57.602L65.47 58.43C64.894 57.638 64.156 57.296 63.256 57.296C61.402 57.296 60.25 58.718 60.25 60.644C60.25 62.57 61.402 64.01 63.256 64.01C64.156 64.01 64.894 63.65 65.47 62.876L66.37 63.704C65.704 64.568 64.768 65.216 63.184 65.216ZM72.0601 65.216C69.4141 65.216 67.7581 63.164 67.7581 60.644C67.7581 58.124 69.4141 56.09 72.0601 56.09C74.7061 56.09 76.3621 58.124 76.3621 60.644C76.3621 63.164 74.7061 65.216 72.0601 65.216ZM72.0601 64.01C73.9141 64.01 74.9401 62.426 74.9401 60.644C74.9401 58.88 73.9141 57.296 72.0601 57.296C70.2061 57.296 69.1621 58.88 69.1621 60.644C69.1621 62.426 70.2061 64.01 72.0601 64.01ZM85.7809 65H84.4309V59.312C84.4309 57.782 83.6569 57.296 82.4869 57.296C81.4249 57.296 80.4169 57.944 79.9129 58.646V65H78.5629V56.306H79.9129V57.566C80.5249 56.846 81.7129 56.09 83.0089 56.09C84.8269 56.09 85.7809 57.008 85.7809 58.898V65ZM90.673 65.216C89.395 65.216 88.747 64.478 88.747 63.182V57.494H87.307V56.306H88.747V53.93H90.097V56.306H91.861V57.494H90.097V62.894C90.097 63.542 90.385 64.01 90.979 64.01C91.357 64.01 91.717 63.848 91.897 63.65L92.293 64.658C91.951 64.982 91.465 65.216 90.673 65.216ZM100.554 65H99.204V64.01C98.484 64.802 97.494 65.216 96.324 65.216C94.848 65.216 93.282 64.226 93.282 62.336C93.282 60.392 94.848 59.474 96.324 59.474C97.512 59.474 98.502 59.852 99.204 60.662V59.096C99.204 57.926 98.268 57.26 97.008 57.26C95.964 57.26 95.118 57.638 94.344 58.466L93.714 57.53C94.65 56.558 95.766 56.09 97.188 56.09C99.024 56.09 100.554 56.918 100.554 59.024V65ZM96.81 64.244C97.764 64.244 98.682 63.884 99.204 63.164V61.526C98.682 60.806 97.764 60.446 96.81 60.446C95.55 60.446 94.668 61.238 94.668 62.354C94.668 63.452 95.55 64.244 96.81 64.244ZM107.094 65.216C104.502 65.216 102.756 63.236 102.756 60.644C102.756 58.07 104.502 56.09 107.094 56.09C108.678 56.09 109.614 56.738 110.28 57.602L109.38 58.43C108.804 57.638 108.066 57.296 107.166 57.296C105.312 57.296 104.16 58.718 104.16 60.644C104.16 62.57 105.312 64.01 107.166 64.01C108.066 64.01 108.804 63.65 109.38 62.876L110.28 63.704C109.614 64.568 108.678 65.216 107.094 65.216ZM114.368 65.216C113.09 65.216 112.442 64.478 112.442 63.182V57.494H111.002V56.306H112.442V53.93H113.792V56.306H115.556V57.494H113.792V62.894C113.792 63.542 114.08 64.01 114.674 64.01C115.052 64.01 115.412 63.848 115.592 63.65L115.988 64.658C115.646 64.982 115.16 65.216 114.368 65.216ZM122.449 66.26C119.173 66.26 116.743 63.794 116.743 60.608C116.743 56.72 120.145 53.516 123.889 53.516C127.291 53.516 129.559 56.072 129.559 59.222C129.559 62.048 127.957 63.47 126.445 63.47C125.437 63.47 124.861 62.768 124.807 62.012L124.789 61.904C124.159 62.786 123.097 63.47 121.945 63.47C120.271 63.47 119.191 62.282 119.191 60.536C119.191 58.034 121.297 56.018 123.421 56.018C124.591 56.018 125.383 56.648 125.725 57.422L125.959 56.306H127.183L126.157 61.184C126.139 61.292 126.121 61.454 126.121 61.562C126.121 62.174 126.499 62.498 126.967 62.498C127.669 62.498 128.911 61.706 128.911 59.222C128.911 56.27 126.877 54.128 123.817 54.128C120.343 54.128 117.355 57.206 117.355 60.572C117.355 63.47 119.533 65.666 122.521 65.666C123.799 65.666 124.897 65.27 125.869 64.658L126.193 65.126C125.077 65.846 123.781 66.26 122.449 66.26ZM122.305 62.462C123.547 62.462 124.465 61.598 124.987 60.842L125.509 58.358C125.311 57.8 124.717 57.026 123.655 57.026C121.855 57.026 120.469 58.736 120.469 60.464C120.469 61.616 121.153 62.462 122.305 62.462ZM135.395 65.216C132.803 65.216 131.057 63.236 131.057 60.644C131.057 58.07 132.803 56.09 135.395 56.09C136.979 56.09 137.915 56.738 138.581 57.602L137.681 58.43C137.105 57.638 136.367 57.296 135.467 57.296C133.613 57.296 132.461 58.718 132.461 60.644C132.461 62.57 133.613 64.01 135.467 64.01C136.367 64.01 137.105 63.65 137.681 62.876L138.581 63.704C137.915 64.568 136.979 65.216 135.395 65.216ZM141.823 65H140.473V56.306H141.823V57.71C142.525 56.792 143.533 56.126 144.721 56.126V57.512C144.559 57.476 144.397 57.458 144.181 57.458C143.353 57.458 142.219 58.142 141.823 58.844V65ZM150.338 65.216C147.764 65.216 145.91 63.362 145.91 60.644C145.91 58.124 147.71 56.09 150.194 56.09C152.822 56.09 154.37 58.142 154.37 60.752V61.094H147.332C147.44 62.732 148.592 64.1 150.464 64.1C151.454 64.1 152.462 63.704 153.146 63.002L153.794 63.884C152.93 64.748 151.76 65.216 150.338 65.216ZM153.038 60.104C153.02 58.808 152.156 57.206 150.176 57.206C148.322 57.206 147.404 58.772 147.332 60.104H153.038ZM163.343 65H161.993V64.01C161.273 64.802 160.283 65.216 159.113 65.216C157.637 65.216 156.071 64.226 156.071 62.336C156.071 60.392 157.637 59.474 159.113 59.474C160.301 59.474 161.291 59.852 161.993 60.662V59.096C161.993 57.926 161.057 57.26 159.797 57.26C158.753 57.26 157.907 57.638 157.133 58.466L156.503 57.53C157.439 56.558 158.555 56.09 159.977 56.09C161.813 56.09 163.343 56.918 163.343 59.024V65ZM159.599 64.244C160.553 64.244 161.471 63.884 161.993 63.164V61.526C161.471 60.806 160.553 60.446 159.599 60.446C158.339 60.446 157.457 61.238 157.457 62.354C157.457 63.452 158.339 64.244 159.599 64.244ZM168.245 65.216C166.967 65.216 166.319 64.478 166.319 63.182V57.494H164.879V56.306H166.319V53.93H167.669V56.306H169.433V57.494H167.669V62.894C167.669 63.542 167.957 64.01 168.551 64.01C168.929 64.01 169.289 63.848 169.469 63.65L169.865 64.658C169.523 64.982 169.037 65.216 168.245 65.216ZM172.006 55.064C171.52 55.064 171.106 54.668 171.106 54.164C171.106 53.66 171.52 53.246 172.006 53.246C172.51 53.246 172.924 53.66 172.924 54.164C172.924 54.668 172.51 55.064 172.006 55.064ZM172.69 65H171.34V56.306H172.69V65ZM179.181 65H177.705L174.087 56.306H175.545L178.443 63.434L181.323 56.306H182.799L179.181 65ZM188.131 65.216C185.557 65.216 183.703 63.362 183.703 60.644C183.703 58.124 185.503 56.09 187.987 56.09C190.615 56.09 192.163 58.142 192.163 60.752V61.094H185.125C185.233 62.732 186.385 64.1 188.257 64.1C189.247 64.1 190.255 63.704 190.939 63.002L191.587 63.884C190.723 64.748 189.553 65.216 188.131 65.216ZM190.831 60.104C190.813 58.808 189.949 57.206 187.969 57.206C186.115 57.206 185.197 58.772 185.125 60.104H190.831ZM202 65H200.65V63.704C200.002 64.586 198.94 65.216 197.716 65.216C195.448 65.216 193.846 63.488 193.846 60.662C193.846 57.89 195.43 56.09 197.716 56.09C198.886 56.09 199.948 56.666 200.65 57.62V52.994H202V65ZM198.04 64.01C199.12 64.01 200.164 63.398 200.65 62.642V58.7C200.164 57.944 199.12 57.296 198.04 57.296C196.294 57.296 195.25 58.736 195.25 60.662C195.25 62.588 196.294 64.01 198.04 64.01ZM208.628 65.216C206.054 65.216 204.2 63.362 204.2 60.644C204.2 58.124 206 56.09 208.484 56.09C211.112 56.09 212.66 58.142 212.66 60.752V61.094H205.622C205.73 62.732 206.882 64.1 208.754 64.1C209.744 64.1 210.752 63.704 211.436 63.002L212.084 63.884C211.22 64.748 210.05 65.216 208.628 65.216ZM211.328 60.104C211.31 58.808 210.446 57.206 208.466 57.206C206.612 57.206 205.694 58.772 205.622 60.104H211.328ZM217.6 65.216C216.178 65.216 214.972 64.784 214.09 63.848L214.792 62.876C215.368 63.542 216.466 64.118 217.654 64.118C218.986 64.118 219.706 63.488 219.706 62.624C219.706 60.518 214.324 61.814 214.324 58.592C214.324 57.242 215.494 56.09 217.564 56.09C219.04 56.09 220.084 56.648 220.786 57.35L220.156 58.286C219.634 57.656 218.68 57.188 217.564 57.188C216.376 57.188 215.638 57.782 215.638 58.556C215.638 60.464 221.02 59.204 221.02 62.588C221.02 64.046 219.85 65.216 217.6 65.216ZM223.879 55.064C223.393 55.064 222.979 54.668 222.979 54.164C222.979 53.66 223.393 53.246 223.879 53.246C224.383 53.246 224.797 53.66 224.797 54.164C224.797 54.668 224.383 55.064 223.879 55.064ZM224.563 65H223.213V56.306H224.563V65ZM230.748 68.528C229.272 68.528 228.264 68.24 227.238 67.232L227.922 66.224C228.642 67.088 229.506 67.412 230.748 67.412C232.188 67.412 233.538 66.71 233.538 64.802V63.56C232.908 64.442 231.846 65.108 230.622 65.108C228.354 65.108 226.752 63.416 226.752 60.608C226.752 57.818 228.336 56.09 230.622 56.09C231.792 56.09 232.836 56.666 233.538 57.62V56.306H234.888V64.748C234.888 67.628 232.872 68.528 230.748 68.528ZM230.946 63.92C232.026 63.92 233.07 63.254 233.538 62.498V58.7C233.07 57.944 232.026 57.296 230.946 57.296C229.2 57.296 228.156 58.682 228.156 60.608C228.156 62.516 229.2 63.92 230.946 63.92ZM244.81 65H243.46V59.312C243.46 57.782 242.686 57.296 241.516 57.296C240.454 57.296 239.446 57.944 238.942 58.646V65H237.592V56.306H238.942V57.566C239.554 56.846 240.742 56.09 242.038 56.09C243.856 56.09 244.81 57.008 244.81 58.898V65ZM248.226 65.18C247.686 65.18 247.236 64.73 247.236 64.19C247.236 63.65 247.686 63.2 248.226 63.2C248.766 63.2 249.216 63.65 249.216 64.19C249.216 64.73 248.766 65.18 248.226 65.18ZM255.366 65.216C252.774 65.216 251.028 63.236 251.028 60.644C251.028 58.07 252.774 56.09 255.366 56.09C256.95 56.09 257.886 56.738 258.552 57.602L257.652 58.43C257.076 57.638 256.338 57.296 255.438 57.296C253.584 57.296 252.432 58.718 252.432 60.644C252.432 62.57 253.584 64.01 255.438 64.01C256.338 64.01 257.076 63.65 257.652 62.876L258.552 63.704C257.886 64.568 256.95 65.216 255.366 65.216ZM264.242 65.216C261.596 65.216 259.94 63.164 259.94 60.644C259.94 58.124 261.596 56.09 264.242 56.09C266.888 56.09 268.544 58.124 268.544 60.644C268.544 63.164 266.888 65.216 264.242 65.216ZM264.242 64.01C266.096 64.01 267.122 62.426 267.122 60.644C267.122 58.88 266.096 57.296 264.242 57.296C262.388 57.296 261.344 58.88 261.344 60.644C261.344 62.426 262.388 64.01 264.242 64.01ZM282.589 65H281.239V59.096C281.239 57.998 280.753 57.296 279.637 57.296C278.737 57.296 277.783 57.944 277.333 58.628V65H275.983V59.096C275.983 57.998 275.515 57.296 274.381 57.296C273.499 57.296 272.563 57.944 272.095 58.646V65H270.745V56.306H272.095V57.566C272.455 57.008 273.625 56.09 274.903 56.09C276.235 56.09 276.991 56.81 277.243 57.71C277.729 56.918 278.899 56.09 280.159 56.09C281.743 56.09 282.589 56.972 282.589 58.718V65Z" fill="#4F5863"/>
</svg>
