<svg width="281" height="70" viewBox="0 0 281 70" fill="none" xmlns="http://www.w3.org/2000/svg">
<rect width="40" height="40" rx="4" fill="white"/>
<path d="M20 21.8084C18.225 21.8084 16.775 20.3667 16.775 18.5834C16.775 16.8 18.225 15.3667 20 15.3667C21.775 15.3667 23.225 16.8084 23.225 18.5917C23.225 20.375 21.775 21.8084 20 21.8084ZM20 16.6167C18.9167 16.6167 18.025 17.5 18.025 18.5917C18.025 19.6834 18.9084 20.5667 20 20.5667C21.0917 20.5667 21.975 19.6834 21.975 18.5917C21.975 17.5 21.0834 16.6167 20 16.6167Z" fill="#1A2630"/>
<path d="M20 28.9666C18.7667 28.9666 17.525 28.5 16.5584 27.575C14.1 25.2083 11.3834 21.4333 12.4084 16.9416C13.3334 12.8666 16.8917 11.0416 20 11.0416C20 11.0416 20 11.0416 20.0084 11.0416C23.1167 11.0416 26.675 12.8666 27.6 16.95C28.6167 21.4416 25.9 25.2083 23.4417 27.575C22.475 28.5 21.2334 28.9666 20 28.9666ZM20 12.2916C17.575 12.2916 14.4584 13.5833 13.6334 17.2166C12.7334 21.1416 15.2 24.525 17.4334 26.6666C18.875 28.0583 21.1334 28.0583 22.575 26.6666C24.8 24.525 27.2667 21.1416 26.3834 17.2166C25.55 13.5833 22.425 12.2916 20 12.2916Z" fill="#1A2630"/>
<path d="M65.168 27.788C60.416 27.788 57.224 24.236 57.224 19.508C57.224 14.78 60.416 11.228 65.168 11.228C69.896 11.228 73.112 14.78 73.112 19.508C73.112 24.236 69.896 27.788 65.168 27.788ZM65.168 26.012C68.744 26.012 71.048 23.228 71.048 19.508C71.048 15.764 68.744 13.004 65.168 13.004C61.568 13.004 59.288 15.764 59.288 19.508C59.288 23.228 61.568 26.012 65.168 26.012ZM85.2476 27.5H83.4476V17.492H81.5276V15.908H83.4476V15.02C83.4476 12.62 84.7916 11.252 86.8076 11.252C87.4796 11.252 88.1036 11.372 88.5596 11.66L88.1036 13.028C87.8396 12.86 87.5276 12.74 87.0716 12.74C85.8956 12.74 85.2476 13.556 85.2476 15.02V15.908H87.5996V17.492H85.2476V27.5ZM90.6476 14.252C89.9996 14.252 89.4476 13.724 89.4476 13.052C89.4476 12.38 89.9996 11.828 90.6476 11.828C91.3196 11.828 91.8716 12.38 91.8716 13.052C91.8716 13.724 91.3196 14.252 90.6476 14.252ZM91.5596 27.5H89.7596V15.908H91.5596V27.5ZM78.4556 27.5H76.6556V17.492H74.7356V15.908H76.6556V15.02C76.6556 12.644 77.9516 11.252 80.0156 11.252C80.9276 11.252 81.7436 11.468 82.4636 12.14L81.7196 13.316C81.3356 12.98 80.8796 12.74 80.2796 12.74C79.1036 12.74 78.4556 13.556 78.4556 15.02V15.908H80.8076V17.492H78.4556V27.5ZM100.271 27.788C96.8154 27.788 94.4874 25.148 94.4874 21.692C94.4874 18.26 96.8154 15.62 100.271 15.62C102.383 15.62 103.631 16.484 104.519 17.636L103.319 18.74C102.551 17.684 101.567 17.228 100.367 17.228C97.8954 17.228 96.3594 19.124 96.3594 21.692C96.3594 24.26 97.8954 26.18 100.367 26.18C101.567 26.18 102.551 25.7 103.319 24.668L104.519 25.772C103.631 26.924 102.383 27.788 100.271 27.788ZM112.274 27.788C108.842 27.788 106.37 25.316 106.37 21.692C106.37 18.332 108.77 15.62 112.082 15.62C115.586 15.62 117.65 18.356 117.65 21.836V22.292H108.266C108.41 24.476 109.946 26.3 112.442 26.3C113.762 26.3 115.106 25.772 116.018 24.836L116.882 26.012C115.73 27.164 114.17 27.788 112.274 27.788ZM115.874 20.972C115.85 19.244 114.698 17.108 112.058 17.108C109.586 17.108 108.362 19.196 108.266 20.972H115.874ZM140.529 27.5H138.249L136.833 23.948H128.865L127.449 27.5H125.169L131.601 11.492H134.073L140.529 27.5ZM136.233 22.172L132.849 13.556L129.441 22.172H136.233ZM152.75 27.5H150.95V25.772C150.086 26.948 148.67 27.788 147.038 27.788C144.014 27.788 141.878 25.484 141.878 21.716C141.878 18.02 143.99 15.62 147.038 15.62C148.598 15.62 150.014 16.388 150.95 17.66V11.492H152.75V27.5ZM147.47 26.18C148.91 26.18 150.302 25.364 150.95 24.356V19.1C150.302 18.092 148.91 17.228 147.47 17.228C145.142 17.228 143.75 19.148 143.75 21.716C143.75 24.284 145.142 26.18 147.47 26.18ZM166.555 27.5H164.755V25.772C163.891 26.948 162.475 27.788 160.843 27.788C157.819 27.788 155.683 25.484 155.683 21.716C155.683 18.02 157.795 15.62 160.843 15.62C162.403 15.62 163.819 16.388 164.755 17.66V11.492H166.555V27.5ZM161.275 26.18C162.715 26.18 164.107 25.364 164.755 24.356V19.1C164.107 18.092 162.715 17.228 161.275 17.228C158.947 17.228 157.555 19.148 157.555 21.716C157.555 24.284 158.947 26.18 161.275 26.18ZM171.959 27.5H170.159V15.908H171.959V17.78C172.895 16.556 174.239 15.668 175.823 15.668V17.516C175.607 17.468 175.391 17.444 175.103 17.444C173.999 17.444 172.487 18.356 171.959 19.292V27.5ZM183.313 27.788C179.881 27.788 177.409 25.316 177.409 21.692C177.409 18.332 179.809 15.62 183.121 15.62C186.625 15.62 188.689 18.356 188.689 21.836V22.292H179.305C179.449 24.476 180.985 26.3 183.481 26.3C184.801 26.3 186.145 25.772 187.057 24.836L187.921 26.012C186.769 27.164 185.209 27.788 183.313 27.788ZM186.913 20.972C186.889 19.244 185.737 17.108 183.097 17.108C180.625 17.108 179.401 19.196 179.305 20.972H186.913ZM195.277 27.788C193.381 27.788 191.773 27.212 190.597 25.964L191.533 24.668C192.301 25.556 193.765 26.324 195.349 26.324C197.125 26.324 198.085 25.484 198.085 24.332C198.085 21.524 190.909 23.252 190.909 18.956C190.909 17.156 192.469 15.62 195.229 15.62C197.197 15.62 198.589 16.364 199.525 17.3L198.685 18.548C197.989 17.708 196.717 17.084 195.229 17.084C193.645 17.084 192.661 17.876 192.661 18.908C192.661 21.452 199.837 19.772 199.837 24.284C199.837 26.228 198.277 27.788 195.277 27.788ZM206.433 27.788C204.537 27.788 202.929 27.212 201.753 25.964L202.689 24.668C203.457 25.556 204.921 26.324 206.505 26.324C208.281 26.324 209.241 25.484 209.241 24.332C209.241 21.524 202.065 23.252 202.065 18.956C202.065 17.156 203.625 15.62 206.385 15.62C208.353 15.62 209.745 16.364 210.681 17.3L209.841 18.548C209.145 17.708 207.873 17.084 206.385 17.084C204.801 17.084 203.817 17.876 203.817 18.908C203.817 21.452 210.993 19.772 210.993 24.284C210.993 26.228 209.433 27.788 206.433 27.788ZM214.877 18.38C214.157 18.38 213.557 17.78 213.557 17.06C213.557 16.34 214.157 15.74 214.877 15.74C215.597 15.74 216.197 16.34 216.197 17.06C216.197 17.78 215.597 18.38 214.877 18.38ZM214.877 27.74C214.157 27.74 213.557 27.14 213.557 26.42C213.557 25.7 214.157 25.1 214.877 25.1C215.597 25.1 216.197 25.7 216.197 26.42C216.197 27.14 215.597 27.74 214.877 27.74Z" fill="#1A2630"/>
<path d="M63.544 65.216C60.196 65.216 58.918 62.282 58.918 59.024C58.918 55.766 60.43 52.814 63.796 52.814C65.344 52.814 66.388 53.408 67.126 54.254L66.37 55.37C65.758 54.65 65.056 54.146 63.796 54.146C61.474 54.146 60.412 56.504 60.412 58.862C60.412 59.024 60.412 59.168 60.43 59.33C60.952 58.502 62.284 57.458 63.832 57.458C65.992 57.458 67.756 58.736 67.756 61.292C67.756 63.38 66.172 65.216 63.544 65.216ZM63.49 63.884C65.344 63.884 66.244 62.498 66.244 61.346C66.244 59.582 65.02 58.754 63.472 58.754C62.284 58.754 61.132 59.492 60.466 60.554C60.61 62.048 61.402 63.884 63.49 63.884ZM74.1788 65.216C70.8308 65.216 69.5528 62.282 69.5528 59.024C69.5528 55.766 71.0648 52.814 74.4308 52.814C75.9788 52.814 77.0228 53.408 77.7608 54.254L77.0048 55.37C76.3928 54.65 75.6908 54.146 74.4308 54.146C72.1088 54.146 71.0468 56.504 71.0468 58.862C71.0468 59.024 71.0468 59.168 71.0648 59.33C71.5868 58.502 72.9188 57.458 74.4668 57.458C76.6268 57.458 78.3908 58.736 78.3908 61.292C78.3908 63.38 76.8068 65.216 74.1788 65.216ZM74.1248 63.884C75.9788 63.884 76.8788 62.498 76.8788 61.346C76.8788 59.582 75.6548 58.754 74.1068 58.754C72.9188 58.754 71.7668 59.492 71.1008 60.554C71.2448 62.048 72.0368 63.884 74.1248 63.884ZM94.0262 65H92.2622L89.2022 60.23H86.8082V65H85.3142V52.994H90.1382C92.3342 52.994 93.9002 54.398 93.9002 56.612C93.9002 58.772 92.4242 59.96 90.7862 60.104L94.0262 65ZM89.9582 58.916C91.3802 58.916 92.3522 57.962 92.3522 56.612C92.3522 55.262 91.3802 54.326 89.9582 54.326H86.8082V58.916H89.9582ZM99.4644 65.216C96.8184 65.216 95.1624 63.164 95.1624 60.644C95.1624 58.124 96.8184 56.09 99.4644 56.09C102.11 56.09 103.766 58.124 103.766 60.644C103.766 63.164 102.11 65.216 99.4644 65.216ZM99.4644 64.01C101.318 64.01 102.344 62.426 102.344 60.644C102.344 58.88 101.318 57.296 99.4644 57.296C97.6104 57.296 96.5664 58.88 96.5664 60.644C96.5664 62.426 97.6104 64.01 99.4644 64.01ZM112.753 65H111.403V64.01C110.683 64.802 109.693 65.216 108.523 65.216C107.047 65.216 105.481 64.226 105.481 62.336C105.481 60.392 107.047 59.474 108.523 59.474C109.711 59.474 110.701 59.852 111.403 60.662V59.096C111.403 57.926 110.467 57.26 109.207 57.26C108.163 57.26 107.317 57.638 106.543 58.466L105.913 57.53C106.849 56.558 107.965 56.09 109.387 56.09C111.223 56.09 112.753 56.918 112.753 59.024V65ZM109.009 64.244C109.963 64.244 110.881 63.884 111.403 63.164V61.526C110.881 60.806 109.963 60.446 109.009 60.446C107.749 60.446 106.867 61.238 106.867 62.354C106.867 63.452 107.749 64.244 109.009 64.244ZM123.109 65H121.759V63.704C121.111 64.586 120.049 65.216 118.825 65.216C116.557 65.216 114.955 63.488 114.955 60.662C114.955 57.89 116.539 56.09 118.825 56.09C119.995 56.09 121.057 56.666 121.759 57.62V52.994H123.109V65ZM119.149 64.01C120.229 64.01 121.273 63.398 121.759 62.642V58.7C121.273 57.944 120.229 57.296 119.149 57.296C117.403 57.296 116.359 58.736 116.359 60.662C116.359 62.588 117.403 64.01 119.149 64.01ZM135.98 65H130.508V52.994H135.854C137.942 52.994 139.22 54.254 139.22 56.054C139.22 57.566 138.212 58.574 137.114 58.808C138.392 59.006 139.454 60.32 139.454 61.76C139.454 63.686 138.176 65 135.98 65ZM135.602 58.196C136.952 58.196 137.672 57.368 137.672 56.27C137.672 55.19 136.952 54.326 135.602 54.326H132.002V58.196H135.602ZM135.674 63.668C137.078 63.668 137.906 62.876 137.906 61.598C137.906 60.5 137.15 59.528 135.674 59.528H132.002V63.668H135.674ZM143.124 65H141.774V56.306H143.124V57.71C143.826 56.792 144.834 56.126 146.022 56.126V57.512C145.86 57.476 145.698 57.458 145.482 57.458C144.654 57.458 143.52 58.142 143.124 58.844V65ZM151.513 65.216C148.867 65.216 147.211 63.164 147.211 60.644C147.211 58.124 148.867 56.09 151.513 56.09C154.159 56.09 155.815 58.124 155.815 60.644C155.815 63.164 154.159 65.216 151.513 65.216ZM151.513 64.01C153.367 64.01 154.393 62.426 154.393 60.644C154.393 58.88 153.367 57.296 151.513 57.296C149.659 57.296 148.615 58.88 148.615 60.644C148.615 62.426 149.659 64.01 151.513 64.01ZM165.666 65H163.938L160.806 61.094L159.366 62.516V65H158.016V52.994H159.366V60.932L163.938 56.306H165.648L161.796 60.248L165.666 65ZM168.612 65H167.262V52.994H168.612V65ZM170.819 68.402L171.035 67.178C171.233 67.268 171.557 67.322 171.773 67.322C172.367 67.322 172.763 67.124 173.069 66.404L173.645 65.09L170.009 56.306H171.467L174.365 63.434L177.245 56.306H178.721L174.365 66.764C173.843 68.024 172.961 68.51 171.809 68.528C171.521 68.528 171.071 68.474 170.819 68.402ZM187.347 65H185.997V59.312C185.997 57.782 185.223 57.296 184.053 57.296C182.991 57.296 181.983 57.944 181.479 58.646V65H180.129V56.306H181.479V57.566C182.091 56.846 183.279 56.09 184.575 56.09C186.393 56.09 187.347 57.008 187.347 58.898V65ZM198.626 65.216C196.538 65.216 195.008 64.424 194.018 63.308L194.9 62.174C195.692 63.056 196.988 63.884 198.68 63.884C200.822 63.884 201.506 62.732 201.506 61.814C201.506 58.718 194.396 60.428 194.396 56.144C194.396 54.164 196.16 52.814 198.518 52.814C200.354 52.814 201.776 53.426 202.784 54.488L201.884 55.586C200.984 54.596 199.724 54.146 198.41 54.146C196.97 54.146 195.944 54.92 195.944 56.054C195.944 58.754 203.054 57.206 203.054 61.688C203.054 63.434 201.866 65.216 198.626 65.216ZM207.128 65.216C205.85 65.216 205.202 64.478 205.202 63.182V57.494H203.762V56.306H205.202V53.93H206.552V56.306H208.316V57.494H206.552V62.894C206.552 63.542 206.84 64.01 207.434 64.01C207.812 64.01 208.172 63.848 208.352 63.65L208.748 64.658C208.406 64.982 207.92 65.216 207.128 65.216ZM211.573 65H210.223V56.306H211.573V57.71C212.275 56.792 213.283 56.126 214.471 56.126V57.512C214.309 57.476 214.147 57.458 213.931 57.458C213.103 57.458 211.969 58.142 211.573 58.844V65ZM220.088 65.216C217.514 65.216 215.66 63.362 215.66 60.644C215.66 58.124 217.46 56.09 219.944 56.09C222.572 56.09 224.12 58.142 224.12 60.752V61.094H217.082C217.19 62.732 218.342 64.1 220.214 64.1C221.204 64.1 222.212 63.704 222.896 63.002L223.544 63.884C222.68 64.748 221.51 65.216 220.088 65.216ZM222.788 60.104C222.77 58.808 221.906 57.206 219.926 57.206C218.072 57.206 217.154 58.772 217.082 60.104H222.788ZM230.231 65.216C227.657 65.216 225.803 63.362 225.803 60.644C225.803 58.124 227.603 56.09 230.087 56.09C232.715 56.09 234.263 58.142 234.263 60.752V61.094H227.225C227.333 62.732 228.485 64.1 230.357 64.1C231.347 64.1 232.355 63.704 233.039 63.002L233.687 63.884C232.823 64.748 231.653 65.216 230.231 65.216ZM232.931 60.104C232.913 58.808 232.049 57.206 230.069 57.206C228.215 57.206 227.297 58.772 227.225 60.104H232.931ZM238.646 65.216C237.368 65.216 236.72 64.478 236.72 63.182V57.494H235.28V56.306H236.72V53.93H238.07V56.306H239.834V57.494H238.07V62.894C238.07 63.542 238.358 64.01 238.952 64.01C239.33 64.01 239.69 63.848 239.87 63.65L240.266 64.658C239.924 64.982 239.438 65.216 238.646 65.216ZM243.559 64.568C243.559 65.666 242.911 66.692 242.083 67.286L241.417 66.728C241.993 66.35 242.515 65.648 242.587 65.054C242.551 65.072 242.425 65.09 242.335 65.09C241.831 65.09 241.471 64.712 241.471 64.172C241.471 63.65 241.885 63.2 242.425 63.2C243.019 63.2 243.559 63.704 243.559 64.568ZM254.724 65.216C251.376 65.216 250.098 62.282 250.098 59.024C250.098 55.766 251.61 52.814 254.976 52.814C256.524 52.814 257.568 53.408 258.306 54.254L257.55 55.37C256.938 54.65 256.236 54.146 254.976 54.146C252.654 54.146 251.592 56.504 251.592 58.862C251.592 59.024 251.592 59.168 251.61 59.33C252.132 58.502 253.464 57.458 255.012 57.458C257.172 57.458 258.936 58.736 258.936 61.292C258.936 63.38 257.352 65.216 254.724 65.216ZM254.67 63.884C256.524 63.884 257.424 62.498 257.424 61.346C257.424 59.582 256.2 58.754 254.652 58.754C253.464 58.754 252.312 59.492 251.646 60.554C251.79 62.048 252.582 63.884 254.67 63.884ZM265.322 65.216C262.028 65.216 260.732 61.922 260.732 59.006C260.732 56.072 262.028 52.814 265.322 52.814C268.598 52.814 269.912 56.072 269.912 59.006C269.912 61.922 268.598 65.216 265.322 65.216ZM265.322 63.884C267.608 63.884 268.382 61.4 268.382 59.006C268.382 56.612 267.608 54.146 265.322 54.146C263.036 54.146 262.262 56.612 262.262 59.006C262.262 61.4 263.036 63.884 265.322 63.884ZM276.344 65.216C273.05 65.216 271.754 61.922 271.754 59.006C271.754 56.072 273.05 52.814 276.344 52.814C279.62 52.814 280.934 56.072 280.934 59.006C280.934 61.922 279.62 65.216 276.344 65.216ZM276.344 63.884C278.63 63.884 279.404 61.4 279.404 59.006C279.404 56.612 278.63 54.146 276.344 54.146C274.058 54.146 273.284 56.612 273.284 59.006C273.284 61.4 274.058 63.884 276.344 63.884Z" fill="#4F5863"/>
</svg>
