<svg width="270" height="70" viewBox="0 0 270 70" fill="none" xmlns="http://www.w3.org/2000/svg">
<rect width="40" height="40" rx="4" fill="white"/>
<path d="M24.5417 28.9583C23.6 28.9583 22.6084 28.7333 21.5834 28.3C20.5834 27.875 19.575 27.2916 18.5917 26.5833C17.6167 25.8666 16.675 25.0666 15.7834 24.1916C14.9 23.3 14.1 22.3583 13.3917 21.3916C12.675 20.3916 12.1 19.3916 11.6917 18.425C11.2584 17.3916 11.0417 16.3916 11.0417 15.45C11.0417 14.8 11.1584 14.1833 11.3834 13.6083C11.6167 13.0166 11.9917 12.4666 12.5 11.9916C13.1417 11.3583 13.875 11.0416 14.6584 11.0416C14.9834 11.0416 15.3167 11.1166 15.6 11.25C15.925 11.4 16.2 11.625 16.4 11.925L18.3334 14.65C18.5084 14.8916 18.6417 15.125 18.7334 15.3583C18.8417 15.6083 18.9 15.8583 18.9 16.1C18.9 16.4166 18.8084 16.725 18.6334 17.0166C18.5084 17.2416 18.3167 17.4833 18.075 17.725L17.5084 18.3166C17.5167 18.3416 17.525 18.3583 17.5334 18.375C17.6334 18.55 17.8334 18.85 18.2167 19.3C18.625 19.7666 19.0084 20.1916 19.3917 20.5833C19.8834 21.0666 20.2917 21.45 20.675 21.7666C21.15 22.1666 21.4584 22.3666 21.6417 22.4583L21.625 22.5L22.2334 21.9C22.4917 21.6416 22.7417 21.45 22.9834 21.325C23.4417 21.0416 24.025 20.9916 24.6084 21.2333C24.825 21.325 25.0584 21.45 25.3084 21.625L28.075 23.5916C28.3834 23.8 28.6084 24.0666 28.7417 24.3833C28.8667 24.7 28.925 24.9916 28.925 25.2833C28.925 25.6833 28.8334 26.0833 28.6584 26.4583C28.4834 26.8333 28.2667 27.1583 27.9917 27.4583C27.5167 27.9833 27 28.3583 26.4 28.6C25.825 28.8333 25.2 28.9583 24.5417 28.9583ZM14.6584 12.2916C14.2 12.2916 13.775 12.4916 13.3667 12.8916C12.9834 13.25 12.7167 13.6416 12.55 14.0666C12.375 14.5 12.2917 14.9583 12.2917 15.45C12.2917 16.225 12.475 17.0666 12.8417 17.9333C13.2167 18.8166 13.7417 19.7333 14.4084 20.65C15.075 21.5666 15.8334 22.4583 16.6667 23.3C17.5 24.125 18.4 24.8916 19.325 25.5666C20.225 26.225 21.15 26.7583 22.0667 27.1416C23.4917 27.75 24.825 27.8916 25.925 27.4333C26.35 27.2583 26.725 26.9916 27.0667 26.6083C27.2584 26.4 27.4084 26.175 27.5334 25.9083C27.6334 25.7 27.6834 25.4833 27.6834 25.2666C27.6834 25.1333 27.6584 25 27.5917 24.85C27.5667 24.8 27.5167 24.7083 27.3584 24.6L24.5917 22.6333C24.425 22.5166 24.275 22.4333 24.1334 22.375C23.95 22.3 23.875 22.225 23.5917 22.4C23.425 22.4833 23.275 22.6083 23.1084 22.775L22.475 23.4C22.15 23.7166 21.65 23.7916 21.2667 23.65L21.0417 23.55C20.7 23.3666 20.3 23.0833 19.8584 22.7083C19.4584 22.3666 19.025 21.9666 18.5 21.45C18.0917 21.0333 17.6834 20.5916 17.2584 20.1C16.8667 19.6416 16.5834 19.25 16.4084 18.925L16.3084 18.675C16.2584 18.4833 16.2417 18.375 16.2417 18.2583C16.2417 17.9583 16.35 17.6916 16.5584 17.4833L17.1834 16.8333C17.35 16.6666 17.475 16.5083 17.5584 16.3666C17.625 16.2583 17.65 16.1666 17.65 16.0833C17.65 16.0166 17.625 15.9166 17.5834 15.8166C17.525 15.6833 17.4334 15.5333 17.3167 15.375L15.3834 12.6416C15.3 12.525 15.2 12.4416 15.075 12.3833C14.9417 12.325 14.8 12.2916 14.6584 12.2916ZM21.625 22.5083L21.4917 23.075L21.7167 22.4916C21.675 22.4833 21.6417 22.4916 21.625 22.5083Z" fill="#1A2630"/>
<path d="M65.456 27.788C60.848 27.788 57.224 24.428 57.224 19.508C57.224 14.588 60.848 11.228 65.456 11.228C68.288 11.228 70.256 12.596 71.528 14.396L69.848 15.332C68.936 13.988 67.28 13.004 65.456 13.004C61.952 13.004 59.288 15.692 59.288 19.508C59.288 23.3 61.952 26.012 65.456 26.012C67.28 26.012 68.936 25.052 69.848 23.684L71.552 24.62C70.208 26.444 68.288 27.788 65.456 27.788ZM79.0828 27.788C75.5548 27.788 73.3468 25.052 73.3468 21.692C73.3468 18.332 75.5548 15.62 79.0828 15.62C82.6108 15.62 84.8188 18.332 84.8188 21.692C84.8188 25.052 82.6108 27.788 79.0828 27.788ZM79.0828 26.18C81.5548 26.18 82.9228 24.068 82.9228 21.692C82.9228 19.34 81.5548 17.228 79.0828 17.228C76.6108 17.228 75.2188 19.34 75.2188 21.692C75.2188 24.068 76.6108 26.18 79.0828 26.18ZM97.3771 27.5H95.5771V19.916C95.5771 17.876 94.5451 17.228 92.9851 17.228C91.5691 17.228 90.2251 18.092 89.5531 19.028V27.5H87.7531V15.908H89.5531V17.588C90.3691 16.628 91.9531 15.62 93.6811 15.62C96.1051 15.62 97.3771 16.844 97.3771 19.364V27.5ZM103.9 27.788C102.196 27.788 101.332 26.804 101.332 25.076V17.492H99.4119V15.908H101.332V12.74H103.132V15.908H105.484V17.492H103.132V24.692C103.132 25.556 103.516 26.18 104.308 26.18C104.812 26.18 105.292 25.964 105.532 25.7L106.06 27.044C105.604 27.476 104.956 27.788 103.9 27.788ZM117.075 27.5H115.275V26.18C114.315 27.236 112.995 27.788 111.435 27.788C109.467 27.788 107.379 26.468 107.379 23.948C107.379 21.356 109.467 20.132 111.435 20.132C113.019 20.132 114.339 20.636 115.275 21.716V19.628C115.275 18.068 114.027 17.18 112.347 17.18C110.955 17.18 109.827 17.684 108.795 18.788L107.955 17.54C109.203 16.244 110.691 15.62 112.587 15.62C115.035 15.62 117.075 16.724 117.075 19.532V27.5ZM112.083 26.492C113.355 26.492 114.579 26.012 115.275 25.052V22.868C114.579 21.908 113.355 21.428 112.083 21.428C110.403 21.428 109.227 22.484 109.227 23.972C109.227 25.436 110.403 26.492 112.083 26.492ZM125.795 27.788C122.339 27.788 120.011 25.148 120.011 21.692C120.011 18.26 122.339 15.62 125.795 15.62C127.907 15.62 129.155 16.484 130.043 17.636L128.843 18.74C128.075 17.684 127.091 17.228 125.891 17.228C123.419 17.228 121.883 19.124 121.883 21.692C121.883 24.26 123.419 26.18 125.891 26.18C127.091 26.18 128.075 25.7 128.843 24.668L130.043 25.772C129.155 26.924 127.907 27.788 125.795 27.788ZM135.494 27.788C133.79 27.788 132.926 26.804 132.926 25.076V17.492H131.006V15.908H132.926V12.74H134.726V15.908H137.078V17.492H134.726V24.692C134.726 25.556 135.11 26.18 135.902 26.18C136.406 26.18 136.886 25.964 137.126 25.7L137.654 27.044C137.198 27.476 136.55 27.788 135.494 27.788ZM159.128 27.5H157.208L147.872 14.732V27.5H145.88V11.492H147.92L157.136 23.996V11.492H159.128V27.5ZM167.864 27.788C164.336 27.788 162.128 25.052 162.128 21.692C162.128 18.332 164.336 15.62 167.864 15.62C171.392 15.62 173.6 18.332 173.6 21.692C173.6 25.052 171.392 27.788 167.864 27.788ZM167.864 26.18C170.336 26.18 171.704 24.068 171.704 21.692C171.704 19.34 170.336 17.228 167.864 17.228C165.392 17.228 164 19.34 164 21.692C164 24.068 165.392 26.18 167.864 26.18Z" fill="#1A2630"/>
<path d="M62.14 67.952L61.33 68.582C59.71 66.368 58.792 63.524 58.792 60.626C58.792 57.728 59.71 54.902 61.33 52.67L62.14 53.282C60.988 55.568 60.268 57.62 60.268 60.626C60.268 63.614 60.988 65.684 62.14 67.952ZM67.8828 65.216C65.8488 65.216 64.5528 64.478 63.6528 63.29L64.5708 62.3C65.3628 63.308 66.4068 63.884 67.8828 63.884C69.5208 63.884 70.6548 62.768 70.6548 61.31C70.6548 59.726 69.5208 58.718 67.9008 58.718C66.8388 58.718 65.9388 59.06 65.1288 59.852L64.0308 59.474V52.994H71.3748V54.326H65.5248V58.502C66.1008 57.926 67.1268 57.422 68.3328 57.422C70.3308 57.422 72.1488 58.79 72.1488 61.256C72.1488 63.704 70.2948 65.216 67.8828 65.216ZM78.59 65.216C75.296 65.216 74 61.922 74 59.006C74 56.072 75.296 52.814 78.59 52.814C81.866 52.814 83.18 56.072 83.18 59.006C83.18 61.922 81.866 65.216 78.59 65.216ZM78.59 63.884C80.876 63.884 81.65 61.4 81.65 59.006C81.65 56.612 80.876 54.146 78.59 54.146C76.304 54.146 75.53 56.612 75.53 59.006C75.53 61.4 76.304 63.884 78.59 63.884ZM88.9455 65.198C87.4155 65.198 86.3715 64.622 85.6155 63.758L86.3715 62.642C86.9835 63.362 87.7035 63.866 88.9455 63.866C91.3755 63.866 92.3295 61.436 92.3295 59.168C92.3295 59.006 92.3295 58.844 92.3115 58.682C91.7895 59.51 90.4575 60.554 88.9275 60.554C86.7675 60.554 84.9855 59.276 84.9855 56.72C84.9855 54.65 86.5695 52.796 89.1795 52.796C92.5455 52.796 93.8235 55.73 93.8235 59.006C93.8235 62.246 92.3115 65.198 88.9455 65.198ZM89.2695 59.258C90.4575 59.258 91.6275 58.538 92.2575 57.476C92.1315 55.982 91.3395 54.128 89.2515 54.128C87.4155 54.128 86.4975 55.532 86.4975 56.666C86.4975 58.43 87.7215 59.258 89.2695 59.258ZM95.8543 68.582L95.0443 67.952C96.2143 65.684 96.9343 63.614 96.9343 60.626C96.9343 57.62 96.2143 55.568 95.0443 53.282L95.8543 52.67C97.4923 54.902 98.4103 57.728 98.4103 60.626C98.4103 63.524 97.4923 66.368 95.8543 68.582ZM109.262 65.216C107.228 65.216 105.932 64.478 105.032 63.29L105.95 62.3C106.742 63.308 107.786 63.884 109.262 63.884C110.9 63.884 112.034 62.768 112.034 61.31C112.034 59.726 110.9 58.718 109.28 58.718C108.218 58.718 107.318 59.06 106.508 59.852L105.41 59.474V52.994H112.754V54.326H106.904V58.502C107.48 57.926 108.506 57.422 109.712 57.422C111.71 57.422 113.528 58.79 113.528 61.256C113.528 63.704 111.674 65.216 109.262 65.216ZM120.005 65.216C116.657 65.216 115.379 62.282 115.379 59.024C115.379 55.766 116.891 52.814 120.257 52.814C121.805 52.814 122.849 53.408 123.587 54.254L122.831 55.37C122.219 54.65 121.517 54.146 120.257 54.146C117.935 54.146 116.873 56.504 116.873 58.862C116.873 59.024 116.873 59.168 116.891 59.33C117.413 58.502 118.745 57.458 120.293 57.458C122.453 57.458 124.217 58.736 124.217 61.292C124.217 63.38 122.633 65.216 120.005 65.216ZM119.951 63.884C121.805 63.884 122.705 62.498 122.705 61.346C122.705 59.582 121.481 58.754 119.933 58.754C118.745 58.754 117.593 59.492 116.927 60.554C117.071 62.048 117.863 63.884 119.951 63.884ZM134.312 65H126.068V63.812C130.388 60.41 132.728 58.412 132.728 56.342C132.728 54.812 131.468 54.146 130.226 54.146C128.786 54.146 127.67 54.758 126.968 55.658L126.05 54.704C126.968 53.498 128.534 52.814 130.226 52.814C132.224 52.814 134.258 53.948 134.258 56.342C134.258 58.79 131.774 61.022 128.426 63.668H134.312V65ZM140.538 61.238H136.218V60.05H140.538V61.238ZM145.772 65H144.278V54.974L142.352 57.008L141.452 56.09L144.458 52.994H145.772V65ZM152.016 65.198C150.486 65.198 149.442 64.622 148.686 63.758L149.442 62.642C150.054 63.362 150.774 63.866 152.016 63.866C154.446 63.866 155.4 61.436 155.4 59.168C155.4 59.006 155.4 58.844 155.382 58.682C154.86 59.51 153.528 60.554 151.998 60.554C149.838 60.554 148.056 59.276 148.056 56.72C148.056 54.65 149.64 52.796 152.25 52.796C155.616 52.796 156.894 55.73 156.894 59.006C156.894 62.246 155.382 65.198 152.016 65.198ZM152.34 59.258C153.528 59.258 154.698 58.538 155.328 57.476C155.202 55.982 154.41 54.128 152.322 54.128C150.486 54.128 149.568 55.532 149.568 56.666C149.568 58.43 150.792 59.258 152.34 59.258ZM162.507 65H161.013V54.974L159.087 57.008L158.187 56.09L161.193 52.994H162.507V65ZM173.124 65H164.88V63.812C169.2 60.41 171.54 58.412 171.54 56.342C171.54 54.812 170.28 54.146 169.038 54.146C167.598 54.146 166.482 54.758 165.78 55.658L164.862 54.704C165.78 53.498 167.346 52.814 169.038 52.814C171.036 52.814 173.07 53.948 173.07 56.342C173.07 58.79 170.586 61.022 167.238 63.668H173.124V65Z" fill="#4F5863"/>
</svg>
