<svg width="210" height="78" viewBox="0 0 210 78" fill="none" xmlns="http://www.w3.org/2000/svg">
<rect width="36" height="36" rx="4" fill="#E9F4FF"/>
<path d="M11.9998 28.75C11.6998 28.75 11.3798 28.72 11.0598 28.66C10.8898 28.62 10.7398 28.58 10.5898 28.54C10.4198 28.49 10.2597 28.43 10.1097 28.37C10.0697 28.36 10.0398 28.34 10.0098 28.33C9.65977 28.15 9.35975 27.97 9.08975 27.77C9.06975 27.76 9.05976 27.74 9.03976 27.73C8.88976 27.61 8.74975 27.49 8.61975 27.35C8.47975 27.2 8.37974 27.08 8.26974 26.96C8.03974 26.66 7.84975 26.36 7.67975 26.01C7.65975 25.98 7.64977 25.94 7.63977 25.9C7.57977 25.76 7.52975 25.62 7.48975 25.47C7.42975 25.26 7.38974 25.12 7.35974 24.97C7.28974 24.62 7.25977 24.31 7.25977 24.01V10.51C7.25977 8.60001 8.59977 7.26001 10.5098 7.26001H13.5098C15.4198 7.26001 16.7598 8.60001 16.7598 10.51V24C16.7598 25.24 16.2798 26.42 15.4098 27.31C15.2498 27.47 15.1297 27.58 15.0197 27.67C14.6997 27.95 14.2898 28.2 13.8498 28.38C13.7498 28.42 13.6298 28.47 13.4998 28.52C13.0098 28.67 12.4998 28.75 11.9998 28.75ZM10.7397 27C10.8397 27.04 10.9398 27.07 11.0398 27.1C11.1498 27.13 11.2598 27.16 11.3698 27.19C11.9198 27.29 12.5098 27.26 12.9798 27.1C13.0498 27.07 13.1497 27.04 13.2397 27C13.5597 26.87 13.8197 26.71 14.0497 26.52C14.1497 26.44 14.2198 26.37 14.2898 26.31C14.9198 25.66 15.2498 24.86 15.2498 24.01V10.51C15.2498 9.43001 14.5798 8.76001 13.4998 8.76001H10.4998C9.41976 8.76001 8.74976 9.43001 8.74976 10.51V24C8.74976 24.21 8.76976 24.43 8.81976 24.66C8.83976 24.75 8.86975 24.86 8.89975 24.98C8.93975 25.09 8.96977 25.18 9.00977 25.28C9.02977 25.31 9.03974 25.34 9.04974 25.36C9.05974 25.38 9.06974 25.41 9.07974 25.43C9.19974 25.65 9.31977 25.84 9.44977 26.01C9.51977 26.09 9.60977 26.19 9.69977 26.29C9.80977 26.41 9.89976 26.48 9.99976 26.56C10.0098 26.57 10.0298 26.58 10.0398 26.59C10.1998 26.71 10.3798 26.82 10.5898 26.93C10.6098 26.94 10.6297 26.94 10.6497 26.95C10.6697 26.96 10.6997 26.98 10.7397 27Z" fill="#1A2630"/>
<path d="M25.5 28.75H12C11.59 28.75 11.25 28.41 11.25 28C11.25 27.59 11.59 27.25 12 27.25C12.35 27.25 12.69 27.2 12.98 27.1C13.05 27.07 13.15 27.04 13.24 27C13.56 26.87 13.82 26.71 14.05 26.52C14.15 26.44 14.22 26.37 14.29 26.31L21.13 19.48C21.27 19.34 21.46 19.26 21.66 19.26H25.5C27.41 19.26 28.75 20.6 28.75 22.51V25.51C28.75 27.41 27.41 28.75 25.5 28.75ZM15.46 27.25H25.5C26.58 27.25 27.25 26.58 27.25 25.5V22.5C27.25 21.42 26.58 20.75 25.5 20.75H21.97L15.46 27.25Z" fill="#1A2630"/>
<path d="M10.8102 28.57C10.7402 28.57 10.6702 28.56 10.6002 28.54C9.86021 28.32 9.18022 27.91 8.64022 27.36C8.10022 26.83 7.6902 26.15 7.4702 25.41C7.3502 25.01 7.5702 24.6 7.9702 24.48C8.3702 24.36 8.78021 24.58 8.91021 24.97C9.23021 25.99 10.0302 26.79 11.0502 27.11C11.4402 27.23 11.6602 27.65 11.5402 28.05C11.4302 28.36 11.1302 28.57 10.8102 28.57Z" fill="#1A2630"/>
<path d="M14.86 27.54C14.67 27.54 14.48 27.47 14.33 27.32C14.04 27.03 14.03 26.56 14.32 26.26C14.92 25.65 15.25 24.84 15.25 23.99V14.33C15.25 14.13 15.33 13.94 15.47 13.8L18.18 11.09C19.49 9.77998 21.47 9.77998 22.78 11.09L24.9 13.21C26.25 14.56 26.25 16.46 24.9 17.81L15.39 27.31C15.24 27.47 15.05 27.54 14.86 27.54ZM16.75 14.65V23.84L23.84 16.76C24.6 16 24.6 15.05 23.84 14.28L21.72 12.16C20.97 11.41 19.99 11.41 19.24 12.16L16.75 14.65Z" fill="#1A2630"/>
<path d="M12 25.75C11.04 25.75 10.25 24.96 10.25 24C10.25 23.04 11.04 22.25 12 22.25C12.96 22.25 13.75 23.04 13.75 24C13.75 24.96 12.96 25.75 12 25.75ZM12 23.75C11.86 23.75 11.75 23.86 11.75 24C11.75 24.28 12.25 24.28 12.25 24C12.25 23.86 12.14 23.75 12 23.75Z" fill="#1A2630"/>
<path d="M54.16 24H51.32V10.66H57.56C60.46 10.66 62.04 12.62 62.04 14.96C62.04 17.28 60.44 19.26 57.56 19.26H54.16V24ZM57.18 16.76C58.3 16.76 59.14 16.06 59.14 14.96C59.14 13.84 58.3 13.16 57.18 13.16H54.16V16.76H57.18ZM66.2805 24H63.7405V14.34H66.2805V15.66C66.9605 14.8 68.1605 14.1 69.3605 14.1V16.58C69.1805 16.54 68.9405 16.52 68.6605 16.52C67.8205 16.52 66.7005 17 66.2805 17.62V24ZM72.2075 13.3C71.3875 13.3 70.6875 12.62 70.6875 11.78C70.6875 10.94 71.3875 10.28 72.2075 10.28C73.0475 10.28 73.7275 10.94 73.7275 11.78C73.7275 12.62 73.0475 13.3 72.2075 13.3ZM73.4875 24H70.9475V14.34H73.4875V24ZM85.0661 24H82.5261V18.16C82.5261 16.82 81.8261 16.36 80.7461 16.36C79.7461 16.36 78.9661 16.92 78.5461 17.5V24H76.0061V14.34H78.5461V15.6C79.1661 14.86 80.3461 14.1 81.9261 14.1C84.0461 14.1 85.0661 15.3 85.0661 17.18V24ZM90.8281 24.24C89.0481 24.24 88.0881 23.32 88.0881 21.6V16.56H86.4881V14.34H88.0881V11.7H90.6481V14.34H92.6081V16.56H90.6481V20.92C90.6481 21.52 90.9681 21.98 91.5281 21.98C91.9081 21.98 92.2681 21.84 92.4081 21.7L92.9481 23.62C92.5681 23.96 91.8881 24.24 90.8281 24.24ZM104.783 24H99.5231V10.66H104.783C108.963 10.66 111.863 13.32 111.863 17.34C111.863 21.36 108.963 24 104.783 24ZM104.783 21.5C107.423 21.5 108.963 19.6 108.963 17.34C108.963 14.98 107.523 13.16 104.783 13.16H102.363V21.5H104.783ZM118.359 24.24C115.419 24.24 113.199 22.26 113.199 19.16C113.199 16.36 115.259 14.1 118.199 14.1C121.079 14.1 123.039 16.26 123.039 19.42V19.98H115.859C116.019 21.2 116.999 22.22 118.639 22.22C119.459 22.22 120.599 21.86 121.219 21.26L122.339 22.9C121.379 23.78 119.859 24.24 118.359 24.24ZM120.579 18.26C120.519 17.34 119.879 16.12 118.199 16.12C116.619 16.12 115.939 17.3 115.819 18.26H120.579ZM128.353 24.24C126.673 24.24 125.053 23.68 124.033 22.74L125.133 20.96C125.833 21.62 127.273 22.28 128.473 22.28C129.573 22.28 130.093 21.84 130.093 21.24C130.093 19.64 124.353 20.94 124.353 17.14C124.353 15.52 125.773 14.1 128.313 14.1C129.953 14.1 131.253 14.66 132.213 15.42L131.193 17.16C130.613 16.54 129.513 16.04 128.333 16.04C127.413 16.04 126.813 16.46 126.813 17C126.813 18.44 132.533 17.24 132.533 21.14C132.533 22.9 131.033 24.24 128.353 24.24ZM135.665 13.3C134.845 13.3 134.145 12.62 134.145 11.78C134.145 10.94 134.845 10.28 135.665 10.28C136.505 10.28 137.185 10.94 137.185 11.78C137.185 12.62 136.505 13.3 135.665 13.3ZM136.945 24H134.405V14.34H136.945V24ZM143.423 27.92C141.763 27.92 140.483 27.54 139.263 26.48L140.403 24.64C141.183 25.5 142.203 25.84 143.423 25.84C144.643 25.84 146.083 25.3 146.083 23.4V22.42C145.323 23.38 144.283 23.94 143.103 23.94C140.683 23.94 138.843 22.24 138.843 19.02C138.843 15.86 140.663 14.1 143.103 14.1C144.263 14.1 145.303 14.6 146.083 15.58V14.34H148.643V23.34C148.643 27.02 145.803 27.92 143.423 27.92ZM143.903 21.68C144.743 21.68 145.663 21.2 146.083 20.58V17.46C145.663 16.82 144.743 16.36 143.903 16.36C142.463 16.36 141.463 17.36 141.463 19.02C141.463 20.68 142.463 21.68 143.903 21.68ZM160.222 24H157.682V18.16C157.682 16.82 156.982 16.36 155.902 16.36C154.902 16.36 154.122 16.92 153.702 17.5V24H151.162V14.34H153.702V15.6C154.322 14.86 155.502 14.1 157.082 14.1C159.202 14.1 160.222 15.3 160.222 17.18V24Z" fill="white"/>
<path d="M9.03106 70H7.46306L4.74306 65.76H2.61506V70H1.28706V59.328H5.57506C7.52706 59.328 8.91906 60.576 8.91906 62.544C8.91906 64.464 7.60706 65.52 6.15106 65.648L9.03106 70ZM5.41506 64.592C6.67906 64.592 7.54306 63.744 7.54306 62.544C7.54306 61.344 6.67906 60.512 5.41506 60.512H2.61506V64.592H5.41506ZM13.9771 70.192C11.6891 70.192 10.0411 68.544 10.0411 66.128C10.0411 63.888 11.6411 62.08 13.8491 62.08C16.1851 62.08 17.5611 63.904 17.5611 66.224V66.528H11.3051C11.4011 67.984 12.4251 69.2 14.0891 69.2C14.9691 69.2 15.8651 68.848 16.4731 68.224L17.0491 69.008C16.2811 69.776 15.2411 70.192 13.9771 70.192ZM16.3771 65.648C16.3611 64.496 15.5931 63.072 13.8331 63.072C12.1851 63.072 11.3691 64.464 11.3051 65.648H16.3771ZM22.7367 69.12C23.6967 69.12 24.6407 68.544 25.0407 67.872V64.384C24.6407 63.712 23.6967 63.152 22.7367 63.152C21.1847 63.152 20.2727 64.416 20.2727 66.128C20.2727 67.84 21.1847 69.12 22.7367 69.12ZM22.4487 70.192C20.4167 70.192 19.0087 68.624 19.0087 66.128C19.0087 63.616 20.4167 62.08 22.4487 62.08C23.5367 62.08 24.4967 62.64 25.0407 63.424V62.272H26.2407V72.944H25.0407V68.832C24.4167 69.696 23.4887 70.192 22.4487 70.192ZM35.0769 70H33.8769V68.912C33.2849 69.584 32.2769 70.192 31.1249 70.192C29.5089 70.192 28.6609 69.408 28.6609 67.728V62.272H29.8609V67.36C29.8609 68.72 30.5489 69.12 31.5889 69.12C32.5329 69.12 33.4289 68.576 33.8769 67.952V62.272H35.0769V70ZM40.9614 70.192C38.6734 70.192 37.0254 68.544 37.0254 66.128C37.0254 63.888 38.6254 62.08 40.8334 62.08C43.1694 62.08 44.5454 63.904 44.5454 66.224V66.528H38.2894C38.3854 67.984 39.4094 69.2 41.0734 69.2C41.9534 69.2 42.8494 68.848 43.4574 68.224L44.0334 69.008C43.2654 69.776 42.2254 70.192 40.9614 70.192ZM43.3614 65.648C43.3454 64.496 42.5774 63.072 40.8174 63.072C39.1694 63.072 38.3534 64.464 38.2894 65.648H43.3614ZM48.9371 70.192C47.6731 70.192 46.6011 69.808 45.8171 68.976L46.4411 68.112C46.9531 68.704 47.9291 69.216 48.9851 69.216C50.1691 69.216 50.8091 68.656 50.8091 67.888C50.8091 66.016 46.0251 67.168 46.0251 64.304C46.0251 63.104 47.0651 62.08 48.9051 62.08C50.2171 62.08 51.1451 62.576 51.7691 63.2L51.2091 64.032C50.7451 63.472 49.8971 63.056 48.9051 63.056C47.8491 63.056 47.1931 63.584 47.1931 64.272C47.1931 65.968 51.9771 64.848 51.9771 67.856C51.9771 69.152 50.9371 70.192 48.9371 70.192ZM55.8786 70.192C54.7426 70.192 54.1666 69.536 54.1666 68.384V63.328H52.8866V62.272H54.1666V60.16H55.3666V62.272H56.9346V63.328H55.3666V68.128C55.3666 68.704 55.6226 69.12 56.1506 69.12C56.4866 69.12 56.8066 68.976 56.9666 68.8L57.3186 69.696C57.0146 69.984 56.5826 70.192 55.8786 70.192ZM68.7867 70H67.5867V69.12C66.9467 69.824 66.0667 70.192 65.0267 70.192C63.7147 70.192 62.3227 69.312 62.3227 67.632C62.3227 65.904 63.7147 65.088 65.0267 65.088C66.0827 65.088 66.9627 65.424 67.5867 66.144V64.752C67.5867 63.712 66.7547 63.12 65.6347 63.12C64.7067 63.12 63.9547 63.456 63.2667 64.192L62.7067 63.36C63.5387 62.496 64.5307 62.08 65.7947 62.08C67.4267 62.08 68.7867 62.816 68.7867 64.688V70ZM65.4587 69.328C66.3067 69.328 67.1227 69.008 67.5867 68.368V66.912C67.1227 66.272 66.3067 65.952 65.4587 65.952C64.3387 65.952 63.5547 66.656 63.5547 67.648C63.5547 68.624 64.3387 69.328 65.4587 69.328ZM78.5492 69.12C79.5092 69.12 80.4532 68.544 80.8532 67.872V64.384C80.4532 63.712 79.5092 63.152 78.5492 63.152C76.9972 63.152 76.0852 64.416 76.0852 66.128C76.0852 67.84 76.9972 69.12 78.5492 69.12ZM78.2612 70.192C76.2292 70.192 74.8212 68.624 74.8212 66.128C74.8212 63.616 76.2292 62.08 78.2612 62.08C79.3492 62.08 80.3092 62.64 80.8532 63.424V62.272H82.0532V72.944H80.8532V68.832C80.2292 69.696 79.3012 70.192 78.2612 70.192ZM90.8894 70H89.6894V68.912C89.0974 69.584 88.0894 70.192 86.9374 70.192C85.3214 70.192 84.4734 69.408 84.4734 67.728V62.272H85.6734V67.36C85.6734 68.72 86.3614 69.12 87.4014 69.12C88.3454 69.12 89.2414 68.576 89.6894 67.952V62.272H90.8894V70ZM96.6619 70.192C94.3099 70.192 92.8379 68.368 92.8379 66.128C92.8379 63.888 94.3099 62.08 96.6619 62.08C99.0139 62.08 100.486 63.888 100.486 66.128C100.486 68.368 99.0139 70.192 96.6619 70.192ZM96.6619 69.12C98.3099 69.12 99.2219 67.712 99.2219 66.128C99.2219 64.56 98.3099 63.152 96.6619 63.152C95.0139 63.152 94.0859 64.56 94.0859 66.128C94.0859 67.712 95.0139 69.12 96.6619 69.12ZM104.394 70.192C103.258 70.192 102.682 69.536 102.682 68.384V63.328H101.402V62.272H102.682V60.16H103.882V62.272H105.45V63.328H103.882V68.128C103.882 68.704 104.138 69.12 104.666 69.12C105.002 69.12 105.322 68.976 105.482 68.8L105.834 69.696C105.53 69.984 105.098 70.192 104.394 70.192ZM110.633 70.192C108.345 70.192 106.697 68.544 106.697 66.128C106.697 63.888 108.297 62.08 110.505 62.08C112.841 62.08 114.217 63.904 114.217 66.224V66.528H107.961C108.057 67.984 109.081 69.2 110.745 69.2C111.625 69.2 112.521 68.848 113.129 68.224L113.705 69.008C112.937 69.776 111.897 70.192 110.633 70.192ZM113.033 65.648C113.017 64.496 112.249 63.072 110.489 63.072C108.841 63.072 108.025 64.464 107.961 65.648H113.033Z" fill="white"/>
<g clip-path="url(#clip0_1_1803)">
<path d="M137.025 71.6833C136.867 71.6833 136.709 71.625 136.584 71.5C136.342 71.2583 136.342 70.8583 136.584 70.6166L141.2 66L136.584 61.3833C136.342 61.1416 136.342 60.7416 136.584 60.5C136.825 60.2583 137.225 60.2583 137.467 60.5L142.525 65.5583C142.767 65.8 142.767 66.2 142.525 66.4416L137.467 71.5C137.342 71.625 137.184 71.6833 137.025 71.6833Z" fill="white"/>
<path d="M141.942 66.625H127.917C127.575 66.625 127.292 66.3417 127.292 66C127.292 65.6583 127.575 65.375 127.917 65.375H141.942C142.284 65.375 142.567 65.6583 142.567 66C142.567 66.3417 142.284 66.625 141.942 66.625Z" fill="white"/>
</g>
<defs>
<clipPath id="clip0_1_1803">
<rect width="20" height="20" fill="white" transform="translate(125 56)"/>
</clipPath>
</defs>
</svg>
