<svg width="210" height="36" viewBox="0 0 210 36" fill="none" xmlns="http://www.w3.org/2000/svg">
<rect width="36" height="36" rx="4" fill="#E9F4FF"/>
<path d="M18 27.25H13C9.35 27.25 7.25 25.15 7.25 21.5V14.5C7.25 10.85 9.35 8.75 13 8.75H23C26.65 8.75 28.75 10.85 28.75 14.5V17.5C28.75 17.91 28.41 18.25 28 18.25C27.59 18.25 27.25 17.91 27.25 17.5V14.5C27.25 11.64 25.86 10.25 23 10.25H13C10.14 10.25 8.75 11.64 8.75 14.5V21.5C8.75 24.36 10.14 25.75 13 25.75H18C18.41 25.75 18.75 26.09 18.75 26.5C18.75 26.91 18.41 27.25 18 27.25Z" fill="#1A2630"/>
<path d="M17.9998 18.87C17.1598 18.87 16.3098 18.61 15.6598 18.08L12.5298 15.58C12.2098 15.32 12.1498 14.85 12.4098 14.53C12.6698 14.21 13.1398 14.16 13.4598 14.41L16.5898 16.91C17.3498 17.52 18.6398 17.52 19.3998 16.91L22.5298 14.41C22.8498 14.15 23.3198 14.2 23.5798 14.53C23.8398 14.85 23.7898 15.33 23.4598 15.58L20.3298 18.08C19.6898 18.61 18.8398 18.87 17.9998 18.87Z" fill="#1A2630"/>
<path d="M21.8201 27.78C21.4401 27.78 21.0801 27.64 20.8201 27.38C20.5101 27.07 20.3701 26.62 20.4401 26.15L20.6301 24.8C20.6801 24.45 20.8901 24.03 21.1401 23.78L24.68 20.24C25.16 19.76 25.6301 19.51 26.1401 19.46C26.7601 19.4 27.38 19.66 27.96 20.24C28.54 20.82 28.8 21.43 28.74 22.06C28.69 22.56 28.43 23.04 27.96 23.52L24.4201 27.06C24.1701 27.31 23.75 27.52 23.4 27.57L22.05 27.76C21.97 27.77 21.9001 27.78 21.8201 27.78ZM26.31 20.95C26.3 20.95 26.29 20.95 26.28 20.95C26.14 20.96 25.95 21.09 25.74 21.3L22.2001 24.84C22.1701 24.87 22.12 24.97 22.12 25.01L21.9401 26.26L23.1901 26.08C23.2301 26.07 23.33 26.02 23.36 25.99L26.9 22.45C27.11 22.23 27.24 22.05 27.2501 21.91C27.2701 21.71 27.07 21.47 26.9 21.3C26.74 21.14 26.51 20.95 26.31 20.95Z" fill="#1A2630"/>
<path d="M26.9201 24.2499C26.8501 24.2499 26.7801 24.2399 26.7201 24.2199C25.4001 23.8499 24.3501 22.7999 23.9801 21.4799C23.8701 21.0799 24.1001 20.6699 24.5001 20.5499C24.9001 20.4399 25.3101 20.6699 25.4201 21.0699C25.6501 21.8899 26.3001 22.5399 27.1201 22.7699C27.5201 22.8799 27.7501 23.2999 27.6401 23.6999C27.5501 24.0299 27.2501 24.2499 26.9201 24.2499Z" fill="#1A2630"/>
<path d="M60.76 24H51.32V10.66H60.76V13.16H54.16V15.98H60.62V18.48H54.16V21.5H60.76V24ZM77.4602 24H74.9002V17.9C74.9002 17 74.5002 16.36 73.4602 16.36C72.5602 16.36 71.8202 16.96 71.4602 17.48V24H68.9002V17.9C68.9002 17 68.5002 16.36 67.4602 16.36C66.5802 16.36 65.8402 16.96 65.4602 17.5V24H62.9202V14.34H65.4602V15.6C65.8602 15.02 67.1402 14.1 68.6202 14.1C70.0402 14.1 70.9402 14.76 71.3002 15.86C71.8602 14.98 73.1402 14.1 74.6202 14.1C76.4002 14.1 77.4602 15.04 77.4602 17.02V24ZM88.2914 24H85.7514V23C85.0914 23.78 83.9514 24.24 82.6914 24.24C81.1514 24.24 79.3314 23.2 79.3314 21.04C79.3314 18.78 81.1514 17.92 82.6914 17.92C83.9714 17.92 85.1114 18.34 85.7514 19.1V17.8C85.7514 16.82 84.9114 16.18 83.6314 16.18C82.5914 16.18 81.6314 16.56 80.8114 17.32L79.8514 15.62C81.0314 14.58 82.5514 14.1 84.0714 14.1C86.2714 14.1 88.2914 14.98 88.2914 17.76V24ZM83.7114 22.52C84.5314 22.52 85.3314 22.24 85.7514 21.68V20.48C85.3314 19.92 84.5314 19.64 83.7114 19.64C82.7114 19.64 81.8914 20.16 81.8914 21.1C81.8914 22 82.7114 22.52 83.7114 22.52ZM92.0708 13.3C91.2508 13.3 90.5508 12.62 90.5508 11.78C90.5508 10.94 91.2508 10.28 92.0708 10.28C92.9108 10.28 93.5908 10.94 93.5908 11.78C93.5908 12.62 92.9108 13.3 92.0708 13.3ZM93.3508 24H90.8108V14.34H93.3508V24ZM98.4094 24H95.8694V10.66H98.4094V24ZM120.565 24H117.705V14.66L113.945 24H112.705L108.945 14.66V24H106.105V10.66H110.085L113.325 18.72L116.565 10.66H120.565V24ZM131.495 24H128.955V23C128.295 23.78 127.155 24.24 125.895 24.24C124.355 24.24 122.535 23.2 122.535 21.04C122.535 18.78 124.355 17.92 125.895 17.92C127.175 17.92 128.315 18.34 128.955 19.1V17.8C128.955 16.82 128.115 16.18 126.835 16.18C125.795 16.18 124.835 16.56 124.015 17.32L123.055 15.62C124.235 14.58 125.755 14.1 127.275 14.1C129.475 14.1 131.495 14.98 131.495 17.76V24ZM126.915 22.52C127.735 22.52 128.535 22.24 128.955 21.68V20.48C128.535 19.92 127.735 19.64 126.915 19.64C125.915 19.64 125.095 20.16 125.095 21.1C125.095 22 125.915 22.52 126.915 22.52ZM136.554 24H134.014V14.34H136.554V15.66C137.234 14.8 138.434 14.1 139.634 14.1V16.58C139.454 16.54 139.214 16.52 138.934 16.52C138.094 16.52 136.974 17 136.554 17.62V24ZM150.661 24H147.481L144.921 20.28L143.761 21.52V24H141.221V10.66H143.761V18.64L147.421 14.34H150.541L146.721 18.72L150.661 24ZM156.347 24.24C153.407 24.24 151.187 22.26 151.187 19.16C151.187 16.36 153.247 14.1 156.187 14.1C159.067 14.1 161.027 16.26 161.027 19.42V19.98H153.847C154.007 21.2 154.987 22.22 156.627 22.22C157.447 22.22 158.587 21.86 159.207 21.26L160.327 22.9C159.367 23.78 157.847 24.24 156.347 24.24ZM158.567 18.26C158.507 17.34 157.867 16.12 156.187 16.12C154.607 16.12 153.927 17.3 153.807 18.26H158.567ZM166.102 24.24C164.322 24.24 163.362 23.32 163.362 21.6V16.56H161.762V14.34H163.362V11.7H165.922V14.34H167.882V16.56H165.922V20.92C165.922 21.52 166.242 21.98 166.802 21.98C167.182 21.98 167.542 21.84 167.682 21.7L168.222 23.62C167.842 23.96 167.162 24.24 166.102 24.24ZM170.879 13.3C170.059 13.3 169.359 12.62 169.359 11.78C169.359 10.94 170.059 10.28 170.879 10.28C171.719 10.28 172.399 10.94 172.399 11.78C172.399 12.62 171.719 13.3 170.879 13.3ZM172.159 24H169.619V14.34H172.159V24ZM183.738 24H181.198V18.16C181.198 16.82 180.498 16.36 179.418 16.36C178.418 16.36 177.638 16.92 177.218 17.5V24H174.678V14.34H177.218V15.6C177.838 14.86 179.018 14.1 180.598 14.1C182.718 14.1 183.738 15.3 183.738 17.18V24ZM190.22 27.92C188.56 27.92 187.28 27.54 186.06 26.48L187.2 24.64C187.98 25.5 189 25.84 190.22 25.84C191.44 25.84 192.88 25.3 192.88 23.4V22.42C192.12 23.38 191.08 23.94 189.9 23.94C187.48 23.94 185.64 22.24 185.64 19.02C185.64 15.86 187.46 14.1 189.9 14.1C191.06 14.1 192.1 14.6 192.88 15.58V14.34H195.44V23.34C195.44 27.02 192.6 27.92 190.22 27.92ZM190.7 21.68C191.54 21.68 192.46 21.2 192.88 20.58V17.46C192.46 16.82 191.54 16.36 190.7 16.36C189.26 16.36 188.26 17.36 188.26 19.02C188.26 20.68 189.26 21.68 190.7 21.68Z" fill="white"/>
</svg>
