<svg width="36" height="36" viewBox="0 0 36 36" fill="none" xmlns="http://www.w3.org/2000/svg">
<rect width="36" height="36" rx="4" fill="#E9F4FF"/>
<path d="M24.47 28.75H20.47C18.05 28.75 16.72 27.42 16.72 25V11C16.72 8.58 18.05 7.25 20.47 7.25H24.47C26.89 7.25 28.22 8.58 28.22 11V25C28.22 27.42 26.88 28.75 24.47 28.75ZM20.47 8.75C18.89 8.75 18.22 9.42 18.22 11V25C18.22 26.58 18.89 27.25 20.47 27.25H24.47C26.05 27.25 26.72 26.58 26.72 25V11C26.72 9.42 26.05 8.75 24.47 8.75H20.47Z" fill="#1A2630"/>
<path d="M22.47 12.75H17.47C17.06 12.75 16.72 12.41 16.72 12C16.72 11.59 17.06 11.25 17.47 11.25H22.47C22.88 11.25 23.22 11.59 23.22 12C23.22 12.41 22.88 12.75 22.47 12.75Z" fill="#1A2630"/>
<path d="M21.47 24.75H17.47C17.06 24.75 16.72 24.41 16.72 24C16.72 23.59 17.06 23.25 17.47 23.25H21.47C21.88 23.25 22.22 23.59 22.22 24C22.22 24.41 21.88 24.75 21.47 24.75Z" fill="#1A2630"/>
<path d="M22.47 20.75C22.46 20.75 22.46 20.75 22.47 20.75L17.46 20.7C17.05 20.7 16.71 20.36 16.72 19.94C16.72 19.53 17.06 19.2 17.47 19.2C17.47 19.2 17.47 19.2 17.48 19.2L22.48 19.25C22.89 19.25 23.23 19.59 23.22 20.01C23.21 20.42 22.88 20.75 22.47 20.75Z" fill="#1A2630"/>
<path d="M20.47 16.75H17.47C17.06 16.75 16.72 16.41 16.72 16C16.72 15.59 17.06 15.25 17.47 15.25H20.47C20.88 15.25 21.22 15.59 21.22 16C21.22 16.41 20.88 16.75 20.47 16.75Z" fill="#1A2630"/>
<path d="M11.49 28.72C10.58 28.72 9.72 28.16 9.13 27.18L8.31 25.82C8.01 25.32 7.78 24.5 7.78 23.92V10.95C7.78 8.91 9.44 7.25 11.48 7.25C13.52 7.25 15.18 8.91 15.18 10.95V23.91C15.18 24.49 14.95 25.31 14.65 25.81L13.83 27.17C13.26 28.16 12.4 28.72 11.49 28.72ZM11.49 8.75C10.28 8.75 9.29 9.74 9.29 10.95V23.91C9.29 24.22 9.44 24.77 9.6 25.04L10.42 26.4C10.73 26.92 11.12 27.21 11.49 27.21C11.86 27.21 12.25 26.91 12.56 26.4L13.38 25.04C13.54 24.77 13.69 24.22 13.69 23.91V10.95C13.69 9.74 12.7 8.75 11.49 8.75Z" fill="#1A2630"/>
<path d="M14.44 13.75H8.53C8.12 13.75 7.78 13.41 7.78 13C7.78 12.59 8.12 12.25 8.53 12.25H14.44C14.85 12.25 15.19 12.59 15.19 13C15.19 13.41 14.85 13.75 14.44 13.75Z" fill="#1A2630"/>
</svg>
