<svg width="36" height="36" viewBox="0 0 36 36" fill="none" xmlns="http://www.w3.org/2000/svg">
<rect width="36" height="36" rx="4" fill="#E9F4FF"/>
<path d="M21 28.75H15C9.57 28.75 7.25 26.43 7.25 21V15C7.25 9.57 9.57 7.25 15 7.25H20C20.41 7.25 20.75 7.59 20.75 8C20.75 8.41 20.41 8.75 20 8.75H15C10.39 8.75 8.75 10.39 8.75 15V21C8.75 25.61 10.39 27.25 15 27.25H21C25.61 27.25 27.25 25.61 27.25 21V16C27.25 15.59 27.59 15.25 28 15.25C28.41 15.25 28.75 15.59 28.75 16V21C28.75 26.43 26.43 28.75 21 28.75Z" fill="#1A2630"/>
<path d="M28 16.75H24C20.58 16.75 19.25 15.42 19.25 12V7.99999C19.25 7.69999 19.43 7.41999 19.71 7.30999C19.99 7.18999 20.31 7.25999 20.53 7.46999L28.53 15.47C28.74 15.68 28.81 16.01 28.69 16.29C28.57 16.57 28.3 16.75 28 16.75ZM20.75 9.80999V12C20.75 14.58 21.42 15.25 24 15.25H26.19L20.75 9.80999Z" fill="#1A2630"/>
<path d="M19 19.75H13C12.59 19.75 12.25 19.41 12.25 19C12.25 18.59 12.59 18.25 13 18.25H19C19.41 18.25 19.75 18.59 19.75 19C19.75 19.41 19.41 19.75 19 19.75Z" fill="#1A2630"/>
<path d="M17 23.75H13C12.59 23.75 12.25 23.41 12.25 23C12.25 22.59 12.59 22.25 13 22.25H17C17.41 22.25 17.75 22.59 17.75 23C17.75 23.41 17.41 23.75 17 23.75Z" fill="#1A2630"/>
</svg>
