<svg width="210" height="36" viewBox="0 0 210 36" fill="none" xmlns="http://www.w3.org/2000/svg">
<rect width="36" height="36" rx="4" fill="#E9F4FF"/>
<path d="M24.47 28.75H20.47C18.05 28.75 16.72 27.42 16.72 25V11C16.72 8.58 18.05 7.25 20.47 7.25H24.47C26.89 7.25 28.22 8.58 28.22 11V25C28.22 27.42 26.88 28.75 24.47 28.75ZM20.47 8.75C18.89 8.75 18.22 9.42 18.22 11V25C18.22 26.58 18.89 27.25 20.47 27.25H24.47C26.05 27.25 26.72 26.58 26.72 25V11C26.72 9.42 26.05 8.75 24.47 8.75H20.47Z" fill="#1A2630"/>
<path d="M22.47 12.75H17.47C17.06 12.75 16.72 12.41 16.72 12C16.72 11.59 17.06 11.25 17.47 11.25H22.47C22.88 11.25 23.22 11.59 23.22 12C23.22 12.41 22.88 12.75 22.47 12.75Z" fill="#1A2630"/>
<path d="M21.47 24.75H17.47C17.06 24.75 16.72 24.41 16.72 24C16.72 23.59 17.06 23.25 17.47 23.25H21.47C21.88 23.25 22.22 23.59 22.22 24C22.22 24.41 21.88 24.75 21.47 24.75Z" fill="#1A2630"/>
<path d="M22.47 20.75C22.46 20.75 22.46 20.75 22.47 20.75L17.46 20.7C17.05 20.7 16.71 20.36 16.72 19.94C16.72 19.53 17.06 19.2 17.47 19.2C17.47 19.2 17.47 19.2 17.48 19.2L22.48 19.25C22.89 19.25 23.23 19.59 23.22 20.01C23.21 20.42 22.88 20.75 22.47 20.75Z" fill="#1A2630"/>
<path d="M20.47 16.75H17.47C17.06 16.75 16.72 16.41 16.72 16C16.72 15.59 17.06 15.25 17.47 15.25H20.47C20.88 15.25 21.22 15.59 21.22 16C21.22 16.41 20.88 16.75 20.47 16.75Z" fill="#1A2630"/>
<path d="M11.49 28.72C10.58 28.72 9.72 28.16 9.13 27.18L8.31 25.82C8.01 25.32 7.78 24.5 7.78 23.92V10.95C7.78 8.91 9.44 7.25 11.48 7.25C13.52 7.25 15.18 8.91 15.18 10.95V23.91C15.18 24.49 14.95 25.31 14.65 25.81L13.83 27.17C13.26 28.16 12.4 28.72 11.49 28.72ZM11.49 8.75C10.28 8.75 9.29 9.74 9.29 10.95V23.91C9.29 24.22 9.44 24.77 9.6 25.04L10.42 26.4C10.73 26.92 11.12 27.21 11.49 27.21C11.86 27.21 12.25 26.91 12.56 26.4L13.38 25.04C13.54 24.77 13.69 24.22 13.69 23.91V10.95C13.69 9.74 12.7 8.75 11.49 8.75Z" fill="#1A2630"/>
<path d="M14.44 13.75H8.53C8.12 13.75 7.78 13.41 7.78 13C7.78 12.59 8.12 12.25 8.53 12.25H14.44C14.85 12.25 15.19 12.59 15.19 13C15.19 13.41 14.85 13.75 14.44 13.75Z" fill="#1A2630"/>
<path d="M57.34 24.24C53.28 24.24 51.32 21.96 51.32 18.68V10.66H54.2V18.58C54.2 20.44 55.28 21.72 57.34 21.72C59.4 21.72 60.46 20.44 60.46 18.58V10.66H63.36V18.66C63.36 21.98 61.4 24.24 57.34 24.24ZM67.188 13.3C66.368 13.3 65.668 12.62 65.668 11.78C65.668 10.94 66.368 10.28 67.188 10.28C68.028 10.28 68.708 10.94 68.708 11.78C68.708 12.62 68.028 13.3 67.188 13.3ZM68.468 24H65.928V14.34H68.468V24ZM71.5666 24.4H69.7266L74.4666 10.26H76.3066L71.5666 24.4ZM83.6486 24.24C79.5886 24.24 77.6286 21.96 77.6286 18.68V10.66H80.5086V18.58C80.5086 20.44 81.5886 21.72 83.6486 21.72C85.7086 21.72 86.7686 20.44 86.7686 18.58V10.66H89.6686V18.66C89.6686 21.98 87.7086 24.24 83.6486 24.24ZM101.057 24H98.2166L96.0166 20.74L93.7966 24H90.9766L94.3966 19.04L91.1766 14.34H94.0166L96.0166 17.32L97.9966 14.34H100.837L97.5966 19.04L101.057 24ZM112.752 24H107.492V10.66H112.752C116.932 10.66 119.832 13.32 119.832 17.34C119.832 21.36 116.932 24 112.752 24ZM112.752 21.5C115.392 21.5 116.932 19.6 116.932 17.34C116.932 14.98 115.492 13.16 112.752 13.16H110.332V21.5H112.752ZM126.327 24.24C123.387 24.24 121.167 22.26 121.167 19.16C121.167 16.36 123.227 14.1 126.167 14.1C129.047 14.1 131.007 16.26 131.007 19.42V19.98H123.827C123.987 21.2 124.967 22.22 126.607 22.22C127.427 22.22 128.567 21.86 129.187 21.26L130.307 22.9C129.347 23.78 127.827 24.24 126.327 24.24ZM128.547 18.26C128.487 17.34 127.847 16.12 126.167 16.12C124.587 16.12 123.907 17.3 123.787 18.26H128.547ZM136.322 24.24C134.642 24.24 133.022 23.68 132.002 22.74L133.102 20.96C133.802 21.62 135.242 22.28 136.442 22.28C137.542 22.28 138.062 21.84 138.062 21.24C138.062 19.64 132.322 20.94 132.322 17.14C132.322 15.52 133.742 14.1 136.282 14.1C137.922 14.1 139.222 14.66 140.182 15.42L139.162 17.16C138.582 16.54 137.482 16.04 136.302 16.04C135.382 16.04 134.782 16.46 134.782 17C134.782 18.44 140.502 17.24 140.502 21.14C140.502 22.9 139.002 24.24 136.322 24.24ZM143.633 13.3C142.813 13.3 142.113 12.62 142.113 11.78C142.113 10.94 142.813 10.28 143.633 10.28C144.473 10.28 145.153 10.94 145.153 11.78C145.153 12.62 144.473 13.3 143.633 13.3ZM144.913 24H142.373V14.34H144.913V24ZM151.392 27.92C149.732 27.92 148.452 27.54 147.232 26.48L148.372 24.64C149.152 25.5 150.172 25.84 151.392 25.84C152.612 25.84 154.052 25.3 154.052 23.4V22.42C153.292 23.38 152.252 23.94 151.072 23.94C148.652 23.94 146.812 22.24 146.812 19.02C146.812 15.86 148.632 14.1 151.072 14.1C152.232 14.1 153.272 14.6 154.052 15.58V14.34H156.612V23.34C156.612 27.02 153.772 27.92 151.392 27.92ZM151.872 21.68C152.712 21.68 153.632 21.2 154.052 20.58V17.46C153.632 16.82 152.712 16.36 151.872 16.36C150.432 16.36 149.432 17.36 149.432 19.02C149.432 20.68 150.432 21.68 151.872 21.68ZM168.191 24H165.651V18.16C165.651 16.82 164.951 16.36 163.871 16.36C162.871 16.36 162.091 16.92 161.671 17.5V24H159.131V14.34H161.671V15.6C162.291 14.86 163.471 14.1 165.051 14.1C167.171 14.1 168.191 15.3 168.191 17.18V24Z" fill="white"/>
</svg>
