<svg width="210" height="36" viewBox="0 0 210 36" fill="none" xmlns="http://www.w3.org/2000/svg">
<rect width="36" height="36" rx="4" fill="#E9F4FF"/>
<path d="M20.6699 27.65H10.2199C9.11992 27.65 8.14994 27.08 7.61994 26.12C7.08994 25.16 7.11996 24.03 7.69996 23.1L10.4699 18.67C10.6899 18.32 10.6899 17.67 10.4699 17.33L7.69996 12.9C7.11996 11.97 7.08994 10.84 7.61994 9.87998C8.14994 8.91998 9.12992 8.34998 10.2199 8.34998H21.6599C22.5999 8.34998 23.6899 8.94998 24.1799 9.74998L28.3599 16.43C28.9199 17.33 28.8699 18.71 28.2299 19.56L23.0499 26.46C22.5399 27.14 21.5199 27.65 20.6699 27.65ZM10.2199 9.84998C9.67992 9.84998 9.18994 10.13 8.92994 10.61C8.66994 11.09 8.67992 11.65 8.96992 12.11L11.7399 16.54C12.2599 17.38 12.2599 18.64 11.7399 19.48L8.96992 23.91C8.67992 24.37 8.66994 24.93 8.92994 25.41C9.18994 25.89 9.67992 26.17 10.2199 26.17H20.6699C21.0499 26.17 21.6199 25.88 21.8499 25.58L27.03 18.68C27.3 18.32 27.33 17.63 27.09 17.25L22.9099 10.57C22.6899 10.21 22.0799 9.87998 21.6599 9.87998H10.2199V9.84998Z" fill="#1A2630"/>
<path d="M65.78 24H62.92V14.66L59.16 24H57.92L54.16 14.66V24H51.32V10.66H55.3L58.54 18.72L61.78 10.66H65.78V24ZM72.8494 24.24C69.6694 24.24 67.7494 21.92 67.7494 19.16C67.7494 16.42 69.6694 14.1 72.8494 14.1C76.0494 14.1 77.9694 16.42 77.9694 19.16C77.9694 21.92 76.0494 24.24 72.8494 24.24ZM72.8494 21.98C74.4294 21.98 75.3294 20.68 75.3294 19.16C75.3294 17.66 74.4294 16.36 72.8494 16.36C71.2694 16.36 70.3894 17.66 70.3894 19.16C70.3894 20.68 71.2694 21.98 72.8494 21.98ZM83.0938 24.24C81.3138 24.24 80.3538 23.32 80.3538 21.6V16.56H78.7538V14.34H80.3538V11.7H82.9138V14.34H84.8738V16.56H82.9138V20.92C82.9138 21.52 83.2338 21.98 83.7938 21.98C84.1738 21.98 84.5338 21.84 84.6738 21.7L85.2138 23.62C84.8338 23.96 84.1538 24.24 83.0938 24.24ZM87.8716 13.3C87.0516 13.3 86.3516 12.62 86.3516 11.78C86.3516 10.94 87.0516 10.28 87.8716 10.28C88.7116 10.28 89.3916 10.94 89.3916 11.78C89.3916 12.62 88.7116 13.3 87.8716 13.3ZM89.1516 24H86.6116V14.34H89.1516V24ZM96.1502 24.24C92.9702 24.24 91.0502 21.92 91.0502 19.16C91.0502 16.42 92.9702 14.1 96.1502 14.1C99.3502 14.1 101.27 16.42 101.27 19.16C101.27 21.92 99.3502 24.24 96.1502 24.24ZM96.1502 21.98C97.7302 21.98 98.6302 20.68 98.6302 19.16C98.6302 17.66 97.7302 16.36 96.1502 16.36C94.5702 16.36 93.6902 17.66 93.6902 19.16C93.6902 20.68 94.5702 21.98 96.1502 21.98ZM112.215 24H109.675V18.16C109.675 16.82 108.975 16.36 107.895 16.36C106.895 16.36 106.115 16.92 105.695 17.5V24H103.155V14.34H105.695V15.6C106.315 14.86 107.495 14.1 109.075 14.1C111.195 14.1 112.215 15.3 112.215 17.18V24ZM125.174 24H119.914V10.66H125.174C129.354 10.66 132.254 13.32 132.254 17.34C132.254 21.36 129.354 24 125.174 24ZM125.174 21.5C127.814 21.5 129.354 19.6 129.354 17.34C129.354 14.98 127.914 13.16 125.174 13.16H122.754V21.5H125.174ZM138.749 24.24C135.809 24.24 133.589 22.26 133.589 19.16C133.589 16.36 135.649 14.1 138.589 14.1C141.469 14.1 143.429 16.26 143.429 19.42V19.98H136.249C136.409 21.2 137.389 22.22 139.029 22.22C139.849 22.22 140.989 21.86 141.609 21.26L142.729 22.9C141.769 23.78 140.249 24.24 138.749 24.24ZM140.969 18.26C140.909 17.34 140.269 16.12 138.589 16.12C137.009 16.12 136.329 17.3 136.209 18.26H140.969ZM148.744 24.24C147.064 24.24 145.444 23.68 144.424 22.74L145.524 20.96C146.224 21.62 147.664 22.28 148.864 22.28C149.964 22.28 150.484 21.84 150.484 21.24C150.484 19.64 144.744 20.94 144.744 17.14C144.744 15.52 146.164 14.1 148.704 14.1C150.344 14.1 151.644 14.66 152.604 15.42L151.584 17.16C151.004 16.54 149.904 16.04 148.724 16.04C147.804 16.04 147.204 16.46 147.204 17C147.204 18.44 152.924 17.24 152.924 21.14C152.924 22.9 151.424 24.24 148.744 24.24ZM156.055 13.3C155.235 13.3 154.535 12.62 154.535 11.78C154.535 10.94 155.235 10.28 156.055 10.28C156.895 10.28 157.575 10.94 157.575 11.78C157.575 12.62 156.895 13.3 156.055 13.3ZM157.335 24H154.795V14.34H157.335V24ZM163.814 27.92C162.154 27.92 160.874 27.54 159.654 26.48L160.794 24.64C161.574 25.5 162.594 25.84 163.814 25.84C165.034 25.84 166.474 25.3 166.474 23.4V22.42C165.714 23.38 164.674 23.94 163.494 23.94C161.074 23.94 159.234 22.24 159.234 19.02C159.234 15.86 161.054 14.1 163.494 14.1C164.654 14.1 165.694 14.6 166.474 15.58V14.34H169.034V23.34C169.034 27.02 166.194 27.92 163.814 27.92ZM164.294 21.68C165.134 21.68 166.054 21.2 166.474 20.58V17.46C166.054 16.82 165.134 16.36 164.294 16.36C162.854 16.36 161.854 17.36 161.854 19.02C161.854 20.68 162.854 21.68 164.294 21.68ZM180.613 24H178.073V18.16C178.073 16.82 177.373 16.36 176.293 16.36C175.293 16.36 174.513 16.92 174.093 17.5V24H171.553V14.34H174.093V15.6C174.713 14.86 175.893 14.1 177.473 14.1C179.593 14.1 180.613 15.3 180.613 17.18V24Z" fill="white"/>
</svg>
