<svg width="210" height="78" viewBox="0 0 210 78" fill="none" xmlns="http://www.w3.org/2000/svg">
<rect width="36" height="36" rx="4" fill="#E9F4FF"/>
<path d="M20.6699 27.65H10.2199C9.11992 27.65 8.14994 27.08 7.61994 26.12C7.08994 25.16 7.11996 24.03 7.69996 23.1L10.4699 18.67C10.6899 18.32 10.6899 17.67 10.4699 17.33L7.69996 12.9C7.11996 11.97 7.08994 10.84 7.61994 9.87998C8.14994 8.91998 9.12992 8.34998 10.2199 8.34998H21.6599C22.5999 8.34998 23.6899 8.94998 24.1799 9.74998L28.3599 16.43C28.9199 17.33 28.8699 18.71 28.2299 19.56L23.0499 26.46C22.5399 27.14 21.5199 27.65 20.6699 27.65ZM10.2199 9.84998C9.67992 9.84998 9.18994 10.13 8.92994 10.61C8.66994 11.09 8.67992 11.65 8.96992 12.11L11.7399 16.54C12.2599 17.38 12.2599 18.64 11.7399 19.48L8.96992 23.91C8.67992 24.37 8.66994 24.93 8.92994 25.41C9.18994 25.89 9.67992 26.17 10.2199 26.17H20.6699C21.0499 26.17 21.6199 25.88 21.8499 25.58L27.03 18.68C27.3 18.32 27.33 17.63 27.09 17.25L22.9099 10.57C22.6899 10.21 22.0799 9.87998 21.6599 9.87998H10.2199V9.84998Z" fill="#1A2630"/>
<path d="M65.78 24H62.92V14.66L59.16 24H57.92L54.16 14.66V24H51.32V10.66H55.3L58.54 18.72L61.78 10.66H65.78V24ZM72.8494 24.24C69.6694 24.24 67.7494 21.92 67.7494 19.16C67.7494 16.42 69.6694 14.1 72.8494 14.1C76.0494 14.1 77.9694 16.42 77.9694 19.16C77.9694 21.92 76.0494 24.24 72.8494 24.24ZM72.8494 21.98C74.4294 21.98 75.3294 20.68 75.3294 19.16C75.3294 17.66 74.4294 16.36 72.8494 16.36C71.2694 16.36 70.3894 17.66 70.3894 19.16C70.3894 20.68 71.2694 21.98 72.8494 21.98ZM83.0938 24.24C81.3138 24.24 80.3538 23.32 80.3538 21.6V16.56H78.7538V14.34H80.3538V11.7H82.9138V14.34H84.8738V16.56H82.9138V20.92C82.9138 21.52 83.2338 21.98 83.7938 21.98C84.1738 21.98 84.5338 21.84 84.6738 21.7L85.2138 23.62C84.8338 23.96 84.1538 24.24 83.0938 24.24ZM87.8716 13.3C87.0516 13.3 86.3516 12.62 86.3516 11.78C86.3516 10.94 87.0516 10.28 87.8716 10.28C88.7116 10.28 89.3916 10.94 89.3916 11.78C89.3916 12.62 88.7116 13.3 87.8716 13.3ZM89.1516 24H86.6116V14.34H89.1516V24ZM96.1502 24.24C92.9702 24.24 91.0502 21.92 91.0502 19.16C91.0502 16.42 92.9702 14.1 96.1502 14.1C99.3502 14.1 101.27 16.42 101.27 19.16C101.27 21.92 99.3502 24.24 96.1502 24.24ZM96.1502 21.98C97.7302 21.98 98.6302 20.68 98.6302 19.16C98.6302 17.66 97.7302 16.36 96.1502 16.36C94.5702 16.36 93.6902 17.66 93.6902 19.16C93.6902 20.68 94.5702 21.98 96.1502 21.98ZM112.215 24H109.675V18.16C109.675 16.82 108.975 16.36 107.895 16.36C106.895 16.36 106.115 16.92 105.695 17.5V24H103.155V14.34H105.695V15.6C106.315 14.86 107.495 14.1 109.075 14.1C111.195 14.1 112.215 15.3 112.215 17.18V24ZM125.174 24H119.914V10.66H125.174C129.354 10.66 132.254 13.32 132.254 17.34C132.254 21.36 129.354 24 125.174 24ZM125.174 21.5C127.814 21.5 129.354 19.6 129.354 17.34C129.354 14.98 127.914 13.16 125.174 13.16H122.754V21.5H125.174ZM138.749 24.24C135.809 24.24 133.589 22.26 133.589 19.16C133.589 16.36 135.649 14.1 138.589 14.1C141.469 14.1 143.429 16.26 143.429 19.42V19.98H136.249C136.409 21.2 137.389 22.22 139.029 22.22C139.849 22.22 140.989 21.86 141.609 21.26L142.729 22.9C141.769 23.78 140.249 24.24 138.749 24.24ZM140.969 18.26C140.909 17.34 140.269 16.12 138.589 16.12C137.009 16.12 136.329 17.3 136.209 18.26H140.969ZM148.744 24.24C147.064 24.24 145.444 23.68 144.424 22.74L145.524 20.96C146.224 21.62 147.664 22.28 148.864 22.28C149.964 22.28 150.484 21.84 150.484 21.24C150.484 19.64 144.744 20.94 144.744 17.14C144.744 15.52 146.164 14.1 148.704 14.1C150.344 14.1 151.644 14.66 152.604 15.42L151.584 17.16C151.004 16.54 149.904 16.04 148.724 16.04C147.804 16.04 147.204 16.46 147.204 17C147.204 18.44 152.924 17.24 152.924 21.14C152.924 22.9 151.424 24.24 148.744 24.24ZM156.055 13.3C155.235 13.3 154.535 12.62 154.535 11.78C154.535 10.94 155.235 10.28 156.055 10.28C156.895 10.28 157.575 10.94 157.575 11.78C157.575 12.62 156.895 13.3 156.055 13.3ZM157.335 24H154.795V14.34H157.335V24ZM163.814 27.92C162.154 27.92 160.874 27.54 159.654 26.48L160.794 24.64C161.574 25.5 162.594 25.84 163.814 25.84C165.034 25.84 166.474 25.3 166.474 23.4V22.42C165.714 23.38 164.674 23.94 163.494 23.94C161.074 23.94 159.234 22.24 159.234 19.02C159.234 15.86 161.054 14.1 163.494 14.1C164.654 14.1 165.694 14.6 166.474 15.58V14.34H169.034V23.34C169.034 27.02 166.194 27.92 163.814 27.92ZM164.294 21.68C165.134 21.68 166.054 21.2 166.474 20.58V17.46C166.054 16.82 165.134 16.36 164.294 16.36C162.854 16.36 161.854 17.36 161.854 19.02C161.854 20.68 162.854 21.68 164.294 21.68ZM180.613 24H178.073V18.16C178.073 16.82 177.373 16.36 176.293 16.36C175.293 16.36 174.513 16.92 174.093 17.5V24H171.553V14.34H174.093V15.6C174.713 14.86 175.893 14.1 177.473 14.1C179.593 14.1 180.613 15.3 180.613 17.18V24Z" fill="white"/>
<path d="M9.03106 70H7.46306L4.74306 65.76H2.61506V70H1.28706V59.328H5.57506C7.52706 59.328 8.91906 60.576 8.91906 62.544C8.91906 64.464 7.60706 65.52 6.15106 65.648L9.03106 70ZM5.41506 64.592C6.67906 64.592 7.54306 63.744 7.54306 62.544C7.54306 61.344 6.67906 60.512 5.41506 60.512H2.61506V64.592H5.41506ZM13.9771 70.192C11.6891 70.192 10.0411 68.544 10.0411 66.128C10.0411 63.888 11.6411 62.08 13.8491 62.08C16.1851 62.08 17.5611 63.904 17.5611 66.224V66.528H11.3051C11.4011 67.984 12.4251 69.2 14.0891 69.2C14.9691 69.2 15.8651 68.848 16.4731 68.224L17.0491 69.008C16.2811 69.776 15.2411 70.192 13.9771 70.192ZM16.3771 65.648C16.3611 64.496 15.5931 63.072 13.8331 63.072C12.1851 63.072 11.3691 64.464 11.3051 65.648H16.3771ZM22.7367 69.12C23.6967 69.12 24.6407 68.544 25.0407 67.872V64.384C24.6407 63.712 23.6967 63.152 22.7367 63.152C21.1847 63.152 20.2727 64.416 20.2727 66.128C20.2727 67.84 21.1847 69.12 22.7367 69.12ZM22.4487 70.192C20.4167 70.192 19.0087 68.624 19.0087 66.128C19.0087 63.616 20.4167 62.08 22.4487 62.08C23.5367 62.08 24.4967 62.64 25.0407 63.424V62.272H26.2407V72.944H25.0407V68.832C24.4167 69.696 23.4887 70.192 22.4487 70.192ZM35.0769 70H33.8769V68.912C33.2849 69.584 32.2769 70.192 31.1249 70.192C29.5089 70.192 28.6609 69.408 28.6609 67.728V62.272H29.8609V67.36C29.8609 68.72 30.5489 69.12 31.5889 69.12C32.5329 69.12 33.4289 68.576 33.8769 67.952V62.272H35.0769V70ZM40.9614 70.192C38.6734 70.192 37.0254 68.544 37.0254 66.128C37.0254 63.888 38.6254 62.08 40.8334 62.08C43.1694 62.08 44.5454 63.904 44.5454 66.224V66.528H38.2894C38.3854 67.984 39.4094 69.2 41.0734 69.2C41.9534 69.2 42.8494 68.848 43.4574 68.224L44.0334 69.008C43.2654 69.776 42.2254 70.192 40.9614 70.192ZM43.3614 65.648C43.3454 64.496 42.5774 63.072 40.8174 63.072C39.1694 63.072 38.3534 64.464 38.2894 65.648H43.3614ZM48.9371 70.192C47.6731 70.192 46.6011 69.808 45.8171 68.976L46.4411 68.112C46.9531 68.704 47.9291 69.216 48.9851 69.216C50.1691 69.216 50.8091 68.656 50.8091 67.888C50.8091 66.016 46.0251 67.168 46.0251 64.304C46.0251 63.104 47.0651 62.08 48.9051 62.08C50.2171 62.08 51.1451 62.576 51.7691 63.2L51.2091 64.032C50.7451 63.472 49.8971 63.056 48.9051 63.056C47.8491 63.056 47.1931 63.584 47.1931 64.272C47.1931 65.968 51.9771 64.848 51.9771 67.856C51.9771 69.152 50.9371 70.192 48.9371 70.192ZM55.8786 70.192C54.7426 70.192 54.1666 69.536 54.1666 68.384V63.328H52.8866V62.272H54.1666V60.16H55.3666V62.272H56.9346V63.328H55.3666V68.128C55.3666 68.704 55.6226 69.12 56.1506 69.12C56.4866 69.12 56.8066 68.976 56.9666 68.8L57.3186 69.696C57.0146 69.984 56.5826 70.192 55.8786 70.192ZM68.7867 70H67.5867V69.12C66.9467 69.824 66.0667 70.192 65.0267 70.192C63.7147 70.192 62.3227 69.312 62.3227 67.632C62.3227 65.904 63.7147 65.088 65.0267 65.088C66.0827 65.088 66.9627 65.424 67.5867 66.144V64.752C67.5867 63.712 66.7547 63.12 65.6347 63.12C64.7067 63.12 63.9547 63.456 63.2667 64.192L62.7067 63.36C63.5387 62.496 64.5307 62.08 65.7947 62.08C67.4267 62.08 68.7867 62.816 68.7867 64.688V70ZM65.4587 69.328C66.3067 69.328 67.1227 69.008 67.5867 68.368V66.912C67.1227 66.272 66.3067 65.952 65.4587 65.952C64.3387 65.952 63.5547 66.656 63.5547 67.648C63.5547 68.624 64.3387 69.328 65.4587 69.328ZM78.5492 69.12C79.5092 69.12 80.4532 68.544 80.8532 67.872V64.384C80.4532 63.712 79.5092 63.152 78.5492 63.152C76.9972 63.152 76.0852 64.416 76.0852 66.128C76.0852 67.84 76.9972 69.12 78.5492 69.12ZM78.2612 70.192C76.2292 70.192 74.8212 68.624 74.8212 66.128C74.8212 63.616 76.2292 62.08 78.2612 62.08C79.3492 62.08 80.3092 62.64 80.8532 63.424V62.272H82.0532V72.944H80.8532V68.832C80.2292 69.696 79.3012 70.192 78.2612 70.192ZM90.8894 70H89.6894V68.912C89.0974 69.584 88.0894 70.192 86.9374 70.192C85.3214 70.192 84.4734 69.408 84.4734 67.728V62.272H85.6734V67.36C85.6734 68.72 86.3614 69.12 87.4014 69.12C88.3454 69.12 89.2414 68.576 89.6894 67.952V62.272H90.8894V70ZM96.6619 70.192C94.3099 70.192 92.8379 68.368 92.8379 66.128C92.8379 63.888 94.3099 62.08 96.6619 62.08C99.0139 62.08 100.486 63.888 100.486 66.128C100.486 68.368 99.0139 70.192 96.6619 70.192ZM96.6619 69.12C98.3099 69.12 99.2219 67.712 99.2219 66.128C99.2219 64.56 98.3099 63.152 96.6619 63.152C95.0139 63.152 94.0859 64.56 94.0859 66.128C94.0859 67.712 95.0139 69.12 96.6619 69.12ZM104.394 70.192C103.258 70.192 102.682 69.536 102.682 68.384V63.328H101.402V62.272H102.682V60.16H103.882V62.272H105.45V63.328H103.882V68.128C103.882 68.704 104.138 69.12 104.666 69.12C105.002 69.12 105.322 68.976 105.482 68.8L105.834 69.696C105.53 69.984 105.098 70.192 104.394 70.192ZM110.633 70.192C108.345 70.192 106.697 68.544 106.697 66.128C106.697 63.888 108.297 62.08 110.505 62.08C112.841 62.08 114.217 63.904 114.217 66.224V66.528H107.961C108.057 67.984 109.081 69.2 110.745 69.2C111.625 69.2 112.521 68.848 113.129 68.224L113.705 69.008C112.937 69.776 111.897 70.192 110.633 70.192ZM113.033 65.648C113.017 64.496 112.249 63.072 110.489 63.072C108.841 63.072 108.025 64.464 107.961 65.648H113.033Z" fill="white"/>
<g clip-path="url(#clip0_1_2078)">
<path d="M137.025 71.6833C136.867 71.6833 136.709 71.625 136.584 71.5C136.342 71.2583 136.342 70.8583 136.584 70.6166L141.2 66L136.584 61.3833C136.342 61.1416 136.342 60.7416 136.584 60.5C136.825 60.2583 137.225 60.2583 137.467 60.5L142.525 65.5583C142.767 65.8 142.767 66.2 142.525 66.4416L137.467 71.5C137.342 71.625 137.184 71.6833 137.025 71.6833Z" fill="white"/>
<path d="M141.942 66.625H127.917C127.575 66.625 127.292 66.3417 127.292 66C127.292 65.6583 127.575 65.375 127.917 65.375H141.942C142.284 65.375 142.567 65.6583 142.567 66C142.567 66.3417 142.284 66.625 141.942 66.625Z" fill="white"/>
</g>
<defs>
<clipPath id="clip0_1_2078">
<rect width="20" height="20" fill="white" transform="translate(125 56)"/>
</clipPath>
</defs>
</svg>
