<svg width="210" height="78" viewBox="0 0 210 78" fill="none" xmlns="http://www.w3.org/2000/svg">
<rect width="36" height="36" rx="4" fill="#E9F4FF"/>
<path d="M23.56 23.97H12.44C8.46 23.97 7.25 22.76 7.25 18.78V12.44C7.25 8.46 8.46 7.25 12.44 7.25H23.55C27.53 7.25 28.74 8.46 28.74 12.44V18.77C28.75 22.76 27.54 23.97 23.56 23.97ZM12.44 8.75C9.3 8.75 8.75 9.3 8.75 12.44V18.77C8.75 21.91 9.3 22.46 12.44 22.46H23.55C26.69 22.46 27.24 21.91 27.24 18.77V12.44C27.24 9.3 26.69 8.75 23.55 8.75H12.44Z" fill="#1A2630"/>
<path d="M18 28.75C17.59 28.75 17.25 28.41 17.25 28V23.22C17.25 22.81 17.59 22.47 18 22.47C18.41 22.47 18.75 22.81 18.75 23.22V28C18.75 28.41 18.41 28.75 18 28.75Z" fill="#1A2630"/>
<path d="M28 19.75H8C7.59 19.75 7.25 19.41 7.25 19C7.25 18.59 7.59 18.25 8 18.25H28C28.41 18.25 28.75 18.59 28.75 19C28.75 19.41 28.41 19.75 28 19.75Z" fill="#1A2630"/>
<path d="M22.5 28.75H13.5C13.09 28.75 12.75 28.41 12.75 28C12.75 27.59 13.09 27.25 13.5 27.25H22.5C22.91 27.25 23.25 27.59 23.25 28C23.25 28.41 22.91 28.75 22.5 28.75Z" fill="#1A2630"/>
<path d="M56.58 24H51.32V10.66H56.58C60.76 10.66 63.66 13.32 63.66 17.34C63.66 21.36 60.76 24 56.58 24ZM56.58 21.5C59.22 21.5 60.76 19.6 60.76 17.34C60.76 14.98 59.32 13.16 56.58 13.16H54.16V21.5H56.58ZM66.8755 13.3C66.0555 13.3 65.3555 12.62 65.3555 11.78C65.3555 10.94 66.0555 10.28 66.8755 10.28C67.7155 10.28 68.3955 10.94 68.3955 11.78C68.3955 12.62 67.7155 13.3 66.8755 13.3ZM68.1555 24H65.6155V14.34H68.1555V24ZM74.6341 27.92C72.9741 27.92 71.6941 27.54 70.4741 26.48L71.6141 24.64C72.3941 25.5 73.4141 25.84 74.6341 25.84C75.8541 25.84 77.2941 25.3 77.2941 23.4V22.42C76.5341 23.38 75.4941 23.94 74.3141 23.94C71.8941 23.94 70.0541 22.24 70.0541 19.02C70.0541 15.86 71.8741 14.1 74.3141 14.1C75.4741 14.1 76.5141 14.6 77.2941 15.58V14.34H79.8541V23.34C79.8541 27.02 77.0141 27.92 74.6341 27.92ZM75.1141 21.68C75.9541 21.68 76.8741 21.2 77.2941 20.58V17.46C76.8741 16.82 75.9541 16.36 75.1141 16.36C73.6741 16.36 72.6741 17.36 72.6741 19.02C72.6741 20.68 73.6741 21.68 75.1141 21.68ZM83.6333 13.3C82.8133 13.3 82.1133 12.62 82.1133 11.78C82.1133 10.94 82.8133 10.28 83.6333 10.28C84.4733 10.28 85.1533 10.94 85.1533 11.78C85.1533 12.62 84.4733 13.3 83.6333 13.3ZM84.9133 24H82.3733V14.34H84.9133V24ZM90.6719 24.24C88.8919 24.24 87.9319 23.32 87.9319 21.6V16.56H86.3319V14.34H87.9319V11.7H90.4919V14.34H92.4519V16.56H90.4919V20.92C90.4919 21.52 90.8119 21.98 91.3719 21.98C91.7519 21.98 92.1119 21.84 92.2519 21.7L92.7919 23.62C92.4119 23.96 91.7319 24.24 90.6719 24.24ZM102.53 24H99.9897V23C99.3297 23.78 98.1897 24.24 96.9297 24.24C95.3897 24.24 93.5697 23.2 93.5697 21.04C93.5697 18.78 95.3897 17.92 96.9297 17.92C98.2097 17.92 99.3497 18.34 99.9897 19.1V17.8C99.9897 16.82 99.1497 16.18 97.8697 16.18C96.8297 16.18 95.8697 16.56 95.0497 17.32L94.0897 15.62C95.2697 14.58 96.7897 14.1 98.3097 14.1C100.51 14.1 102.53 14.98 102.53 17.76V24ZM97.9497 22.52C98.7697 22.52 99.5697 22.24 99.9897 21.68V20.48C99.5697 19.92 98.7697 19.64 97.9497 19.64C96.9497 19.64 96.1297 20.16 96.1297 21.1C96.1297 22 96.9497 22.52 97.9497 22.52ZM107.589 24H105.049V10.66H107.589V24ZM129.745 24H126.885V14.66L123.125 24H121.885L118.125 14.66V24H115.285V10.66H119.265L122.505 18.72L125.745 10.66H129.745V24ZM140.674 24H138.134V23C137.474 23.78 136.334 24.24 135.074 24.24C133.534 24.24 131.714 23.2 131.714 21.04C131.714 18.78 133.534 17.92 135.074 17.92C136.354 17.92 137.494 18.34 138.134 19.1V17.8C138.134 16.82 137.294 16.18 136.014 16.18C134.974 16.18 134.014 16.56 133.194 17.32L132.234 15.62C133.414 14.58 134.934 14.1 136.454 14.1C138.654 14.1 140.674 14.98 140.674 17.76V24ZM136.094 22.52C136.914 22.52 137.714 22.24 138.134 21.68V20.48C137.714 19.92 136.914 19.64 136.094 19.64C135.094 19.64 134.274 20.16 134.274 21.1C134.274 22 135.094 22.52 136.094 22.52ZM145.734 24H143.194V14.34H145.734V15.66C146.414 14.8 147.614 14.1 148.814 14.1V16.58C148.634 16.54 148.394 16.52 148.114 16.52C147.274 16.52 146.154 17 145.734 17.62V24ZM159.841 24H156.661L154.101 20.28L152.941 21.52V24H150.401V10.66H152.941V18.64L156.601 14.34H159.721L155.901 18.72L159.841 24ZM165.527 24.24C162.587 24.24 160.367 22.26 160.367 19.16C160.367 16.36 162.427 14.1 165.367 14.1C168.247 14.1 170.207 16.26 170.207 19.42V19.98H163.027C163.187 21.2 164.167 22.22 165.807 22.22C166.627 22.22 167.767 21.86 168.387 21.26L169.507 22.9C168.547 23.78 167.027 24.24 165.527 24.24ZM167.747 18.26C167.687 17.34 167.047 16.12 165.367 16.12C163.787 16.12 163.107 17.3 162.987 18.26H167.747ZM175.281 24.24C173.501 24.24 172.541 23.32 172.541 21.6V16.56H170.941V14.34H172.541V11.7H175.101V14.34H177.061V16.56H175.101V20.92C175.101 21.52 175.421 21.98 175.981 21.98C176.361 21.98 176.721 21.84 176.861 21.7L177.401 23.62C177.021 23.96 176.341 24.24 175.281 24.24ZM180.059 13.3C179.239 13.3 178.539 12.62 178.539 11.78C178.539 10.94 179.239 10.28 180.059 10.28C180.899 10.28 181.579 10.94 181.579 11.78C181.579 12.62 180.899 13.3 180.059 13.3ZM181.339 24H178.799V14.34H181.339V24ZM192.918 24H190.378V18.16C190.378 16.82 189.678 16.36 188.598 16.36C187.598 16.36 186.818 16.92 186.398 17.5V24H183.858V14.34H186.398V15.6C187.018 14.86 188.198 14.1 189.778 14.1C191.898 14.1 192.918 15.3 192.918 17.18V24ZM199.4 27.92C197.74 27.92 196.46 27.54 195.24 26.48L196.38 24.64C197.16 25.5 198.18 25.84 199.4 25.84C200.62 25.84 202.06 25.3 202.06 23.4V22.42C201.3 23.38 200.26 23.94 199.08 23.94C196.66 23.94 194.82 22.24 194.82 19.02C194.82 15.86 196.64 14.1 199.08 14.1C200.24 14.1 201.28 14.6 202.06 15.58V14.34H204.62V23.34C204.62 27.02 201.78 27.92 199.4 27.92ZM199.88 21.68C200.72 21.68 201.64 21.2 202.06 20.58V17.46C201.64 16.82 200.72 16.36 199.88 16.36C198.44 16.36 197.44 17.36 197.44 19.02C197.44 20.68 198.44 21.68 199.88 21.68Z" fill="white"/>
<path d="M9.03106 70H7.46306L4.74306 65.76H2.61506V70H1.28706V59.328H5.57506C7.52706 59.328 8.91906 60.576 8.91906 62.544C8.91906 64.464 7.60706 65.52 6.15106 65.648L9.03106 70ZM5.41506 64.592C6.67906 64.592 7.54306 63.744 7.54306 62.544C7.54306 61.344 6.67906 60.512 5.41506 60.512H2.61506V64.592H5.41506ZM13.9771 70.192C11.6891 70.192 10.0411 68.544 10.0411 66.128C10.0411 63.888 11.6411 62.08 13.8491 62.08C16.1851 62.08 17.5611 63.904 17.5611 66.224V66.528H11.3051C11.4011 67.984 12.4251 69.2 14.0891 69.2C14.9691 69.2 15.8651 68.848 16.4731 68.224L17.0491 69.008C16.2811 69.776 15.2411 70.192 13.9771 70.192ZM16.3771 65.648C16.3611 64.496 15.5931 63.072 13.8331 63.072C12.1851 63.072 11.3691 64.464 11.3051 65.648H16.3771ZM22.7367 69.12C23.6967 69.12 24.6407 68.544 25.0407 67.872V64.384C24.6407 63.712 23.6967 63.152 22.7367 63.152C21.1847 63.152 20.2727 64.416 20.2727 66.128C20.2727 67.84 21.1847 69.12 22.7367 69.12ZM22.4487 70.192C20.4167 70.192 19.0087 68.624 19.0087 66.128C19.0087 63.616 20.4167 62.08 22.4487 62.08C23.5367 62.08 24.4967 62.64 25.0407 63.424V62.272H26.2407V72.944H25.0407V68.832C24.4167 69.696 23.4887 70.192 22.4487 70.192ZM35.0769 70H33.8769V68.912C33.2849 69.584 32.2769 70.192 31.1249 70.192C29.5089 70.192 28.6609 69.408 28.6609 67.728V62.272H29.8609V67.36C29.8609 68.72 30.5489 69.12 31.5889 69.12C32.5329 69.12 33.4289 68.576 33.8769 67.952V62.272H35.0769V70ZM40.9614 70.192C38.6734 70.192 37.0254 68.544 37.0254 66.128C37.0254 63.888 38.6254 62.08 40.8334 62.08C43.1694 62.08 44.5454 63.904 44.5454 66.224V66.528H38.2894C38.3854 67.984 39.4094 69.2 41.0734 69.2C41.9534 69.2 42.8494 68.848 43.4574 68.224L44.0334 69.008C43.2654 69.776 42.2254 70.192 40.9614 70.192ZM43.3614 65.648C43.3454 64.496 42.5774 63.072 40.8174 63.072C39.1694 63.072 38.3534 64.464 38.2894 65.648H43.3614ZM48.9371 70.192C47.6731 70.192 46.6011 69.808 45.8171 68.976L46.4411 68.112C46.9531 68.704 47.9291 69.216 48.9851 69.216C50.1691 69.216 50.8091 68.656 50.8091 67.888C50.8091 66.016 46.0251 67.168 46.0251 64.304C46.0251 63.104 47.0651 62.08 48.9051 62.08C50.2171 62.08 51.1451 62.576 51.7691 63.2L51.2091 64.032C50.7451 63.472 49.8971 63.056 48.9051 63.056C47.8491 63.056 47.1931 63.584 47.1931 64.272C47.1931 65.968 51.9771 64.848 51.9771 67.856C51.9771 69.152 50.9371 70.192 48.9371 70.192ZM55.8786 70.192C54.7426 70.192 54.1666 69.536 54.1666 68.384V63.328H52.8866V62.272H54.1666V60.16H55.3666V62.272H56.9346V63.328H55.3666V68.128C55.3666 68.704 55.6226 69.12 56.1506 69.12C56.4866 69.12 56.8066 68.976 56.9666 68.8L57.3186 69.696C57.0146 69.984 56.5826 70.192 55.8786 70.192ZM68.7867 70H67.5867V69.12C66.9467 69.824 66.0667 70.192 65.0267 70.192C63.7147 70.192 62.3227 69.312 62.3227 67.632C62.3227 65.904 63.7147 65.088 65.0267 65.088C66.0827 65.088 66.9627 65.424 67.5867 66.144V64.752C67.5867 63.712 66.7547 63.12 65.6347 63.12C64.7067 63.12 63.9547 63.456 63.2667 64.192L62.7067 63.36C63.5387 62.496 64.5307 62.08 65.7947 62.08C67.4267 62.08 68.7867 62.816 68.7867 64.688V70ZM65.4587 69.328C66.3067 69.328 67.1227 69.008 67.5867 68.368V66.912C67.1227 66.272 66.3067 65.952 65.4587 65.952C64.3387 65.952 63.5547 66.656 63.5547 67.648C63.5547 68.624 64.3387 69.328 65.4587 69.328ZM78.5492 69.12C79.5092 69.12 80.4532 68.544 80.8532 67.872V64.384C80.4532 63.712 79.5092 63.152 78.5492 63.152C76.9972 63.152 76.0852 64.416 76.0852 66.128C76.0852 67.84 76.9972 69.12 78.5492 69.12ZM78.2612 70.192C76.2292 70.192 74.8212 68.624 74.8212 66.128C74.8212 63.616 76.2292 62.08 78.2612 62.08C79.3492 62.08 80.3092 62.64 80.8532 63.424V62.272H82.0532V72.944H80.8532V68.832C80.2292 69.696 79.3012 70.192 78.2612 70.192ZM90.8894 70H89.6894V68.912C89.0974 69.584 88.0894 70.192 86.9374 70.192C85.3214 70.192 84.4734 69.408 84.4734 67.728V62.272H85.6734V67.36C85.6734 68.72 86.3614 69.12 87.4014 69.12C88.3454 69.12 89.2414 68.576 89.6894 67.952V62.272H90.8894V70ZM96.6619 70.192C94.3099 70.192 92.8379 68.368 92.8379 66.128C92.8379 63.888 94.3099 62.08 96.6619 62.08C99.0139 62.08 100.486 63.888 100.486 66.128C100.486 68.368 99.0139 70.192 96.6619 70.192ZM96.6619 69.12C98.3099 69.12 99.2219 67.712 99.2219 66.128C99.2219 64.56 98.3099 63.152 96.6619 63.152C95.0139 63.152 94.0859 64.56 94.0859 66.128C94.0859 67.712 95.0139 69.12 96.6619 69.12ZM104.394 70.192C103.258 70.192 102.682 69.536 102.682 68.384V63.328H101.402V62.272H102.682V60.16H103.882V62.272H105.45V63.328H103.882V68.128C103.882 68.704 104.138 69.12 104.666 69.12C105.002 69.12 105.322 68.976 105.482 68.8L105.834 69.696C105.53 69.984 105.098 70.192 104.394 70.192ZM110.633 70.192C108.345 70.192 106.697 68.544 106.697 66.128C106.697 63.888 108.297 62.08 110.505 62.08C112.841 62.08 114.217 63.904 114.217 66.224V66.528H107.961C108.057 67.984 109.081 69.2 110.745 69.2C111.625 69.2 112.521 68.848 113.129 68.224L113.705 69.008C112.937 69.776 111.897 70.192 110.633 70.192ZM113.033 65.648C113.017 64.496 112.249 63.072 110.489 63.072C108.841 63.072 108.025 64.464 107.961 65.648H113.033Z" fill="white"/>
<g clip-path="url(#clip0_1_1947)">
<path d="M137.025 71.6833C136.867 71.6833 136.709 71.625 136.584 71.5C136.342 71.2583 136.342 70.8583 136.584 70.6166L141.2 66L136.584 61.3833C136.342 61.1416 136.342 60.7416 136.584 60.5C136.825 60.2583 137.225 60.2583 137.467 60.5L142.525 65.5583C142.767 65.8 142.767 66.2 142.525 66.4416L137.467 71.5C137.342 71.625 137.184 71.6833 137.025 71.6833Z" fill="white"/>
<path d="M141.942 66.625H127.917C127.575 66.625 127.292 66.3417 127.292 66C127.292 65.6583 127.575 65.375 127.917 65.375H141.942C142.284 65.375 142.567 65.6583 142.567 66C142.567 66.3417 142.284 66.625 141.942 66.625Z" fill="white"/>
</g>
<defs>
<clipPath id="clip0_1_1947">
<rect width="20" height="20" fill="white" transform="translate(125 56)"/>
</clipPath>
</defs>
</svg>
