<svg width="210" height="36" viewBox="0 0 210 36" fill="none" xmlns="http://www.w3.org/2000/svg">
<rect width="36" height="36" rx="4" fill="#E9F4FF"/>
<path d="M19.2698 29.25H16.7498C16.0498 29.25 15.4198 28.9499 14.9998 28.4399C14.6298 27.9799 14.4898 27.39 14.6198 26.83L15.0298 25.02C15.1098 24.68 15.4098 24.4399 15.7598 24.4399H20.2598C20.6098 24.4399 20.9098 24.68 20.9898 25.02L21.3998 26.83C21.5298 27.43 21.4098 28.01 21.0398 28.47C20.6298 28.96 19.9898 29.25 19.2698 29.25ZM16.3598 25.92L16.0798 27.15C16.0498 27.3 16.1098 27.42 16.1698 27.49C16.2998 27.65 16.5098 27.74 16.7498 27.74H19.2698C19.5298 27.74 19.7498 27.66 19.8698 27.51C19.9498 27.41 19.9698 27.29 19.9398 27.14L19.6598 25.91H16.3598V25.92Z" fill="#1A2630"/>
<path d="M20.26 25.92C20.05 25.92 19.85 25.84 19.7 25.67C19.43 25.36 19.45 24.89 19.76 24.61L21.49 23.0699C22.18 22.4599 22.15 22.31 21.64 21.67L18.59 17.8C18.42 17.59 18.22 17.47 18.01 17.47C17.8 17.47 17.6 17.59 17.43 17.8L14.38 21.67C13.84 22.36 13.85 22.51 14.51 23.05L16.26 24.61C16.57 24.88 16.6 25.36 16.32 25.67C16.04 25.98 15.57 26.01 15.26 25.73L13.53 24.1899C12.27 23.1599 12.16 22.06 13.2 20.74L16.25 16.87C16.7 16.3 17.34 15.97 18.01 15.97C18.68 15.97 19.32 16.3 19.77 16.87L22.82 20.74C23.85 22.04 23.75 23.0799 22.49 24.1899L20.76 25.73C20.61 25.86 20.43 25.92 20.26 25.92Z" fill="#1A2630"/>
<path d="M18.0098 20.4C17.5998 20.4 17.2598 20.06 17.2598 19.65V17.12C17.2598 16.71 17.5998 16.37 18.0098 16.37C18.4198 16.37 18.7598 16.71 18.7598 17.12V19.65C18.7598 20.07 18.4198 20.4 18.0098 20.4Z" fill="#1A2630"/>
<path d="M18.52 11.75H17.52C16.56 11.75 15.77 10.96 15.77 10V9C15.77 8.04 16.56 7.25 17.52 7.25H18.52C19.48 7.25 20.27 8.04 20.27 9V10C20.27 10.96 19.49 11.75 18.52 11.75ZM17.52 8.75C17.38 8.75 17.27 8.86 17.27 9V10C17.27 10.14 17.38 10.25 17.52 10.25H18.52C18.66 10.25 18.77 10.14 18.77 10V9C18.77 8.86 18.66 8.75 18.52 8.75H17.52Z" fill="#1A2630"/>
<path d="M10.27 20.92H9.27002C8.31002 20.92 7.52002 20.13 7.52002 19.17V18.17C7.52002 17.21 8.31002 16.4199 9.27002 16.4199H10.27C11.23 16.4199 12.02 17.21 12.02 18.17V19.17C12.02 20.13 11.23 20.92 10.27 20.92ZM9.27002 17.9199C9.13002 17.9199 9.02002 18.03 9.02002 18.17V19.17C9.02002 19.31 9.13002 19.42 9.27002 19.42H10.27C10.41 19.42 10.52 19.31 10.52 19.17V18.17C10.52 18.03 10.41 17.9199 10.27 17.9199H9.27002Z" fill="#1A2630"/>
<path d="M26.73 20.92H25.73C24.77 20.92 23.98 20.13 23.98 19.17V18.17C23.98 17.21 24.77 16.4199 25.73 16.4199H26.73C27.69 16.4199 28.48 17.21 28.48 18.17V19.17C28.48 20.13 27.7 20.92 26.73 20.92ZM25.73 17.9199C25.59 17.9199 25.48 18.03 25.48 18.17V19.17C25.48 19.31 25.59 19.42 25.73 19.42H26.73C26.87 19.42 26.98 19.31 26.98 19.17V18.17C26.98 18.03 26.87 17.9199 26.73 17.9199H25.73Z" fill="#1A2630"/>
<path d="M9.75 17.9201C9.34 17.9201 9 17.5801 9 17.1701C9 12.9001 12.2 9.31008 16.44 8.81008C16.85 8.77008 17.22 9.06005 17.27 9.47005C17.32 9.88005 17.02 10.2501 16.61 10.3001C13.13 10.7101 10.5 13.6601 10.5 17.1701C10.5 17.5801 10.16 17.9201 9.75 17.9201Z" fill="#1A2630"/>
<path d="M26.25 17.92C25.84 17.92 25.5 17.58 25.5 17.17C25.5 13.68 22.89 10.73 19.43 10.31C19.02 10.26 18.73 9.89 18.78 9.48C18.83 9.07 19.2 8.77004 19.62 8.83004C23.83 9.34004 27.01 12.93 27.01 17.18C27 17.58 26.67 17.92 26.25 17.92Z" fill="#1A2630"/>
<path d="M59.8 24H51.32V10.66H54.16V21.5H59.8V24ZM65.9939 24.24C62.8139 24.24 60.8939 21.92 60.8939 19.16C60.8939 16.42 62.8139 14.1 65.9939 14.1C69.1939 14.1 71.1139 16.42 71.1139 19.16C71.1139 21.92 69.1939 24.24 65.9939 24.24ZM65.9939 21.98C67.5739 21.98 68.4739 20.68 68.4739 19.16C68.4739 17.66 67.5739 16.36 65.9939 16.36C64.4139 16.36 63.5339 17.66 63.5339 19.16C63.5339 20.68 64.4139 21.98 65.9939 21.98ZM76.9583 27.92C75.2983 27.92 74.0183 27.54 72.7983 26.48L73.9383 24.64C74.7183 25.5 75.7383 25.84 76.9583 25.84C78.1783 25.84 79.6183 25.3 79.6183 23.4V22.42C78.8583 23.38 77.8183 23.94 76.6383 23.94C74.2183 23.94 72.3783 22.24 72.3783 19.02C72.3783 15.86 74.1983 14.1 76.6383 14.1C77.7983 14.1 78.8383 14.6 79.6183 15.58V14.34H82.1783V23.34C82.1783 27.02 79.3383 27.92 76.9583 27.92ZM77.4383 21.68C78.2783 21.68 79.1983 21.2 79.6183 20.58V17.46C79.1983 16.82 78.2783 16.36 77.4383 16.36C75.9983 16.36 74.9983 17.36 74.9983 19.02C74.9983 20.68 75.9983 21.68 77.4383 21.68ZM89.1775 24.24C85.9975 24.24 84.0775 21.92 84.0775 19.16C84.0775 16.42 85.9975 14.1 89.1775 14.1C92.3775 14.1 94.2975 16.42 94.2975 19.16C94.2975 21.92 92.3775 24.24 89.1775 24.24ZM89.1775 21.98C90.7575 21.98 91.6575 20.68 91.6575 19.16C91.6575 17.66 90.7575 16.36 89.1775 16.36C87.5975 16.36 86.7175 17.66 86.7175 19.16C86.7175 20.68 87.5975 21.98 89.1775 21.98ZM110.499 24H107.939V22.76C107.179 23.72 106.119 24.24 104.959 24.24C102.519 24.24 100.679 22.4 100.679 19.18C100.679 16.02 102.499 14.1 104.959 14.1C106.099 14.1 107.179 14.6 107.939 15.58V10.66H110.499V24ZM105.739 21.98C106.599 21.98 107.519 21.52 107.939 20.88V17.46C107.519 16.82 106.599 16.36 105.739 16.36C104.299 16.36 103.299 17.5 103.299 19.18C103.299 20.84 104.299 21.98 105.739 21.98ZM117.558 24.24C114.618 24.24 112.398 22.26 112.398 19.16C112.398 16.36 114.458 14.1 117.398 14.1C120.278 14.1 122.238 16.26 122.238 19.42V19.98H115.058C115.218 21.2 116.198 22.22 117.838 22.22C118.658 22.22 119.798 21.86 120.418 21.26L121.538 22.9C120.578 23.78 119.058 24.24 117.558 24.24ZM119.778 18.26C119.718 17.34 119.078 16.12 117.398 16.12C115.818 16.12 115.138 17.3 115.018 18.26H119.778ZM127.553 24.24C125.873 24.24 124.253 23.68 123.233 22.74L124.333 20.96C125.033 21.62 126.473 22.28 127.673 22.28C128.773 22.28 129.293 21.84 129.293 21.24C129.293 19.64 123.553 20.94 123.553 17.14C123.553 15.52 124.973 14.1 127.513 14.1C129.153 14.1 130.453 14.66 131.413 15.42L130.393 17.16C129.813 16.54 128.713 16.04 127.533 16.04C126.613 16.04 126.013 16.46 126.013 17C126.013 18.44 131.733 17.24 131.733 21.14C131.733 22.9 130.233 24.24 127.553 24.24ZM134.864 13.3C134.044 13.3 133.344 12.62 133.344 11.78C133.344 10.94 134.044 10.28 134.864 10.28C135.704 10.28 136.384 10.94 136.384 11.78C136.384 12.62 135.704 13.3 134.864 13.3ZM136.144 24H133.604V14.34H136.144V24ZM142.622 27.92C140.962 27.92 139.682 27.54 138.462 26.48L139.602 24.64C140.382 25.5 141.402 25.84 142.622 25.84C143.842 25.84 145.282 25.3 145.282 23.4V22.42C144.522 23.38 143.482 23.94 142.302 23.94C139.882 23.94 138.042 22.24 138.042 19.02C138.042 15.86 139.862 14.1 142.302 14.1C143.462 14.1 144.502 14.6 145.282 15.58V14.34H147.842V23.34C147.842 27.02 145.002 27.92 142.622 27.92ZM143.102 21.68C143.942 21.68 144.862 21.2 145.282 20.58V17.46C144.862 16.82 143.942 16.36 143.102 16.36C141.662 16.36 140.662 17.36 140.662 19.02C140.662 20.68 141.662 21.68 143.102 21.68ZM159.422 24H156.882V18.16C156.882 16.82 156.182 16.36 155.102 16.36C154.102 16.36 153.322 16.92 152.902 17.5V24H150.362V14.34H152.902V15.6C153.522 14.86 154.702 14.1 156.282 14.1C158.402 14.1 159.422 15.3 159.422 17.18V24Z" fill="white"/>
</svg>
