<svg width="210" height="78" viewBox="0 0 210 78" fill="none" xmlns="http://www.w3.org/2000/svg">
<rect width="36" height="36" rx="4" fill="#E9F4FF"/>
<path d="M18 27.25H13C9.35 27.25 7.25 25.15 7.25 21.5V14.5C7.25 10.85 9.35 8.75 13 8.75H23C26.65 8.75 28.75 10.85 28.75 14.5V17.5C28.75 17.91 28.41 18.25 28 18.25C27.59 18.25 27.25 17.91 27.25 17.5V14.5C27.25 11.64 25.86 10.25 23 10.25H13C10.14 10.25 8.75 11.64 8.75 14.5V21.5C8.75 24.36 10.14 25.75 13 25.75H18C18.41 25.75 18.75 26.09 18.75 26.5C18.75 26.91 18.41 27.25 18 27.25Z" fill="#1A2630"/>
<path d="M17.9998 18.87C17.1598 18.87 16.3098 18.61 15.6598 18.08L12.5298 15.58C12.2098 15.32 12.1498 14.85 12.4098 14.53C12.6698 14.21 13.1398 14.16 13.4598 14.41L16.5898 16.91C17.3498 17.52 18.6398 17.52 19.3998 16.91L22.5298 14.41C22.8498 14.15 23.3198 14.2 23.5798 14.53C23.8398 14.85 23.7898 15.33 23.4598 15.58L20.3298 18.08C19.6898 18.61 18.8398 18.87 17.9998 18.87Z" fill="#1A2630"/>
<path d="M21.8201 27.78C21.4401 27.78 21.0801 27.64 20.8201 27.38C20.5101 27.07 20.3701 26.62 20.4401 26.15L20.6301 24.8C20.6801 24.45 20.8901 24.03 21.1401 23.78L24.68 20.24C25.16 19.76 25.6301 19.51 26.1401 19.46C26.7601 19.4 27.38 19.66 27.96 20.24C28.54 20.82 28.8 21.43 28.74 22.06C28.69 22.56 28.43 23.04 27.96 23.52L24.4201 27.06C24.1701 27.31 23.75 27.52 23.4 27.57L22.05 27.76C21.97 27.77 21.9001 27.78 21.8201 27.78ZM26.31 20.95C26.3 20.95 26.29 20.95 26.28 20.95C26.14 20.96 25.95 21.09 25.74 21.3L22.2001 24.84C22.1701 24.87 22.12 24.97 22.12 25.01L21.9401 26.26L23.1901 26.08C23.2301 26.07 23.33 26.02 23.36 25.99L26.9 22.45C27.11 22.23 27.24 22.05 27.2501 21.91C27.2701 21.71 27.07 21.47 26.9 21.3C26.74 21.14 26.51 20.95 26.31 20.95Z" fill="#1A2630"/>
<path d="M26.9201 24.2499C26.8501 24.2499 26.7801 24.2399 26.7201 24.2199C25.4001 23.8499 24.3501 22.7999 23.9801 21.4799C23.8701 21.0799 24.1001 20.6699 24.5001 20.5499C24.9001 20.4399 25.3101 20.6699 25.4201 21.0699C25.6501 21.8899 26.3001 22.5399 27.1201 22.7699C27.5201 22.8799 27.7501 23.2999 27.6401 23.6999C27.5501 24.0299 27.2501 24.2499 26.9201 24.2499Z" fill="#1A2630"/>
<path d="M60.76 24H51.32V10.66H60.76V13.16H54.16V15.98H60.62V18.48H54.16V21.5H60.76V24ZM77.4602 24H74.9002V17.9C74.9002 17 74.5002 16.36 73.4602 16.36C72.5602 16.36 71.8202 16.96 71.4602 17.48V24H68.9002V17.9C68.9002 17 68.5002 16.36 67.4602 16.36C66.5802 16.36 65.8402 16.96 65.4602 17.5V24H62.9202V14.34H65.4602V15.6C65.8602 15.02 67.1402 14.1 68.6202 14.1C70.0402 14.1 70.9402 14.76 71.3002 15.86C71.8602 14.98 73.1402 14.1 74.6202 14.1C76.4002 14.1 77.4602 15.04 77.4602 17.02V24ZM88.2914 24H85.7514V23C85.0914 23.78 83.9514 24.24 82.6914 24.24C81.1514 24.24 79.3314 23.2 79.3314 21.04C79.3314 18.78 81.1514 17.92 82.6914 17.92C83.9714 17.92 85.1114 18.34 85.7514 19.1V17.8C85.7514 16.82 84.9114 16.18 83.6314 16.18C82.5914 16.18 81.6314 16.56 80.8114 17.32L79.8514 15.62C81.0314 14.58 82.5514 14.1 84.0714 14.1C86.2714 14.1 88.2914 14.98 88.2914 17.76V24ZM83.7114 22.52C84.5314 22.52 85.3314 22.24 85.7514 21.68V20.48C85.3314 19.92 84.5314 19.64 83.7114 19.64C82.7114 19.64 81.8914 20.16 81.8914 21.1C81.8914 22 82.7114 22.52 83.7114 22.52ZM92.0708 13.3C91.2508 13.3 90.5508 12.62 90.5508 11.78C90.5508 10.94 91.2508 10.28 92.0708 10.28C92.9108 10.28 93.5908 10.94 93.5908 11.78C93.5908 12.62 92.9108 13.3 92.0708 13.3ZM93.3508 24H90.8108V14.34H93.3508V24ZM98.4094 24H95.8694V10.66H98.4094V24ZM120.565 24H117.705V14.66L113.945 24H112.705L108.945 14.66V24H106.105V10.66H110.085L113.325 18.72L116.565 10.66H120.565V24ZM131.495 24H128.955V23C128.295 23.78 127.155 24.24 125.895 24.24C124.355 24.24 122.535 23.2 122.535 21.04C122.535 18.78 124.355 17.92 125.895 17.92C127.175 17.92 128.315 18.34 128.955 19.1V17.8C128.955 16.82 128.115 16.18 126.835 16.18C125.795 16.18 124.835 16.56 124.015 17.32L123.055 15.62C124.235 14.58 125.755 14.1 127.275 14.1C129.475 14.1 131.495 14.98 131.495 17.76V24ZM126.915 22.52C127.735 22.52 128.535 22.24 128.955 21.68V20.48C128.535 19.92 127.735 19.64 126.915 19.64C125.915 19.64 125.095 20.16 125.095 21.1C125.095 22 125.915 22.52 126.915 22.52ZM136.554 24H134.014V14.34H136.554V15.66C137.234 14.8 138.434 14.1 139.634 14.1V16.58C139.454 16.54 139.214 16.52 138.934 16.52C138.094 16.52 136.974 17 136.554 17.62V24ZM150.661 24H147.481L144.921 20.28L143.761 21.52V24H141.221V10.66H143.761V18.64L147.421 14.34H150.541L146.721 18.72L150.661 24ZM156.347 24.24C153.407 24.24 151.187 22.26 151.187 19.16C151.187 16.36 153.247 14.1 156.187 14.1C159.067 14.1 161.027 16.26 161.027 19.42V19.98H153.847C154.007 21.2 154.987 22.22 156.627 22.22C157.447 22.22 158.587 21.86 159.207 21.26L160.327 22.9C159.367 23.78 157.847 24.24 156.347 24.24ZM158.567 18.26C158.507 17.34 157.867 16.12 156.187 16.12C154.607 16.12 153.927 17.3 153.807 18.26H158.567ZM166.102 24.24C164.322 24.24 163.362 23.32 163.362 21.6V16.56H161.762V14.34H163.362V11.7H165.922V14.34H167.882V16.56H165.922V20.92C165.922 21.52 166.242 21.98 166.802 21.98C167.182 21.98 167.542 21.84 167.682 21.7L168.222 23.62C167.842 23.96 167.162 24.24 166.102 24.24ZM170.879 13.3C170.059 13.3 169.359 12.62 169.359 11.78C169.359 10.94 170.059 10.28 170.879 10.28C171.719 10.28 172.399 10.94 172.399 11.78C172.399 12.62 171.719 13.3 170.879 13.3ZM172.159 24H169.619V14.34H172.159V24ZM183.738 24H181.198V18.16C181.198 16.82 180.498 16.36 179.418 16.36C178.418 16.36 177.638 16.92 177.218 17.5V24H174.678V14.34H177.218V15.6C177.838 14.86 179.018 14.1 180.598 14.1C182.718 14.1 183.738 15.3 183.738 17.18V24ZM190.22 27.92C188.56 27.92 187.28 27.54 186.06 26.48L187.2 24.64C187.98 25.5 189 25.84 190.22 25.84C191.44 25.84 192.88 25.3 192.88 23.4V22.42C192.12 23.38 191.08 23.94 189.9 23.94C187.48 23.94 185.64 22.24 185.64 19.02C185.64 15.86 187.46 14.1 189.9 14.1C191.06 14.1 192.1 14.6 192.88 15.58V14.34H195.44V23.34C195.44 27.02 192.6 27.92 190.22 27.92ZM190.7 21.68C191.54 21.68 192.46 21.2 192.88 20.58V17.46C192.46 16.82 191.54 16.36 190.7 16.36C189.26 16.36 188.26 17.36 188.26 19.02C188.26 20.68 189.26 21.68 190.7 21.68Z" fill="white"/>
<path d="M9.03106 70H7.46306L4.74306 65.76H2.61506V70H1.28706V59.328H5.57506C7.52706 59.328 8.91906 60.576 8.91906 62.544C8.91906 64.464 7.60706 65.52 6.15106 65.648L9.03106 70ZM5.41506 64.592C6.67906 64.592 7.54306 63.744 7.54306 62.544C7.54306 61.344 6.67906 60.512 5.41506 60.512H2.61506V64.592H5.41506ZM13.9771 70.192C11.6891 70.192 10.0411 68.544 10.0411 66.128C10.0411 63.888 11.6411 62.08 13.8491 62.08C16.1851 62.08 17.5611 63.904 17.5611 66.224V66.528H11.3051C11.4011 67.984 12.4251 69.2 14.0891 69.2C14.9691 69.2 15.8651 68.848 16.4731 68.224L17.0491 69.008C16.2811 69.776 15.2411 70.192 13.9771 70.192ZM16.3771 65.648C16.3611 64.496 15.5931 63.072 13.8331 63.072C12.1851 63.072 11.3691 64.464 11.3051 65.648H16.3771ZM22.7367 69.12C23.6967 69.12 24.6407 68.544 25.0407 67.872V64.384C24.6407 63.712 23.6967 63.152 22.7367 63.152C21.1847 63.152 20.2727 64.416 20.2727 66.128C20.2727 67.84 21.1847 69.12 22.7367 69.12ZM22.4487 70.192C20.4167 70.192 19.0087 68.624 19.0087 66.128C19.0087 63.616 20.4167 62.08 22.4487 62.08C23.5367 62.08 24.4967 62.64 25.0407 63.424V62.272H26.2407V72.944H25.0407V68.832C24.4167 69.696 23.4887 70.192 22.4487 70.192ZM35.0769 70H33.8769V68.912C33.2849 69.584 32.2769 70.192 31.1249 70.192C29.5089 70.192 28.6609 69.408 28.6609 67.728V62.272H29.8609V67.36C29.8609 68.72 30.5489 69.12 31.5889 69.12C32.5329 69.12 33.4289 68.576 33.8769 67.952V62.272H35.0769V70ZM40.9614 70.192C38.6734 70.192 37.0254 68.544 37.0254 66.128C37.0254 63.888 38.6254 62.08 40.8334 62.08C43.1694 62.08 44.5454 63.904 44.5454 66.224V66.528H38.2894C38.3854 67.984 39.4094 69.2 41.0734 69.2C41.9534 69.2 42.8494 68.848 43.4574 68.224L44.0334 69.008C43.2654 69.776 42.2254 70.192 40.9614 70.192ZM43.3614 65.648C43.3454 64.496 42.5774 63.072 40.8174 63.072C39.1694 63.072 38.3534 64.464 38.2894 65.648H43.3614ZM48.9371 70.192C47.6731 70.192 46.6011 69.808 45.8171 68.976L46.4411 68.112C46.9531 68.704 47.9291 69.216 48.9851 69.216C50.1691 69.216 50.8091 68.656 50.8091 67.888C50.8091 66.016 46.0251 67.168 46.0251 64.304C46.0251 63.104 47.0651 62.08 48.9051 62.08C50.2171 62.08 51.1451 62.576 51.7691 63.2L51.2091 64.032C50.7451 63.472 49.8971 63.056 48.9051 63.056C47.8491 63.056 47.1931 63.584 47.1931 64.272C47.1931 65.968 51.9771 64.848 51.9771 67.856C51.9771 69.152 50.9371 70.192 48.9371 70.192ZM55.8786 70.192C54.7426 70.192 54.1666 69.536 54.1666 68.384V63.328H52.8866V62.272H54.1666V60.16H55.3666V62.272H56.9346V63.328H55.3666V68.128C55.3666 68.704 55.6226 69.12 56.1506 69.12C56.4866 69.12 56.8066 68.976 56.9666 68.8L57.3186 69.696C57.0146 69.984 56.5826 70.192 55.8786 70.192ZM68.7867 70H67.5867V69.12C66.9467 69.824 66.0667 70.192 65.0267 70.192C63.7147 70.192 62.3227 69.312 62.3227 67.632C62.3227 65.904 63.7147 65.088 65.0267 65.088C66.0827 65.088 66.9627 65.424 67.5867 66.144V64.752C67.5867 63.712 66.7547 63.12 65.6347 63.12C64.7067 63.12 63.9547 63.456 63.2667 64.192L62.7067 63.36C63.5387 62.496 64.5307 62.08 65.7947 62.08C67.4267 62.08 68.7867 62.816 68.7867 64.688V70ZM65.4587 69.328C66.3067 69.328 67.1227 69.008 67.5867 68.368V66.912C67.1227 66.272 66.3067 65.952 65.4587 65.952C64.3387 65.952 63.5547 66.656 63.5547 67.648C63.5547 68.624 64.3387 69.328 65.4587 69.328ZM78.5492 69.12C79.5092 69.12 80.4532 68.544 80.8532 67.872V64.384C80.4532 63.712 79.5092 63.152 78.5492 63.152C76.9972 63.152 76.0852 64.416 76.0852 66.128C76.0852 67.84 76.9972 69.12 78.5492 69.12ZM78.2612 70.192C76.2292 70.192 74.8212 68.624 74.8212 66.128C74.8212 63.616 76.2292 62.08 78.2612 62.08C79.3492 62.08 80.3092 62.64 80.8532 63.424V62.272H82.0532V72.944H80.8532V68.832C80.2292 69.696 79.3012 70.192 78.2612 70.192ZM90.8894 70H89.6894V68.912C89.0974 69.584 88.0894 70.192 86.9374 70.192C85.3214 70.192 84.4734 69.408 84.4734 67.728V62.272H85.6734V67.36C85.6734 68.72 86.3614 69.12 87.4014 69.12C88.3454 69.12 89.2414 68.576 89.6894 67.952V62.272H90.8894V70ZM96.6619 70.192C94.3099 70.192 92.8379 68.368 92.8379 66.128C92.8379 63.888 94.3099 62.08 96.6619 62.08C99.0139 62.08 100.486 63.888 100.486 66.128C100.486 68.368 99.0139 70.192 96.6619 70.192ZM96.6619 69.12C98.3099 69.12 99.2219 67.712 99.2219 66.128C99.2219 64.56 98.3099 63.152 96.6619 63.152C95.0139 63.152 94.0859 64.56 94.0859 66.128C94.0859 67.712 95.0139 69.12 96.6619 69.12ZM104.394 70.192C103.258 70.192 102.682 69.536 102.682 68.384V63.328H101.402V62.272H102.682V60.16H103.882V62.272H105.45V63.328H103.882V68.128C103.882 68.704 104.138 69.12 104.666 69.12C105.002 69.12 105.322 68.976 105.482 68.8L105.834 69.696C105.53 69.984 105.098 70.192 104.394 70.192ZM110.633 70.192C108.345 70.192 106.697 68.544 106.697 66.128C106.697 63.888 108.297 62.08 110.505 62.08C112.841 62.08 114.217 63.904 114.217 66.224V66.528H107.961C108.057 67.984 109.081 69.2 110.745 69.2C111.625 69.2 112.521 68.848 113.129 68.224L113.705 69.008C112.937 69.776 111.897 70.192 110.633 70.192ZM113.033 65.648C113.017 64.496 112.249 63.072 110.489 63.072C108.841 63.072 108.025 64.464 107.961 65.648H113.033Z" fill="white"/>
<g clip-path="url(#clip0_1_2358)">
<path d="M137.025 71.6833C136.867 71.6833 136.709 71.625 136.584 71.5C136.342 71.2583 136.342 70.8583 136.584 70.6166L141.2 66L136.584 61.3833C136.342 61.1416 136.342 60.7416 136.584 60.5C136.825 60.2583 137.225 60.2583 137.467 60.5L142.525 65.5583C142.767 65.8 142.767 66.2 142.525 66.4416L137.467 71.5C137.342 71.625 137.184 71.6833 137.025 71.6833Z" fill="white"/>
<path d="M141.942 66.625H127.917C127.575 66.625 127.292 66.3417 127.292 66C127.292 65.6583 127.575 65.375 127.917 65.375H141.942C142.284 65.375 142.567 65.6583 142.567 66C142.567 66.3417 142.284 66.625 141.942 66.625Z" fill="white"/>
</g>
<defs>
<clipPath id="clip0_1_2358">
<rect width="20" height="20" fill="white" transform="translate(125 56)"/>
</clipPath>
</defs>
</svg>
