<svg width="210" height="36" viewBox="0 0 210 36" fill="none" xmlns="http://www.w3.org/2000/svg">
<rect width="36" height="36" rx="4" fill="#E9F4FF"/>
<path d="M23.56 23.97H12.44C8.46 23.97 7.25 22.76 7.25 18.78V12.44C7.25 8.46 8.46 7.25 12.44 7.25H23.55C27.53 7.25 28.74 8.46 28.74 12.44V18.77C28.75 22.76 27.54 23.97 23.56 23.97ZM12.44 8.75C9.3 8.75 8.75 9.3 8.75 12.44V18.77C8.75 21.91 9.3 22.46 12.44 22.46H23.55C26.69 22.46 27.24 21.91 27.24 18.77V12.44C27.24 9.3 26.69 8.75 23.55 8.75H12.44Z" fill="#1A2630"/>
<path d="M18 28.75C17.59 28.75 17.25 28.41 17.25 28V23.22C17.25 22.81 17.59 22.47 18 22.47C18.41 22.47 18.75 22.81 18.75 23.22V28C18.75 28.41 18.41 28.75 18 28.75Z" fill="#1A2630"/>
<path d="M28 19.75H8C7.59 19.75 7.25 19.41 7.25 19C7.25 18.59 7.59 18.25 8 18.25H28C28.41 18.25 28.75 18.59 28.75 19C28.75 19.41 28.41 19.75 28 19.75Z" fill="#1A2630"/>
<path d="M22.5 28.75H13.5C13.09 28.75 12.75 28.41 12.75 28C12.75 27.59 13.09 27.25 13.5 27.25H22.5C22.91 27.25 23.25 27.59 23.25 28C23.25 28.41 22.91 28.75 22.5 28.75Z" fill="#1A2630"/>
<path d="M56.58 24H51.32V10.66H56.58C60.76 10.66 63.66 13.32 63.66 17.34C63.66 21.36 60.76 24 56.58 24ZM56.58 21.5C59.22 21.5 60.76 19.6 60.76 17.34C60.76 14.98 59.32 13.16 56.58 13.16H54.16V21.5H56.58ZM66.8755 13.3C66.0555 13.3 65.3555 12.62 65.3555 11.78C65.3555 10.94 66.0555 10.28 66.8755 10.28C67.7155 10.28 68.3955 10.94 68.3955 11.78C68.3955 12.62 67.7155 13.3 66.8755 13.3ZM68.1555 24H65.6155V14.34H68.1555V24ZM74.6341 27.92C72.9741 27.92 71.6941 27.54 70.4741 26.48L71.6141 24.64C72.3941 25.5 73.4141 25.84 74.6341 25.84C75.8541 25.84 77.2941 25.3 77.2941 23.4V22.42C76.5341 23.38 75.4941 23.94 74.3141 23.94C71.8941 23.94 70.0541 22.24 70.0541 19.02C70.0541 15.86 71.8741 14.1 74.3141 14.1C75.4741 14.1 76.5141 14.6 77.2941 15.58V14.34H79.8541V23.34C79.8541 27.02 77.0141 27.92 74.6341 27.92ZM75.1141 21.68C75.9541 21.68 76.8741 21.2 77.2941 20.58V17.46C76.8741 16.82 75.9541 16.36 75.1141 16.36C73.6741 16.36 72.6741 17.36 72.6741 19.02C72.6741 20.68 73.6741 21.68 75.1141 21.68ZM83.6333 13.3C82.8133 13.3 82.1133 12.62 82.1133 11.78C82.1133 10.94 82.8133 10.28 83.6333 10.28C84.4733 10.28 85.1533 10.94 85.1533 11.78C85.1533 12.62 84.4733 13.3 83.6333 13.3ZM84.9133 24H82.3733V14.34H84.9133V24ZM90.6719 24.24C88.8919 24.24 87.9319 23.32 87.9319 21.6V16.56H86.3319V14.34H87.9319V11.7H90.4919V14.34H92.4519V16.56H90.4919V20.92C90.4919 21.52 90.8119 21.98 91.3719 21.98C91.7519 21.98 92.1119 21.84 92.2519 21.7L92.7919 23.62C92.4119 23.96 91.7319 24.24 90.6719 24.24ZM102.53 24H99.9897V23C99.3297 23.78 98.1897 24.24 96.9297 24.24C95.3897 24.24 93.5697 23.2 93.5697 21.04C93.5697 18.78 95.3897 17.92 96.9297 17.92C98.2097 17.92 99.3497 18.34 99.9897 19.1V17.8C99.9897 16.82 99.1497 16.18 97.8697 16.18C96.8297 16.18 95.8697 16.56 95.0497 17.32L94.0897 15.62C95.2697 14.58 96.7897 14.1 98.3097 14.1C100.51 14.1 102.53 14.98 102.53 17.76V24ZM97.9497 22.52C98.7697 22.52 99.5697 22.24 99.9897 21.68V20.48C99.5697 19.92 98.7697 19.64 97.9497 19.64C96.9497 19.64 96.1297 20.16 96.1297 21.1C96.1297 22 96.9497 22.52 97.9497 22.52ZM107.589 24H105.049V10.66H107.589V24ZM129.745 24H126.885V14.66L123.125 24H121.885L118.125 14.66V24H115.285V10.66H119.265L122.505 18.72L125.745 10.66H129.745V24ZM140.674 24H138.134V23C137.474 23.78 136.334 24.24 135.074 24.24C133.534 24.24 131.714 23.2 131.714 21.04C131.714 18.78 133.534 17.92 135.074 17.92C136.354 17.92 137.494 18.34 138.134 19.1V17.8C138.134 16.82 137.294 16.18 136.014 16.18C134.974 16.18 134.014 16.56 133.194 17.32L132.234 15.62C133.414 14.58 134.934 14.1 136.454 14.1C138.654 14.1 140.674 14.98 140.674 17.76V24ZM136.094 22.52C136.914 22.52 137.714 22.24 138.134 21.68V20.48C137.714 19.92 136.914 19.64 136.094 19.64C135.094 19.64 134.274 20.16 134.274 21.1C134.274 22 135.094 22.52 136.094 22.52ZM145.734 24H143.194V14.34H145.734V15.66C146.414 14.8 147.614 14.1 148.814 14.1V16.58C148.634 16.54 148.394 16.52 148.114 16.52C147.274 16.52 146.154 17 145.734 17.62V24ZM159.841 24H156.661L154.101 20.28L152.941 21.52V24H150.401V10.66H152.941V18.64L156.601 14.34H159.721L155.901 18.72L159.841 24ZM165.527 24.24C162.587 24.24 160.367 22.26 160.367 19.16C160.367 16.36 162.427 14.1 165.367 14.1C168.247 14.1 170.207 16.26 170.207 19.42V19.98H163.027C163.187 21.2 164.167 22.22 165.807 22.22C166.627 22.22 167.767 21.86 168.387 21.26L169.507 22.9C168.547 23.78 167.027 24.24 165.527 24.24ZM167.747 18.26C167.687 17.34 167.047 16.12 165.367 16.12C163.787 16.12 163.107 17.3 162.987 18.26H167.747ZM175.281 24.24C173.501 24.24 172.541 23.32 172.541 21.6V16.56H170.941V14.34H172.541V11.7H175.101V14.34H177.061V16.56H175.101V20.92C175.101 21.52 175.421 21.98 175.981 21.98C176.361 21.98 176.721 21.84 176.861 21.7L177.401 23.62C177.021 23.96 176.341 24.24 175.281 24.24ZM180.059 13.3C179.239 13.3 178.539 12.62 178.539 11.78C178.539 10.94 179.239 10.28 180.059 10.28C180.899 10.28 181.579 10.94 181.579 11.78C181.579 12.62 180.899 13.3 180.059 13.3ZM181.339 24H178.799V14.34H181.339V24ZM192.918 24H190.378V18.16C190.378 16.82 189.678 16.36 188.598 16.36C187.598 16.36 186.818 16.92 186.398 17.5V24H183.858V14.34H186.398V15.6C187.018 14.86 188.198 14.1 189.778 14.1C191.898 14.1 192.918 15.3 192.918 17.18V24ZM199.4 27.92C197.74 27.92 196.46 27.54 195.24 26.48L196.38 24.64C197.16 25.5 198.18 25.84 199.4 25.84C200.62 25.84 202.06 25.3 202.06 23.4V22.42C201.3 23.38 200.26 23.94 199.08 23.94C196.66 23.94 194.82 22.24 194.82 19.02C194.82 15.86 196.64 14.1 199.08 14.1C200.24 14.1 201.28 14.6 202.06 15.58V14.34H204.62V23.34C204.62 27.02 201.78 27.92 199.4 27.92ZM199.88 21.68C200.72 21.68 201.64 21.2 202.06 20.58V17.46C201.64 16.82 200.72 16.36 199.88 16.36C198.44 16.36 197.44 17.36 197.44 19.02C197.44 20.68 198.44 21.68 199.88 21.68Z" fill="white"/>
</svg>
