<svg width="210" height="78" viewBox="0 0 210 78" fill="none" xmlns="http://www.w3.org/2000/svg">
<rect width="36" height="36" rx="4" fill="#E9F4FF"/>
<path d="M19.2698 29.25H16.7498C16.0498 29.25 15.4198 28.9499 14.9998 28.4399C14.6298 27.9799 14.4898 27.39 14.6198 26.83L15.0298 25.02C15.1098 24.68 15.4098 24.4399 15.7598 24.4399H20.2598C20.6098 24.4399 20.9098 24.68 20.9898 25.02L21.3998 26.83C21.5298 27.43 21.4098 28.01 21.0398 28.47C20.6298 28.96 19.9898 29.25 19.2698 29.25ZM16.3598 25.92L16.0798 27.15C16.0498 27.3 16.1098 27.42 16.1698 27.49C16.2998 27.65 16.5098 27.74 16.7498 27.74H19.2698C19.5298 27.74 19.7498 27.66 19.8698 27.51C19.9498 27.41 19.9698 27.29 19.9398 27.14L19.6598 25.91H16.3598V25.92Z" fill="#1A2630"/>
<path d="M20.26 25.92C20.05 25.92 19.85 25.84 19.7 25.67C19.43 25.36 19.45 24.89 19.76 24.61L21.49 23.0699C22.18 22.4599 22.15 22.31 21.64 21.67L18.59 17.8C18.42 17.59 18.22 17.47 18.01 17.47C17.8 17.47 17.6 17.59 17.43 17.8L14.38 21.67C13.84 22.36 13.85 22.51 14.51 23.05L16.26 24.61C16.57 24.88 16.6 25.36 16.32 25.67C16.04 25.98 15.57 26.01 15.26 25.73L13.53 24.1899C12.27 23.1599 12.16 22.06 13.2 20.74L16.25 16.87C16.7 16.3 17.34 15.97 18.01 15.97C18.68 15.97 19.32 16.3 19.77 16.87L22.82 20.74C23.85 22.04 23.75 23.0799 22.49 24.1899L20.76 25.73C20.61 25.86 20.43 25.92 20.26 25.92Z" fill="#1A2630"/>
<path d="M18.0098 20.4C17.5998 20.4 17.2598 20.06 17.2598 19.65V17.12C17.2598 16.71 17.5998 16.37 18.0098 16.37C18.4198 16.37 18.7598 16.71 18.7598 17.12V19.65C18.7598 20.07 18.4198 20.4 18.0098 20.4Z" fill="#1A2630"/>
<path d="M18.52 11.75H17.52C16.56 11.75 15.77 10.96 15.77 10V9C15.77 8.04 16.56 7.25 17.52 7.25H18.52C19.48 7.25 20.27 8.04 20.27 9V10C20.27 10.96 19.49 11.75 18.52 11.75ZM17.52 8.75C17.38 8.75 17.27 8.86 17.27 9V10C17.27 10.14 17.38 10.25 17.52 10.25H18.52C18.66 10.25 18.77 10.14 18.77 10V9C18.77 8.86 18.66 8.75 18.52 8.75H17.52Z" fill="#1A2630"/>
<path d="M10.27 20.92H9.27002C8.31002 20.92 7.52002 20.13 7.52002 19.17V18.17C7.52002 17.21 8.31002 16.4199 9.27002 16.4199H10.27C11.23 16.4199 12.02 17.21 12.02 18.17V19.17C12.02 20.13 11.23 20.92 10.27 20.92ZM9.27002 17.9199C9.13002 17.9199 9.02002 18.03 9.02002 18.17V19.17C9.02002 19.31 9.13002 19.42 9.27002 19.42H10.27C10.41 19.42 10.52 19.31 10.52 19.17V18.17C10.52 18.03 10.41 17.9199 10.27 17.9199H9.27002Z" fill="#1A2630"/>
<path d="M26.73 20.92H25.73C24.77 20.92 23.98 20.13 23.98 19.17V18.17C23.98 17.21 24.77 16.4199 25.73 16.4199H26.73C27.69 16.4199 28.48 17.21 28.48 18.17V19.17C28.48 20.13 27.7 20.92 26.73 20.92ZM25.73 17.9199C25.59 17.9199 25.48 18.03 25.48 18.17V19.17C25.48 19.31 25.59 19.42 25.73 19.42H26.73C26.87 19.42 26.98 19.31 26.98 19.17V18.17C26.98 18.03 26.87 17.9199 26.73 17.9199H25.73Z" fill="#1A2630"/>
<path d="M9.75 17.9201C9.34 17.9201 9 17.5801 9 17.1701C9 12.9001 12.2 9.31008 16.44 8.81008C16.85 8.77008 17.22 9.06005 17.27 9.47005C17.32 9.88005 17.02 10.2501 16.61 10.3001C13.13 10.7101 10.5 13.6601 10.5 17.1701C10.5 17.5801 10.16 17.9201 9.75 17.9201Z" fill="#1A2630"/>
<path d="M26.25 17.92C25.84 17.92 25.5 17.58 25.5 17.17C25.5 13.68 22.89 10.73 19.43 10.31C19.02 10.26 18.73 9.89 18.78 9.48C18.83 9.07 19.2 8.77004 19.62 8.83004C23.83 9.34004 27.01 12.93 27.01 17.18C27 17.58 26.67 17.92 26.25 17.92Z" fill="#1A2630"/>
<path d="M59.8 24H51.32V10.66H54.16V21.5H59.8V24ZM65.9939 24.24C62.8139 24.24 60.8939 21.92 60.8939 19.16C60.8939 16.42 62.8139 14.1 65.9939 14.1C69.1939 14.1 71.1139 16.42 71.1139 19.16C71.1139 21.92 69.1939 24.24 65.9939 24.24ZM65.9939 21.98C67.5739 21.98 68.4739 20.68 68.4739 19.16C68.4739 17.66 67.5739 16.36 65.9939 16.36C64.4139 16.36 63.5339 17.66 63.5339 19.16C63.5339 20.68 64.4139 21.98 65.9939 21.98ZM76.9583 27.92C75.2983 27.92 74.0183 27.54 72.7983 26.48L73.9383 24.64C74.7183 25.5 75.7383 25.84 76.9583 25.84C78.1783 25.84 79.6183 25.3 79.6183 23.4V22.42C78.8583 23.38 77.8183 23.94 76.6383 23.94C74.2183 23.94 72.3783 22.24 72.3783 19.02C72.3783 15.86 74.1983 14.1 76.6383 14.1C77.7983 14.1 78.8383 14.6 79.6183 15.58V14.34H82.1783V23.34C82.1783 27.02 79.3383 27.92 76.9583 27.92ZM77.4383 21.68C78.2783 21.68 79.1983 21.2 79.6183 20.58V17.46C79.1983 16.82 78.2783 16.36 77.4383 16.36C75.9983 16.36 74.9983 17.36 74.9983 19.02C74.9983 20.68 75.9983 21.68 77.4383 21.68ZM89.1775 24.24C85.9975 24.24 84.0775 21.92 84.0775 19.16C84.0775 16.42 85.9975 14.1 89.1775 14.1C92.3775 14.1 94.2975 16.42 94.2975 19.16C94.2975 21.92 92.3775 24.24 89.1775 24.24ZM89.1775 21.98C90.7575 21.98 91.6575 20.68 91.6575 19.16C91.6575 17.66 90.7575 16.36 89.1775 16.36C87.5975 16.36 86.7175 17.66 86.7175 19.16C86.7175 20.68 87.5975 21.98 89.1775 21.98ZM110.499 24H107.939V22.76C107.179 23.72 106.119 24.24 104.959 24.24C102.519 24.24 100.679 22.4 100.679 19.18C100.679 16.02 102.499 14.1 104.959 14.1C106.099 14.1 107.179 14.6 107.939 15.58V10.66H110.499V24ZM105.739 21.98C106.599 21.98 107.519 21.52 107.939 20.88V17.46C107.519 16.82 106.599 16.36 105.739 16.36C104.299 16.36 103.299 17.5 103.299 19.18C103.299 20.84 104.299 21.98 105.739 21.98ZM117.558 24.24C114.618 24.24 112.398 22.26 112.398 19.16C112.398 16.36 114.458 14.1 117.398 14.1C120.278 14.1 122.238 16.26 122.238 19.42V19.98H115.058C115.218 21.2 116.198 22.22 117.838 22.22C118.658 22.22 119.798 21.86 120.418 21.26L121.538 22.9C120.578 23.78 119.058 24.24 117.558 24.24ZM119.778 18.26C119.718 17.34 119.078 16.12 117.398 16.12C115.818 16.12 115.138 17.3 115.018 18.26H119.778ZM127.553 24.24C125.873 24.24 124.253 23.68 123.233 22.74L124.333 20.96C125.033 21.62 126.473 22.28 127.673 22.28C128.773 22.28 129.293 21.84 129.293 21.24C129.293 19.64 123.553 20.94 123.553 17.14C123.553 15.52 124.973 14.1 127.513 14.1C129.153 14.1 130.453 14.66 131.413 15.42L130.393 17.16C129.813 16.54 128.713 16.04 127.533 16.04C126.613 16.04 126.013 16.46 126.013 17C126.013 18.44 131.733 17.24 131.733 21.14C131.733 22.9 130.233 24.24 127.553 24.24ZM134.864 13.3C134.044 13.3 133.344 12.62 133.344 11.78C133.344 10.94 134.044 10.28 134.864 10.28C135.704 10.28 136.384 10.94 136.384 11.78C136.384 12.62 135.704 13.3 134.864 13.3ZM136.144 24H133.604V14.34H136.144V24ZM142.622 27.92C140.962 27.92 139.682 27.54 138.462 26.48L139.602 24.64C140.382 25.5 141.402 25.84 142.622 25.84C143.842 25.84 145.282 25.3 145.282 23.4V22.42C144.522 23.38 143.482 23.94 142.302 23.94C139.882 23.94 138.042 22.24 138.042 19.02C138.042 15.86 139.862 14.1 142.302 14.1C143.462 14.1 144.502 14.6 145.282 15.58V14.34H147.842V23.34C147.842 27.02 145.002 27.92 142.622 27.92ZM143.102 21.68C143.942 21.68 144.862 21.2 145.282 20.58V17.46C144.862 16.82 143.942 16.36 143.102 16.36C141.662 16.36 140.662 17.36 140.662 19.02C140.662 20.68 141.662 21.68 143.102 21.68ZM159.422 24H156.882V18.16C156.882 16.82 156.182 16.36 155.102 16.36C154.102 16.36 153.322 16.92 152.902 17.5V24H150.362V14.34H152.902V15.6C153.522 14.86 154.702 14.1 156.282 14.1C158.402 14.1 159.422 15.3 159.422 17.18V24Z" fill="white"/>
<path d="M9.03106 70H7.46306L4.74306 65.76H2.61506V70H1.28706V59.328H5.57506C7.52706 59.328 8.91906 60.576 8.91906 62.544C8.91906 64.464 7.60706 65.52 6.15106 65.648L9.03106 70ZM5.41506 64.592C6.67906 64.592 7.54306 63.744 7.54306 62.544C7.54306 61.344 6.67906 60.512 5.41506 60.512H2.61506V64.592H5.41506ZM13.9771 70.192C11.6891 70.192 10.0411 68.544 10.0411 66.128C10.0411 63.888 11.6411 62.08 13.8491 62.08C16.1851 62.08 17.5611 63.904 17.5611 66.224V66.528H11.3051C11.4011 67.984 12.4251 69.2 14.0891 69.2C14.9691 69.2 15.8651 68.848 16.4731 68.224L17.0491 69.008C16.2811 69.776 15.2411 70.192 13.9771 70.192ZM16.3771 65.648C16.3611 64.496 15.5931 63.072 13.8331 63.072C12.1851 63.072 11.3691 64.464 11.3051 65.648H16.3771ZM22.7367 69.12C23.6967 69.12 24.6407 68.544 25.0407 67.872V64.384C24.6407 63.712 23.6967 63.152 22.7367 63.152C21.1847 63.152 20.2727 64.416 20.2727 66.128C20.2727 67.84 21.1847 69.12 22.7367 69.12ZM22.4487 70.192C20.4167 70.192 19.0087 68.624 19.0087 66.128C19.0087 63.616 20.4167 62.08 22.4487 62.08C23.5367 62.08 24.4967 62.64 25.0407 63.424V62.272H26.2407V72.944H25.0407V68.832C24.4167 69.696 23.4887 70.192 22.4487 70.192ZM35.0769 70H33.8769V68.912C33.2849 69.584 32.2769 70.192 31.1249 70.192C29.5089 70.192 28.6609 69.408 28.6609 67.728V62.272H29.8609V67.36C29.8609 68.72 30.5489 69.12 31.5889 69.12C32.5329 69.12 33.4289 68.576 33.8769 67.952V62.272H35.0769V70ZM40.9614 70.192C38.6734 70.192 37.0254 68.544 37.0254 66.128C37.0254 63.888 38.6254 62.08 40.8334 62.08C43.1694 62.08 44.5454 63.904 44.5454 66.224V66.528H38.2894C38.3854 67.984 39.4094 69.2 41.0734 69.2C41.9534 69.2 42.8494 68.848 43.4574 68.224L44.0334 69.008C43.2654 69.776 42.2254 70.192 40.9614 70.192ZM43.3614 65.648C43.3454 64.496 42.5774 63.072 40.8174 63.072C39.1694 63.072 38.3534 64.464 38.2894 65.648H43.3614ZM48.9371 70.192C47.6731 70.192 46.6011 69.808 45.8171 68.976L46.4411 68.112C46.9531 68.704 47.9291 69.216 48.9851 69.216C50.1691 69.216 50.8091 68.656 50.8091 67.888C50.8091 66.016 46.0251 67.168 46.0251 64.304C46.0251 63.104 47.0651 62.08 48.9051 62.08C50.2171 62.08 51.1451 62.576 51.7691 63.2L51.2091 64.032C50.7451 63.472 49.8971 63.056 48.9051 63.056C47.8491 63.056 47.1931 63.584 47.1931 64.272C47.1931 65.968 51.9771 64.848 51.9771 67.856C51.9771 69.152 50.9371 70.192 48.9371 70.192ZM55.8786 70.192C54.7426 70.192 54.1666 69.536 54.1666 68.384V63.328H52.8866V62.272H54.1666V60.16H55.3666V62.272H56.9346V63.328H55.3666V68.128C55.3666 68.704 55.6226 69.12 56.1506 69.12C56.4866 69.12 56.8066 68.976 56.9666 68.8L57.3186 69.696C57.0146 69.984 56.5826 70.192 55.8786 70.192ZM68.7867 70H67.5867V69.12C66.9467 69.824 66.0667 70.192 65.0267 70.192C63.7147 70.192 62.3227 69.312 62.3227 67.632C62.3227 65.904 63.7147 65.088 65.0267 65.088C66.0827 65.088 66.9627 65.424 67.5867 66.144V64.752C67.5867 63.712 66.7547 63.12 65.6347 63.12C64.7067 63.12 63.9547 63.456 63.2667 64.192L62.7067 63.36C63.5387 62.496 64.5307 62.08 65.7947 62.08C67.4267 62.08 68.7867 62.816 68.7867 64.688V70ZM65.4587 69.328C66.3067 69.328 67.1227 69.008 67.5867 68.368V66.912C67.1227 66.272 66.3067 65.952 65.4587 65.952C64.3387 65.952 63.5547 66.656 63.5547 67.648C63.5547 68.624 64.3387 69.328 65.4587 69.328ZM78.5492 69.12C79.5092 69.12 80.4532 68.544 80.8532 67.872V64.384C80.4532 63.712 79.5092 63.152 78.5492 63.152C76.9972 63.152 76.0852 64.416 76.0852 66.128C76.0852 67.84 76.9972 69.12 78.5492 69.12ZM78.2612 70.192C76.2292 70.192 74.8212 68.624 74.8212 66.128C74.8212 63.616 76.2292 62.08 78.2612 62.08C79.3492 62.08 80.3092 62.64 80.8532 63.424V62.272H82.0532V72.944H80.8532V68.832C80.2292 69.696 79.3012 70.192 78.2612 70.192ZM90.8894 70H89.6894V68.912C89.0974 69.584 88.0894 70.192 86.9374 70.192C85.3214 70.192 84.4734 69.408 84.4734 67.728V62.272H85.6734V67.36C85.6734 68.72 86.3614 69.12 87.4014 69.12C88.3454 69.12 89.2414 68.576 89.6894 67.952V62.272H90.8894V70ZM96.6619 70.192C94.3099 70.192 92.8379 68.368 92.8379 66.128C92.8379 63.888 94.3099 62.08 96.6619 62.08C99.0139 62.08 100.486 63.888 100.486 66.128C100.486 68.368 99.0139 70.192 96.6619 70.192ZM96.6619 69.12C98.3099 69.12 99.2219 67.712 99.2219 66.128C99.2219 64.56 98.3099 63.152 96.6619 63.152C95.0139 63.152 94.0859 64.56 94.0859 66.128C94.0859 67.712 95.0139 69.12 96.6619 69.12ZM104.394 70.192C103.258 70.192 102.682 69.536 102.682 68.384V63.328H101.402V62.272H102.682V60.16H103.882V62.272H105.45V63.328H103.882V68.128C103.882 68.704 104.138 69.12 104.666 69.12C105.002 69.12 105.322 68.976 105.482 68.8L105.834 69.696C105.53 69.984 105.098 70.192 104.394 70.192ZM110.633 70.192C108.345 70.192 106.697 68.544 106.697 66.128C106.697 63.888 108.297 62.08 110.505 62.08C112.841 62.08 114.217 63.904 114.217 66.224V66.528H107.961C108.057 67.984 109.081 69.2 110.745 69.2C111.625 69.2 112.521 68.848 113.129 68.224L113.705 69.008C112.937 69.776 111.897 70.192 110.633 70.192ZM113.033 65.648C113.017 64.496 112.249 63.072 110.489 63.072C108.841 63.072 108.025 64.464 107.961 65.648H113.033Z" fill="white"/>
<g clip-path="url(#clip0_1_2775)">
<path d="M137.025 71.6833C136.867 71.6833 136.709 71.625 136.584 71.5C136.342 71.2583 136.342 70.8583 136.584 70.6166L141.2 66L136.584 61.3833C136.342 61.1416 136.342 60.7416 136.584 60.5C136.825 60.2583 137.225 60.2583 137.467 60.5L142.525 65.5583C142.767 65.8 142.767 66.2 142.525 66.4416L137.467 71.5C137.342 71.625 137.184 71.6833 137.025 71.6833Z" fill="white"/>
<path d="M141.942 66.625H127.917C127.575 66.625 127.292 66.3417 127.292 66C127.292 65.6583 127.575 65.375 127.917 65.375H141.942C142.284 65.375 142.567 65.6583 142.567 66C142.567 66.3417 142.284 66.625 141.942 66.625Z" fill="white"/>
</g>
<defs>
<clipPath id="clip0_1_2775">
<rect width="20" height="20" fill="white" transform="translate(125 56)"/>
</clipPath>
</defs>
</svg>
