<svg width="210" height="78" viewBox="0 0 210 78" fill="none" xmlns="http://www.w3.org/2000/svg">
<rect width="36" height="36" rx="4" fill="#E9F4FF"/>
<path d="M21 28.75H15C9.57 28.75 7.25 26.43 7.25 21V15C7.25 9.57 9.57 7.25 15 7.25H21C26.43 7.25 28.75 9.57 28.75 15V21C28.75 26.43 26.43 28.75 21 28.75ZM15 8.75C10.39 8.75 8.75 10.39 8.75 15V21C8.75 25.61 10.39 27.25 15 27.25H21C25.61 27.25 27.25 25.61 27.25 21V15C27.25 10.39 25.61 8.75 21 8.75H15Z" fill="#1A2630"/>
<path d="M15.6 21.78C15.41 21.78 15.22 21.71 15.07 21.56L12.58 19.07C11.99 18.48 11.99 17.53 12.58 16.94L15.07 14.45C15.36 14.16 15.84 14.16 16.13 14.45C16.42 14.74 16.42 15.22 16.13 15.51L13.64 18L16.13 20.5C16.42 20.79 16.42 21.27 16.13 21.56C15.98 21.7 15.79 21.78 15.6 21.78Z" fill="#1A2630"/>
<path d="M20.4 21.78C20.21 21.78 20.02 21.71 19.87 21.56C19.58 21.27 19.58 20.79 19.87 20.5L22.36 18L19.87 15.5C19.58 15.21 19.58 14.73 19.87 14.44C20.16 14.15 20.64 14.15 20.93 14.44L23.42 16.93C24.01 17.52 24.01 18.47 23.42 19.06L20.93 21.55C20.79 21.7 20.59 21.78 20.4 21.78Z" fill="#1A2630"/>
<path d="M56.58 24H51.32V10.66H56.58C60.76 10.66 63.66 13.32 63.66 17.34C63.66 21.36 60.76 24 56.58 24ZM56.58 21.5C59.22 21.5 60.76 19.6 60.76 17.34C60.76 14.98 59.32 13.16 56.58 13.16H54.16V21.5H56.58ZM70.1555 24.24C67.2155 24.24 64.9955 22.26 64.9955 19.16C64.9955 16.36 67.0555 14.1 69.9955 14.1C72.8755 14.1 74.8355 16.26 74.8355 19.42V19.98H67.6555C67.8155 21.2 68.7955 22.22 70.4355 22.22C71.2555 22.22 72.3955 21.86 73.0155 21.26L74.1355 22.9C73.1755 23.78 71.6555 24.24 70.1555 24.24ZM72.3755 18.26C72.3155 17.34 71.6755 16.12 69.9955 16.12C68.4155 16.12 67.7355 17.3 67.6155 18.26H72.3755ZM81.9102 24H79.1702L75.2902 14.34H78.0102L80.5302 21.06L83.0502 14.34H85.7902L81.9102 24ZM91.4641 24.24C88.5241 24.24 86.3041 22.26 86.3041 19.16C86.3041 16.36 88.3641 14.1 91.3041 14.1C94.1841 14.1 96.1441 16.26 96.1441 19.42V19.98H88.9641C89.1241 21.2 90.1041 22.22 91.7441 22.22C92.5641 22.22 93.7041 21.86 94.3241 21.26L95.4441 22.9C94.4841 23.78 92.9641 24.24 91.4641 24.24ZM93.6841 18.26C93.6241 17.34 92.9841 16.12 91.3041 16.12C89.7241 16.12 89.0441 17.3 88.9241 18.26H93.6841ZM100.519 24H97.9788V10.66H100.519V24ZM107.517 24.24C104.337 24.24 102.417 21.92 102.417 19.16C102.417 16.42 104.337 14.1 107.517 14.1C110.717 14.1 112.637 16.42 112.637 19.16C112.637 21.92 110.717 24.24 107.517 24.24ZM107.517 21.98C109.097 21.98 109.997 20.68 109.997 19.16C109.997 17.66 109.097 16.36 107.517 16.36C105.937 16.36 105.057 17.66 105.057 19.16C105.057 20.68 105.937 21.98 107.517 21.98ZM120.042 24.24C118.902 24.24 117.842 23.76 117.062 22.76V27.68H114.522V14.34H117.062V15.56C117.802 14.62 118.862 14.1 120.042 14.1C122.522 14.1 124.322 15.94 124.322 19.16C124.322 22.38 122.522 24.24 120.042 24.24ZM119.242 21.98C120.702 21.98 121.682 20.84 121.682 19.16C121.682 17.5 120.702 16.36 119.242 16.36C118.422 16.36 117.482 16.84 117.062 17.46V20.88C117.482 21.48 118.422 21.98 119.242 21.98ZM140.722 24H138.162V17.9C138.162 17 137.762 16.36 136.722 16.36C135.822 16.36 135.082 16.96 134.722 17.48V24H132.162V17.9C132.162 17 131.762 16.36 130.722 16.36C129.842 16.36 129.102 16.96 128.722 17.5V24H126.182V14.34H128.722V15.6C129.122 15.02 130.402 14.1 131.882 14.1C133.302 14.1 134.202 14.76 134.562 15.86C135.122 14.98 136.402 14.1 137.882 14.1C139.662 14.1 140.722 15.04 140.722 17.02V24ZM147.753 24.24C144.813 24.24 142.593 22.26 142.593 19.16C142.593 16.36 144.653 14.1 147.593 14.1C150.473 14.1 152.433 16.26 152.433 19.42V19.98H145.253C145.413 21.2 146.393 22.22 148.033 22.22C148.853 22.22 149.993 21.86 150.613 21.26L151.733 22.9C150.773 23.78 149.253 24.24 147.753 24.24ZM149.973 18.26C149.913 17.34 149.273 16.12 147.593 16.12C146.013 16.12 145.333 17.3 145.213 18.26H149.973ZM163.328 24H160.788V18.16C160.788 16.82 160.088 16.36 159.008 16.36C158.008 16.36 157.228 16.92 156.808 17.5V24H154.268V14.34H156.808V15.6C157.428 14.86 158.608 14.1 160.188 14.1C162.308 14.1 163.328 15.3 163.328 17.18V24ZM169.09 24.24C167.31 24.24 166.35 23.32 166.35 21.6V16.56H164.75V14.34H166.35V11.7H168.91V14.34H170.87V16.56H168.91V20.92C168.91 21.52 169.23 21.98 169.79 21.98C170.17 21.98 170.53 21.84 170.67 21.7L171.21 23.62C170.83 23.96 170.15 24.24 169.09 24.24Z" fill="white"/>
<path d="M9.03106 70H7.46306L4.74306 65.76H2.61506V70H1.28706V59.328H5.57506C7.52706 59.328 8.91906 60.576 8.91906 62.544C8.91906 64.464 7.60706 65.52 6.15106 65.648L9.03106 70ZM5.41506 64.592C6.67906 64.592 7.54306 63.744 7.54306 62.544C7.54306 61.344 6.67906 60.512 5.41506 60.512H2.61506V64.592H5.41506ZM13.9771 70.192C11.6891 70.192 10.0411 68.544 10.0411 66.128C10.0411 63.888 11.6411 62.08 13.8491 62.08C16.1851 62.08 17.5611 63.904 17.5611 66.224V66.528H11.3051C11.4011 67.984 12.4251 69.2 14.0891 69.2C14.9691 69.2 15.8651 68.848 16.4731 68.224L17.0491 69.008C16.2811 69.776 15.2411 70.192 13.9771 70.192ZM16.3771 65.648C16.3611 64.496 15.5931 63.072 13.8331 63.072C12.1851 63.072 11.3691 64.464 11.3051 65.648H16.3771ZM22.7367 69.12C23.6967 69.12 24.6407 68.544 25.0407 67.872V64.384C24.6407 63.712 23.6967 63.152 22.7367 63.152C21.1847 63.152 20.2727 64.416 20.2727 66.128C20.2727 67.84 21.1847 69.12 22.7367 69.12ZM22.4487 70.192C20.4167 70.192 19.0087 68.624 19.0087 66.128C19.0087 63.616 20.4167 62.08 22.4487 62.08C23.5367 62.08 24.4967 62.64 25.0407 63.424V62.272H26.2407V72.944H25.0407V68.832C24.4167 69.696 23.4887 70.192 22.4487 70.192ZM35.0769 70H33.8769V68.912C33.2849 69.584 32.2769 70.192 31.1249 70.192C29.5089 70.192 28.6609 69.408 28.6609 67.728V62.272H29.8609V67.36C29.8609 68.72 30.5489 69.12 31.5889 69.12C32.5329 69.12 33.4289 68.576 33.8769 67.952V62.272H35.0769V70ZM40.9614 70.192C38.6734 70.192 37.0254 68.544 37.0254 66.128C37.0254 63.888 38.6254 62.08 40.8334 62.08C43.1694 62.08 44.5454 63.904 44.5454 66.224V66.528H38.2894C38.3854 67.984 39.4094 69.2 41.0734 69.2C41.9534 69.2 42.8494 68.848 43.4574 68.224L44.0334 69.008C43.2654 69.776 42.2254 70.192 40.9614 70.192ZM43.3614 65.648C43.3454 64.496 42.5774 63.072 40.8174 63.072C39.1694 63.072 38.3534 64.464 38.2894 65.648H43.3614ZM48.9371 70.192C47.6731 70.192 46.6011 69.808 45.8171 68.976L46.4411 68.112C46.9531 68.704 47.9291 69.216 48.9851 69.216C50.1691 69.216 50.8091 68.656 50.8091 67.888C50.8091 66.016 46.0251 67.168 46.0251 64.304C46.0251 63.104 47.0651 62.08 48.9051 62.08C50.2171 62.08 51.1451 62.576 51.7691 63.2L51.2091 64.032C50.7451 63.472 49.8971 63.056 48.9051 63.056C47.8491 63.056 47.1931 63.584 47.1931 64.272C47.1931 65.968 51.9771 64.848 51.9771 67.856C51.9771 69.152 50.9371 70.192 48.9371 70.192ZM55.8786 70.192C54.7426 70.192 54.1666 69.536 54.1666 68.384V63.328H52.8866V62.272H54.1666V60.16H55.3666V62.272H56.9346V63.328H55.3666V68.128C55.3666 68.704 55.6226 69.12 56.1506 69.12C56.4866 69.12 56.8066 68.976 56.9666 68.8L57.3186 69.696C57.0146 69.984 56.5826 70.192 55.8786 70.192ZM68.7867 70H67.5867V69.12C66.9467 69.824 66.0667 70.192 65.0267 70.192C63.7147 70.192 62.3227 69.312 62.3227 67.632C62.3227 65.904 63.7147 65.088 65.0267 65.088C66.0827 65.088 66.9627 65.424 67.5867 66.144V64.752C67.5867 63.712 66.7547 63.12 65.6347 63.12C64.7067 63.12 63.9547 63.456 63.2667 64.192L62.7067 63.36C63.5387 62.496 64.5307 62.08 65.7947 62.08C67.4267 62.08 68.7867 62.816 68.7867 64.688V70ZM65.4587 69.328C66.3067 69.328 67.1227 69.008 67.5867 68.368V66.912C67.1227 66.272 66.3067 65.952 65.4587 65.952C64.3387 65.952 63.5547 66.656 63.5547 67.648C63.5547 68.624 64.3387 69.328 65.4587 69.328ZM78.5492 69.12C79.5092 69.12 80.4532 68.544 80.8532 67.872V64.384C80.4532 63.712 79.5092 63.152 78.5492 63.152C76.9972 63.152 76.0852 64.416 76.0852 66.128C76.0852 67.84 76.9972 69.12 78.5492 69.12ZM78.2612 70.192C76.2292 70.192 74.8212 68.624 74.8212 66.128C74.8212 63.616 76.2292 62.08 78.2612 62.08C79.3492 62.08 80.3092 62.64 80.8532 63.424V62.272H82.0532V72.944H80.8532V68.832C80.2292 69.696 79.3012 70.192 78.2612 70.192ZM90.8894 70H89.6894V68.912C89.0974 69.584 88.0894 70.192 86.9374 70.192C85.3214 70.192 84.4734 69.408 84.4734 67.728V62.272H85.6734V67.36C85.6734 68.72 86.3614 69.12 87.4014 69.12C88.3454 69.12 89.2414 68.576 89.6894 67.952V62.272H90.8894V70ZM96.6619 70.192C94.3099 70.192 92.8379 68.368 92.8379 66.128C92.8379 63.888 94.3099 62.08 96.6619 62.08C99.0139 62.08 100.486 63.888 100.486 66.128C100.486 68.368 99.0139 70.192 96.6619 70.192ZM96.6619 69.12C98.3099 69.12 99.2219 67.712 99.2219 66.128C99.2219 64.56 98.3099 63.152 96.6619 63.152C95.0139 63.152 94.0859 64.56 94.0859 66.128C94.0859 67.712 95.0139 69.12 96.6619 69.12ZM104.394 70.192C103.258 70.192 102.682 69.536 102.682 68.384V63.328H101.402V62.272H102.682V60.16H103.882V62.272H105.45V63.328H103.882V68.128C103.882 68.704 104.138 69.12 104.666 69.12C105.002 69.12 105.322 68.976 105.482 68.8L105.834 69.696C105.53 69.984 105.098 70.192 104.394 70.192ZM110.633 70.192C108.345 70.192 106.697 68.544 106.697 66.128C106.697 63.888 108.297 62.08 110.505 62.08C112.841 62.08 114.217 63.904 114.217 66.224V66.528H107.961C108.057 67.984 109.081 69.2 110.745 69.2C111.625 69.2 112.521 68.848 113.129 68.224L113.705 69.008C112.937 69.776 111.897 70.192 110.633 70.192ZM113.033 65.648C113.017 64.496 112.249 63.072 110.489 63.072C108.841 63.072 108.025 64.464 107.961 65.648H113.033Z" fill="white"/>
<g clip-path="url(#clip0_1_2493)">
<path d="M137.025 71.6833C136.867 71.6833 136.709 71.625 136.584 71.5C136.342 71.2583 136.342 70.8583 136.584 70.6166L141.2 66L136.584 61.3833C136.342 61.1416 136.342 60.7416 136.584 60.5C136.825 60.2583 137.225 60.2583 137.467 60.5L142.525 65.5583C142.767 65.8 142.767 66.2 142.525 66.4416L137.467 71.5C137.342 71.625 137.184 71.6833 137.025 71.6833Z" fill="white"/>
<path d="M141.942 66.625H127.917C127.575 66.625 127.292 66.3417 127.292 66C127.292 65.6583 127.575 65.375 127.917 65.375H141.942C142.284 65.375 142.567 65.6583 142.567 66C142.567 66.3417 142.284 66.625 141.942 66.625Z" fill="white"/>
</g>
<defs>
<clipPath id="clip0_1_2493">
<rect width="20" height="20" fill="white" transform="translate(125 56)"/>
</clipPath>
</defs>
</svg>
