<svg width="36" height="36" viewBox="0 0 36 36" fill="none" xmlns="http://www.w3.org/2000/svg">
<rect width="36" height="36" rx="4" fill="#E9F4FF"/>
<path d="M23.56 23.97H12.44C8.46 23.97 7.25 22.76 7.25 18.78V12.44C7.25 8.46 8.46 7.25 12.44 7.25H23.55C27.53 7.25 28.74 8.46 28.74 12.44V18.77C28.75 22.76 27.54 23.97 23.56 23.97ZM12.44 8.75C9.3 8.75 8.75 9.3 8.75 12.44V18.77C8.75 21.91 9.3 22.46 12.44 22.46H23.55C26.69 22.46 27.24 21.91 27.24 18.77V12.44C27.24 9.3 26.69 8.75 23.55 8.75H12.44Z" fill="#1A2630"/>
<path d="M18 28.75C17.59 28.75 17.25 28.41 17.25 28V23.22C17.25 22.81 17.59 22.47 18 22.47C18.41 22.47 18.75 22.81 18.75 23.22V28C18.75 28.41 18.41 28.75 18 28.75Z" fill="#1A2630"/>
<path d="M28 19.75H8C7.59 19.75 7.25 19.41 7.25 19C7.25 18.59 7.59 18.25 8 18.25H28C28.41 18.25 28.75 18.59 28.75 19C28.75 19.41 28.41 19.75 28 19.75Z" fill="#1A2630"/>
<path d="M22.5 28.75H13.5C13.09 28.75 12.75 28.41 12.75 28C12.75 27.59 13.09 27.25 13.5 27.25H22.5C22.91 27.25 23.25 27.59 23.25 28C23.25 28.41 22.91 28.75 22.5 28.75Z" fill="#1A2630"/>
</svg>
