<svg width="210" height="78" viewBox="0 0 210 78" fill="none" xmlns="http://www.w3.org/2000/svg">
<rect width="36" height="36" rx="4" fill="#E9F4FF"/>
<path d="M24.47 28.75H20.47C18.05 28.75 16.72 27.42 16.72 25V11C16.72 8.58 18.05 7.25 20.47 7.25H24.47C26.89 7.25 28.22 8.58 28.22 11V25C28.22 27.42 26.88 28.75 24.47 28.75ZM20.47 8.75C18.89 8.75 18.22 9.42 18.22 11V25C18.22 26.58 18.89 27.25 20.47 27.25H24.47C26.05 27.25 26.72 26.58 26.72 25V11C26.72 9.42 26.05 8.75 24.47 8.75H20.47Z" fill="#1A2630"/>
<path d="M22.47 12.75H17.47C17.06 12.75 16.72 12.41 16.72 12C16.72 11.59 17.06 11.25 17.47 11.25H22.47C22.88 11.25 23.22 11.59 23.22 12C23.22 12.41 22.88 12.75 22.47 12.75Z" fill="#1A2630"/>
<path d="M21.47 24.75H17.47C17.06 24.75 16.72 24.41 16.72 24C16.72 23.59 17.06 23.25 17.47 23.25H21.47C21.88 23.25 22.22 23.59 22.22 24C22.22 24.41 21.88 24.75 21.47 24.75Z" fill="#1A2630"/>
<path d="M22.47 20.75C22.46 20.75 22.46 20.75 22.47 20.75L17.46 20.7C17.05 20.7 16.71 20.36 16.72 19.94C16.72 19.53 17.06 19.2 17.47 19.2C17.47 19.2 17.47 19.2 17.48 19.2L22.48 19.25C22.89 19.25 23.23 19.59 23.22 20.01C23.21 20.42 22.88 20.75 22.47 20.75Z" fill="#1A2630"/>
<path d="M20.47 16.75H17.47C17.06 16.75 16.72 16.41 16.72 16C16.72 15.59 17.06 15.25 17.47 15.25H20.47C20.88 15.25 21.22 15.59 21.22 16C21.22 16.41 20.88 16.75 20.47 16.75Z" fill="#1A2630"/>
<path d="M11.49 28.72C10.58 28.72 9.72 28.16 9.13 27.18L8.31 25.82C8.01 25.32 7.78 24.5 7.78 23.92V10.95C7.78 8.91 9.44 7.25 11.48 7.25C13.52 7.25 15.18 8.91 15.18 10.95V23.91C15.18 24.49 14.95 25.31 14.65 25.81L13.83 27.17C13.26 28.16 12.4 28.72 11.49 28.72ZM11.49 8.75C10.28 8.75 9.29 9.74 9.29 10.95V23.91C9.29 24.22 9.44 24.77 9.6 25.04L10.42 26.4C10.73 26.92 11.12 27.21 11.49 27.21C11.86 27.21 12.25 26.91 12.56 26.4L13.38 25.04C13.54 24.77 13.69 24.22 13.69 23.91V10.95C13.69 9.74 12.7 8.75 11.49 8.75Z" fill="#1A2630"/>
<path d="M14.44 13.75H8.53C8.12 13.75 7.78 13.41 7.78 13C7.78 12.59 8.12 12.25 8.53 12.25H14.44C14.85 12.25 15.19 12.59 15.19 13C15.19 13.41 14.85 13.75 14.44 13.75Z" fill="#1A2630"/>
<path d="M57.34 24.24C53.28 24.24 51.32 21.96 51.32 18.68V10.66H54.2V18.58C54.2 20.44 55.28 21.72 57.34 21.72C59.4 21.72 60.46 20.44 60.46 18.58V10.66H63.36V18.66C63.36 21.98 61.4 24.24 57.34 24.24ZM67.188 13.3C66.368 13.3 65.668 12.62 65.668 11.78C65.668 10.94 66.368 10.28 67.188 10.28C68.028 10.28 68.708 10.94 68.708 11.78C68.708 12.62 68.028 13.3 67.188 13.3ZM68.468 24H65.928V14.34H68.468V24ZM71.5666 24.4H69.7266L74.4666 10.26H76.3066L71.5666 24.4ZM83.6486 24.24C79.5886 24.24 77.6286 21.96 77.6286 18.68V10.66H80.5086V18.58C80.5086 20.44 81.5886 21.72 83.6486 21.72C85.7086 21.72 86.7686 20.44 86.7686 18.58V10.66H89.6686V18.66C89.6686 21.98 87.7086 24.24 83.6486 24.24ZM101.057 24H98.2166L96.0166 20.74L93.7966 24H90.9766L94.3966 19.04L91.1766 14.34H94.0166L96.0166 17.32L97.9966 14.34H100.837L97.5966 19.04L101.057 24ZM112.752 24H107.492V10.66H112.752C116.932 10.66 119.832 13.32 119.832 17.34C119.832 21.36 116.932 24 112.752 24ZM112.752 21.5C115.392 21.5 116.932 19.6 116.932 17.34C116.932 14.98 115.492 13.16 112.752 13.16H110.332V21.5H112.752ZM126.327 24.24C123.387 24.24 121.167 22.26 121.167 19.16C121.167 16.36 123.227 14.1 126.167 14.1C129.047 14.1 131.007 16.26 131.007 19.42V19.98H123.827C123.987 21.2 124.967 22.22 126.607 22.22C127.427 22.22 128.567 21.86 129.187 21.26L130.307 22.9C129.347 23.78 127.827 24.24 126.327 24.24ZM128.547 18.26C128.487 17.34 127.847 16.12 126.167 16.12C124.587 16.12 123.907 17.3 123.787 18.26H128.547ZM136.322 24.24C134.642 24.24 133.022 23.68 132.002 22.74L133.102 20.96C133.802 21.62 135.242 22.28 136.442 22.28C137.542 22.28 138.062 21.84 138.062 21.24C138.062 19.64 132.322 20.94 132.322 17.14C132.322 15.52 133.742 14.1 136.282 14.1C137.922 14.1 139.222 14.66 140.182 15.42L139.162 17.16C138.582 16.54 137.482 16.04 136.302 16.04C135.382 16.04 134.782 16.46 134.782 17C134.782 18.44 140.502 17.24 140.502 21.14C140.502 22.9 139.002 24.24 136.322 24.24ZM143.633 13.3C142.813 13.3 142.113 12.62 142.113 11.78C142.113 10.94 142.813 10.28 143.633 10.28C144.473 10.28 145.153 10.94 145.153 11.78C145.153 12.62 144.473 13.3 143.633 13.3ZM144.913 24H142.373V14.34H144.913V24ZM151.392 27.92C149.732 27.92 148.452 27.54 147.232 26.48L148.372 24.64C149.152 25.5 150.172 25.84 151.392 25.84C152.612 25.84 154.052 25.3 154.052 23.4V22.42C153.292 23.38 152.252 23.94 151.072 23.94C148.652 23.94 146.812 22.24 146.812 19.02C146.812 15.86 148.632 14.1 151.072 14.1C152.232 14.1 153.272 14.6 154.052 15.58V14.34H156.612V23.34C156.612 27.02 153.772 27.92 151.392 27.92ZM151.872 21.68C152.712 21.68 153.632 21.2 154.052 20.58V17.46C153.632 16.82 152.712 16.36 151.872 16.36C150.432 16.36 149.432 17.36 149.432 19.02C149.432 20.68 150.432 21.68 151.872 21.68ZM168.191 24H165.651V18.16C165.651 16.82 164.951 16.36 163.871 16.36C162.871 16.36 162.091 16.92 161.671 17.5V24H159.131V14.34H161.671V15.6C162.291 14.86 163.471 14.1 165.051 14.1C167.171 14.1 168.191 15.3 168.191 17.18V24Z" fill="white"/>
<path d="M9.03106 70H7.46306L4.74306 65.76H2.61506V70H1.28706V59.328H5.57506C7.52706 59.328 8.91906 60.576 8.91906 62.544C8.91906 64.464 7.60706 65.52 6.15106 65.648L9.03106 70ZM5.41506 64.592C6.67906 64.592 7.54306 63.744 7.54306 62.544C7.54306 61.344 6.67906 60.512 5.41506 60.512H2.61506V64.592H5.41506ZM13.9771 70.192C11.6891 70.192 10.0411 68.544 10.0411 66.128C10.0411 63.888 11.6411 62.08 13.8491 62.08C16.1851 62.08 17.5611 63.904 17.5611 66.224V66.528H11.3051C11.4011 67.984 12.4251 69.2 14.0891 69.2C14.9691 69.2 15.8651 68.848 16.4731 68.224L17.0491 69.008C16.2811 69.776 15.2411 70.192 13.9771 70.192ZM16.3771 65.648C16.3611 64.496 15.5931 63.072 13.8331 63.072C12.1851 63.072 11.3691 64.464 11.3051 65.648H16.3771ZM22.7367 69.12C23.6967 69.12 24.6407 68.544 25.0407 67.872V64.384C24.6407 63.712 23.6967 63.152 22.7367 63.152C21.1847 63.152 20.2727 64.416 20.2727 66.128C20.2727 67.84 21.1847 69.12 22.7367 69.12ZM22.4487 70.192C20.4167 70.192 19.0087 68.624 19.0087 66.128C19.0087 63.616 20.4167 62.08 22.4487 62.08C23.5367 62.08 24.4967 62.64 25.0407 63.424V62.272H26.2407V72.944H25.0407V68.832C24.4167 69.696 23.4887 70.192 22.4487 70.192ZM35.0769 70H33.8769V68.912C33.2849 69.584 32.2769 70.192 31.1249 70.192C29.5089 70.192 28.6609 69.408 28.6609 67.728V62.272H29.8609V67.36C29.8609 68.72 30.5489 69.12 31.5889 69.12C32.5329 69.12 33.4289 68.576 33.8769 67.952V62.272H35.0769V70ZM40.9614 70.192C38.6734 70.192 37.0254 68.544 37.0254 66.128C37.0254 63.888 38.6254 62.08 40.8334 62.08C43.1694 62.08 44.5454 63.904 44.5454 66.224V66.528H38.2894C38.3854 67.984 39.4094 69.2 41.0734 69.2C41.9534 69.2 42.8494 68.848 43.4574 68.224L44.0334 69.008C43.2654 69.776 42.2254 70.192 40.9614 70.192ZM43.3614 65.648C43.3454 64.496 42.5774 63.072 40.8174 63.072C39.1694 63.072 38.3534 64.464 38.2894 65.648H43.3614ZM48.9371 70.192C47.6731 70.192 46.6011 69.808 45.8171 68.976L46.4411 68.112C46.9531 68.704 47.9291 69.216 48.9851 69.216C50.1691 69.216 50.8091 68.656 50.8091 67.888C50.8091 66.016 46.0251 67.168 46.0251 64.304C46.0251 63.104 47.0651 62.08 48.9051 62.08C50.2171 62.08 51.1451 62.576 51.7691 63.2L51.2091 64.032C50.7451 63.472 49.8971 63.056 48.9051 63.056C47.8491 63.056 47.1931 63.584 47.1931 64.272C47.1931 65.968 51.9771 64.848 51.9771 67.856C51.9771 69.152 50.9371 70.192 48.9371 70.192ZM55.8786 70.192C54.7426 70.192 54.1666 69.536 54.1666 68.384V63.328H52.8866V62.272H54.1666V60.16H55.3666V62.272H56.9346V63.328H55.3666V68.128C55.3666 68.704 55.6226 69.12 56.1506 69.12C56.4866 69.12 56.8066 68.976 56.9666 68.8L57.3186 69.696C57.0146 69.984 56.5826 70.192 55.8786 70.192ZM68.7867 70H67.5867V69.12C66.9467 69.824 66.0667 70.192 65.0267 70.192C63.7147 70.192 62.3227 69.312 62.3227 67.632C62.3227 65.904 63.7147 65.088 65.0267 65.088C66.0827 65.088 66.9627 65.424 67.5867 66.144V64.752C67.5867 63.712 66.7547 63.12 65.6347 63.12C64.7067 63.12 63.9547 63.456 63.2667 64.192L62.7067 63.36C63.5387 62.496 64.5307 62.08 65.7947 62.08C67.4267 62.08 68.7867 62.816 68.7867 64.688V70ZM65.4587 69.328C66.3067 69.328 67.1227 69.008 67.5867 68.368V66.912C67.1227 66.272 66.3067 65.952 65.4587 65.952C64.3387 65.952 63.5547 66.656 63.5547 67.648C63.5547 68.624 64.3387 69.328 65.4587 69.328ZM78.5492 69.12C79.5092 69.12 80.4532 68.544 80.8532 67.872V64.384C80.4532 63.712 79.5092 63.152 78.5492 63.152C76.9972 63.152 76.0852 64.416 76.0852 66.128C76.0852 67.84 76.9972 69.12 78.5492 69.12ZM78.2612 70.192C76.2292 70.192 74.8212 68.624 74.8212 66.128C74.8212 63.616 76.2292 62.08 78.2612 62.08C79.3492 62.08 80.3092 62.64 80.8532 63.424V62.272H82.0532V72.944H80.8532V68.832C80.2292 69.696 79.3012 70.192 78.2612 70.192ZM90.8894 70H89.6894V68.912C89.0974 69.584 88.0894 70.192 86.9374 70.192C85.3214 70.192 84.4734 69.408 84.4734 67.728V62.272H85.6734V67.36C85.6734 68.72 86.3614 69.12 87.4014 69.12C88.3454 69.12 89.2414 68.576 89.6894 67.952V62.272H90.8894V70ZM96.6619 70.192C94.3099 70.192 92.8379 68.368 92.8379 66.128C92.8379 63.888 94.3099 62.08 96.6619 62.08C99.0139 62.08 100.486 63.888 100.486 66.128C100.486 68.368 99.0139 70.192 96.6619 70.192ZM96.6619 69.12C98.3099 69.12 99.2219 67.712 99.2219 66.128C99.2219 64.56 98.3099 63.152 96.6619 63.152C95.0139 63.152 94.0859 64.56 94.0859 66.128C94.0859 67.712 95.0139 69.12 96.6619 69.12ZM104.394 70.192C103.258 70.192 102.682 69.536 102.682 68.384V63.328H101.402V62.272H102.682V60.16H103.882V62.272H105.45V63.328H103.882V68.128C103.882 68.704 104.138 69.12 104.666 69.12C105.002 69.12 105.322 68.976 105.482 68.8L105.834 69.696C105.53 69.984 105.098 70.192 104.394 70.192ZM110.633 70.192C108.345 70.192 106.697 68.544 106.697 66.128C106.697 63.888 108.297 62.08 110.505 62.08C112.841 62.08 114.217 63.904 114.217 66.224V66.528H107.961C108.057 67.984 109.081 69.2 110.745 69.2C111.625 69.2 112.521 68.848 113.129 68.224L113.705 69.008C112.937 69.776 111.897 70.192 110.633 70.192ZM113.033 65.648C113.017 64.496 112.249 63.072 110.489 63.072C108.841 63.072 108.025 64.464 107.961 65.648H113.033Z" fill="white"/>
<g clip-path="url(#clip0_1_2221)">
<path d="M137.025 71.6833C136.867 71.6833 136.709 71.625 136.584 71.5C136.342 71.2583 136.342 70.8583 136.584 70.6166L141.2 66L136.584 61.3833C136.342 61.1416 136.342 60.7416 136.584 60.5C136.825 60.2583 137.225 60.2583 137.467 60.5L142.525 65.5583C142.767 65.8 142.767 66.2 142.525 66.4416L137.467 71.5C137.342 71.625 137.184 71.6833 137.025 71.6833Z" fill="white"/>
<path d="M141.942 66.625H127.917C127.575 66.625 127.292 66.3417 127.292 66C127.292 65.6583 127.575 65.375 127.917 65.375H141.942C142.284 65.375 142.567 65.6583 142.567 66C142.567 66.3417 142.284 66.625 141.942 66.625Z" fill="white"/>
</g>
<defs>
<clipPath id="clip0_1_2221">
<rect width="20" height="20" fill="white" transform="translate(125 56)"/>
</clipPath>
</defs>
</svg>
