<svg width="210" height="36" viewBox="0 0 210 36" fill="none" xmlns="http://www.w3.org/2000/svg">
<rect width="36" height="36" rx="4" fill="#E9F4FF"/>
<path d="M11.9998 28.75C11.6998 28.75 11.3798 28.72 11.0598 28.66C10.8898 28.62 10.7398 28.58 10.5898 28.54C10.4198 28.49 10.2597 28.43 10.1097 28.37C10.0697 28.36 10.0398 28.34 10.0098 28.33C9.65977 28.15 9.35975 27.97 9.08975 27.77C9.06975 27.76 9.05976 27.74 9.03976 27.73C8.88976 27.61 8.74975 27.49 8.61975 27.35C8.47975 27.2 8.37974 27.08 8.26974 26.96C8.03974 26.66 7.84975 26.36 7.67975 26.01C7.65975 25.98 7.64977 25.94 7.63977 25.9C7.57977 25.76 7.52975 25.62 7.48975 25.47C7.42975 25.26 7.38974 25.12 7.35974 24.97C7.28974 24.62 7.25977 24.31 7.25977 24.01V10.51C7.25977 8.60001 8.59977 7.26001 10.5098 7.26001H13.5098C15.4198 7.26001 16.7598 8.60001 16.7598 10.51V24C16.7598 25.24 16.2798 26.42 15.4098 27.31C15.2498 27.47 15.1297 27.58 15.0197 27.67C14.6997 27.95 14.2898 28.2 13.8498 28.38C13.7498 28.42 13.6298 28.47 13.4998 28.52C13.0098 28.67 12.4998 28.75 11.9998 28.75ZM10.7397 27C10.8397 27.04 10.9398 27.07 11.0398 27.1C11.1498 27.13 11.2598 27.16 11.3698 27.19C11.9198 27.29 12.5098 27.26 12.9798 27.1C13.0498 27.07 13.1497 27.04 13.2397 27C13.5597 26.87 13.8197 26.71 14.0497 26.52C14.1497 26.44 14.2198 26.37 14.2898 26.31C14.9198 25.66 15.2498 24.86 15.2498 24.01V10.51C15.2498 9.43001 14.5798 8.76001 13.4998 8.76001H10.4998C9.41976 8.76001 8.74976 9.43001 8.74976 10.51V24C8.74976 24.21 8.76976 24.43 8.81976 24.66C8.83976 24.75 8.86975 24.86 8.89975 24.98C8.93975 25.09 8.96977 25.18 9.00977 25.28C9.02977 25.31 9.03974 25.34 9.04974 25.36C9.05974 25.38 9.06974 25.41 9.07974 25.43C9.19974 25.65 9.31977 25.84 9.44977 26.01C9.51977 26.09 9.60977 26.19 9.69977 26.29C9.80977 26.41 9.89976 26.48 9.99976 26.56C10.0098 26.57 10.0298 26.58 10.0398 26.59C10.1998 26.71 10.3798 26.82 10.5898 26.93C10.6098 26.94 10.6297 26.94 10.6497 26.95C10.6697 26.96 10.6997 26.98 10.7397 27Z" fill="#1A2630"/>
<path d="M25.5 28.75H12C11.59 28.75 11.25 28.41 11.25 28C11.25 27.59 11.59 27.25 12 27.25C12.35 27.25 12.69 27.2 12.98 27.1C13.05 27.07 13.15 27.04 13.24 27C13.56 26.87 13.82 26.71 14.05 26.52C14.15 26.44 14.22 26.37 14.29 26.31L21.13 19.48C21.27 19.34 21.46 19.26 21.66 19.26H25.5C27.41 19.26 28.75 20.6 28.75 22.51V25.51C28.75 27.41 27.41 28.75 25.5 28.75ZM15.46 27.25H25.5C26.58 27.25 27.25 26.58 27.25 25.5V22.5C27.25 21.42 26.58 20.75 25.5 20.75H21.97L15.46 27.25Z" fill="#1A2630"/>
<path d="M10.8102 28.57C10.7402 28.57 10.6702 28.56 10.6002 28.54C9.86021 28.32 9.18022 27.91 8.64022 27.36C8.10022 26.83 7.6902 26.15 7.4702 25.41C7.3502 25.01 7.5702 24.6 7.9702 24.48C8.3702 24.36 8.78021 24.58 8.91021 24.97C9.23021 25.99 10.0302 26.79 11.0502 27.11C11.4402 27.23 11.6602 27.65 11.5402 28.05C11.4302 28.36 11.1302 28.57 10.8102 28.57Z" fill="#1A2630"/>
<path d="M14.86 27.54C14.67 27.54 14.48 27.47 14.33 27.32C14.04 27.03 14.03 26.56 14.32 26.26C14.92 25.65 15.25 24.84 15.25 23.99V14.33C15.25 14.13 15.33 13.94 15.47 13.8L18.18 11.09C19.49 9.77998 21.47 9.77998 22.78 11.09L24.9 13.21C26.25 14.56 26.25 16.46 24.9 17.81L15.39 27.31C15.24 27.47 15.05 27.54 14.86 27.54ZM16.75 14.65V23.84L23.84 16.76C24.6 16 24.6 15.05 23.84 14.28L21.72 12.16C20.97 11.41 19.99 11.41 19.24 12.16L16.75 14.65Z" fill="#1A2630"/>
<path d="M12 25.75C11.04 25.75 10.25 24.96 10.25 24C10.25 23.04 11.04 22.25 12 22.25C12.96 22.25 13.75 23.04 13.75 24C13.75 24.96 12.96 25.75 12 25.75ZM12 23.75C11.86 23.75 11.75 23.86 11.75 24C11.75 24.28 12.25 24.28 12.25 24C12.25 23.86 12.14 23.75 12 23.75Z" fill="#1A2630"/>
<path d="M54.16 24H51.32V10.66H57.56C60.46 10.66 62.04 12.62 62.04 14.96C62.04 17.28 60.44 19.26 57.56 19.26H54.16V24ZM57.18 16.76C58.3 16.76 59.14 16.06 59.14 14.96C59.14 13.84 58.3 13.16 57.18 13.16H54.16V16.76H57.18ZM66.2805 24H63.7405V14.34H66.2805V15.66C66.9605 14.8 68.1605 14.1 69.3605 14.1V16.58C69.1805 16.54 68.9405 16.52 68.6605 16.52C67.8205 16.52 66.7005 17 66.2805 17.62V24ZM72.2075 13.3C71.3875 13.3 70.6875 12.62 70.6875 11.78C70.6875 10.94 71.3875 10.28 72.2075 10.28C73.0475 10.28 73.7275 10.94 73.7275 11.78C73.7275 12.62 73.0475 13.3 72.2075 13.3ZM73.4875 24H70.9475V14.34H73.4875V24ZM85.0661 24H82.5261V18.16C82.5261 16.82 81.8261 16.36 80.7461 16.36C79.7461 16.36 78.9661 16.92 78.5461 17.5V24H76.0061V14.34H78.5461V15.6C79.1661 14.86 80.3461 14.1 81.9261 14.1C84.0461 14.1 85.0661 15.3 85.0661 17.18V24ZM90.8281 24.24C89.0481 24.24 88.0881 23.32 88.0881 21.6V16.56H86.4881V14.34H88.0881V11.7H90.6481V14.34H92.6081V16.56H90.6481V20.92C90.6481 21.52 90.9681 21.98 91.5281 21.98C91.9081 21.98 92.2681 21.84 92.4081 21.7L92.9481 23.62C92.5681 23.96 91.8881 24.24 90.8281 24.24ZM104.783 24H99.5231V10.66H104.783C108.963 10.66 111.863 13.32 111.863 17.34C111.863 21.36 108.963 24 104.783 24ZM104.783 21.5C107.423 21.5 108.963 19.6 108.963 17.34C108.963 14.98 107.523 13.16 104.783 13.16H102.363V21.5H104.783ZM118.359 24.24C115.419 24.24 113.199 22.26 113.199 19.16C113.199 16.36 115.259 14.1 118.199 14.1C121.079 14.1 123.039 16.26 123.039 19.42V19.98H115.859C116.019 21.2 116.999 22.22 118.639 22.22C119.459 22.22 120.599 21.86 121.219 21.26L122.339 22.9C121.379 23.78 119.859 24.24 118.359 24.24ZM120.579 18.26C120.519 17.34 119.879 16.12 118.199 16.12C116.619 16.12 115.939 17.3 115.819 18.26H120.579ZM128.353 24.24C126.673 24.24 125.053 23.68 124.033 22.74L125.133 20.96C125.833 21.62 127.273 22.28 128.473 22.28C129.573 22.28 130.093 21.84 130.093 21.24C130.093 19.64 124.353 20.94 124.353 17.14C124.353 15.52 125.773 14.1 128.313 14.1C129.953 14.1 131.253 14.66 132.213 15.42L131.193 17.16C130.613 16.54 129.513 16.04 128.333 16.04C127.413 16.04 126.813 16.46 126.813 17C126.813 18.44 132.533 17.24 132.533 21.14C132.533 22.9 131.033 24.24 128.353 24.24ZM135.665 13.3C134.845 13.3 134.145 12.62 134.145 11.78C134.145 10.94 134.845 10.28 135.665 10.28C136.505 10.28 137.185 10.94 137.185 11.78C137.185 12.62 136.505 13.3 135.665 13.3ZM136.945 24H134.405V14.34H136.945V24ZM143.423 27.92C141.763 27.92 140.483 27.54 139.263 26.48L140.403 24.64C141.183 25.5 142.203 25.84 143.423 25.84C144.643 25.84 146.083 25.3 146.083 23.4V22.42C145.323 23.38 144.283 23.94 143.103 23.94C140.683 23.94 138.843 22.24 138.843 19.02C138.843 15.86 140.663 14.1 143.103 14.1C144.263 14.1 145.303 14.6 146.083 15.58V14.34H148.643V23.34C148.643 27.02 145.803 27.92 143.423 27.92ZM143.903 21.68C144.743 21.68 145.663 21.2 146.083 20.58V17.46C145.663 16.82 144.743 16.36 143.903 16.36C142.463 16.36 141.463 17.36 141.463 19.02C141.463 20.68 142.463 21.68 143.903 21.68ZM160.222 24H157.682V18.16C157.682 16.82 156.982 16.36 155.902 16.36C154.902 16.36 154.122 16.92 153.702 17.5V24H151.162V14.34H153.702V15.6C154.322 14.86 155.502 14.1 157.082 14.1C159.202 14.1 160.222 15.3 160.222 17.18V24Z" fill="white"/>
</svg>
