<svg width="210" height="78" viewBox="0 0 210 78" fill="none" xmlns="http://www.w3.org/2000/svg">
<rect width="36" height="36" rx="4" fill="#E9F4FF"/>
<path d="M21 28.75H15C9.57 28.75 7.25 26.43 7.25 21V15C7.25 9.57 9.57 7.25 15 7.25H20C20.41 7.25 20.75 7.59 20.75 8C20.75 8.41 20.41 8.75 20 8.75H15C10.39 8.75 8.75 10.39 8.75 15V21C8.75 25.61 10.39 27.25 15 27.25H21C25.61 27.25 27.25 25.61 27.25 21V16C27.25 15.59 27.59 15.25 28 15.25C28.41 15.25 28.75 15.59 28.75 16V21C28.75 26.43 26.43 28.75 21 28.75Z" fill="#1A2630"/>
<path d="M28 16.75H24C20.58 16.75 19.25 15.42 19.25 12V7.99999C19.25 7.69999 19.43 7.41999 19.71 7.30999C19.99 7.18999 20.31 7.25999 20.53 7.46999L28.53 15.47C28.74 15.68 28.81 16.01 28.69 16.29C28.57 16.57 28.3 16.75 28 16.75ZM20.75 9.80999V12C20.75 14.58 21.42 15.25 24 15.25H26.19L20.75 9.80999Z" fill="#1A2630"/>
<path d="M19 19.75H13C12.59 19.75 12.25 19.41 12.25 19C12.25 18.59 12.59 18.25 13 18.25H19C19.41 18.25 19.75 18.59 19.75 19C19.75 19.41 19.41 19.75 19 19.75Z" fill="#1A2630"/>
<path d="M17 23.75H13C12.59 23.75 12.25 23.41 12.25 23C12.25 22.59 12.59 22.25 13 22.25H17C17.41 22.25 17.75 22.59 17.75 23C17.75 23.41 17.41 23.75 17 23.75Z" fill="#1A2630"/>
<path d="M57.78 24.24C53.78 24.24 50.68 21.44 50.68 17.34C50.68 13.24 53.78 10.44 57.78 10.44C60.72 10.44 62.42 12.04 63.36 13.7L60.92 14.9C60.36 13.82 59.16 12.96 57.78 12.96C55.36 12.96 53.6 14.82 53.6 17.34C53.6 19.86 55.36 21.72 57.78 21.72C59.16 21.72 60.36 20.88 60.92 19.78L63.36 20.96C62.4 22.62 60.72 24.24 57.78 24.24ZM69.4705 24.24C66.2905 24.24 64.3705 21.92 64.3705 19.16C64.3705 16.42 66.2905 14.1 69.4705 14.1C72.6705 14.1 74.5905 16.42 74.5905 19.16C74.5905 21.92 72.6705 24.24 69.4705 24.24ZM69.4705 21.98C71.0505 21.98 71.9505 20.68 71.9505 19.16C71.9505 17.66 71.0505 16.36 69.4705 16.36C67.8905 16.36 67.0105 17.66 67.0105 19.16C67.0105 20.68 67.8905 21.98 69.4705 21.98ZM85.5348 24H82.9948V18.16C82.9948 16.82 82.2948 16.36 81.2148 16.36C80.2148 16.36 79.4348 16.92 79.0148 17.5V24H76.4748V14.34H79.0148V15.6C79.6348 14.86 80.8148 14.1 82.3948 14.1C84.5148 14.1 85.5348 15.3 85.5348 17.18V24ZM91.2969 24.24C89.5169 24.24 88.5569 23.32 88.5569 21.6V16.56H86.9569V14.34H88.5569V11.7H91.1169V14.34H93.0769V16.56H91.1169V20.92C91.1169 21.52 91.4369 21.98 91.9969 21.98C92.3769 21.98 92.7369 21.84 92.8769 21.7L93.4169 23.62C93.0369 23.96 92.3569 24.24 91.2969 24.24ZM99.3547 24.24C96.4147 24.24 94.1947 22.26 94.1947 19.16C94.1947 16.36 96.2547 14.1 99.1947 14.1C102.075 14.1 104.035 16.26 104.035 19.42V19.98H96.8547C97.0147 21.2 97.9947 22.22 99.6347 22.22C100.455 22.22 101.595 21.86 102.215 21.26L103.335 22.9C102.375 23.78 100.855 24.24 99.3547 24.24ZM101.575 18.26C101.515 17.34 100.875 16.12 99.1947 16.12C97.6147 16.12 96.9347 17.3 96.8147 18.26H101.575ZM114.929 24H112.389V18.16C112.389 16.82 111.689 16.36 110.609 16.36C109.609 16.36 108.829 16.92 108.409 17.5V24H105.869V14.34H108.409V15.6C109.029 14.86 110.209 14.1 111.789 14.1C113.909 14.1 114.929 15.3 114.929 17.18V24ZM120.691 24.24C118.911 24.24 117.951 23.32 117.951 21.6V16.56H116.351V14.34H117.951V11.7H120.511V14.34H122.471V16.56H120.511V20.92C120.511 21.52 120.831 21.98 121.391 21.98C121.771 21.98 122.131 21.84 122.271 21.7L122.811 23.62C122.431 23.96 121.751 24.24 120.691 24.24ZM142.606 24H139.586L137.246 14.84L134.926 24H131.906L128.086 10.66H131.266L133.606 20.3L136.146 10.66H138.366L140.886 20.3L143.206 10.66H146.406L142.606 24ZM149.62 24H147.08V14.34H149.62V15.66C150.3 14.8 151.5 14.1 152.7 14.1V16.58C152.52 16.54 152.28 16.52 152 16.52C151.16 16.52 150.04 17 149.62 17.62V24ZM155.547 13.3C154.727 13.3 154.027 12.62 154.027 11.78C154.027 10.94 154.727 10.28 155.547 10.28C156.387 10.28 157.067 10.94 157.067 11.78C157.067 12.62 156.387 13.3 155.547 13.3ZM156.827 24H154.287V14.34H156.827V24ZM162.586 24.24C160.806 24.24 159.846 23.32 159.846 21.6V16.56H158.246V14.34H159.846V11.7H162.406V14.34H164.366V16.56H162.406V20.92C162.406 21.52 162.726 21.98 163.286 21.98C163.666 21.98 164.026 21.84 164.166 21.7L164.706 23.62C164.326 23.96 163.646 24.24 162.586 24.24ZM167.364 13.3C166.544 13.3 165.844 12.62 165.844 11.78C165.844 10.94 166.544 10.28 167.364 10.28C168.204 10.28 168.884 10.94 168.884 11.78C168.884 12.62 168.204 13.3 167.364 13.3ZM168.644 24H166.104V14.34H168.644V24ZM180.222 24H177.682V18.16C177.682 16.82 176.982 16.36 175.902 16.36C174.902 16.36 174.122 16.92 173.702 17.5V24H171.162V14.34H173.702V15.6C174.322 14.86 175.502 14.1 177.082 14.1C179.202 14.1 180.222 15.3 180.222 17.18V24ZM186.704 27.92C185.044 27.92 183.764 27.54 182.544 26.48L183.684 24.64C184.464 25.5 185.484 25.84 186.704 25.84C187.924 25.84 189.364 25.3 189.364 23.4V22.42C188.604 23.38 187.564 23.94 186.384 23.94C183.964 23.94 182.124 22.24 182.124 19.02C182.124 15.86 183.944 14.1 186.384 14.1C187.544 14.1 188.584 14.6 189.364 15.58V14.34H191.924V23.34C191.924 27.02 189.084 27.92 186.704 27.92ZM187.184 21.68C188.024 21.68 188.944 21.2 189.364 20.58V17.46C188.944 16.82 188.024 16.36 187.184 16.36C185.744 16.36 184.744 17.36 184.744 19.02C184.744 20.68 185.744 21.68 187.184 21.68Z" fill="white"/>
<path d="M9.03106 70H7.46306L4.74306 65.76H2.61506V70H1.28706V59.328H5.57506C7.52706 59.328 8.91906 60.576 8.91906 62.544C8.91906 64.464 7.60706 65.52 6.15106 65.648L9.03106 70ZM5.41506 64.592C6.67906 64.592 7.54306 63.744 7.54306 62.544C7.54306 61.344 6.67906 60.512 5.41506 60.512H2.61506V64.592H5.41506ZM13.9771 70.192C11.6891 70.192 10.0411 68.544 10.0411 66.128C10.0411 63.888 11.6411 62.08 13.8491 62.08C16.1851 62.08 17.5611 63.904 17.5611 66.224V66.528H11.3051C11.4011 67.984 12.4251 69.2 14.0891 69.2C14.9691 69.2 15.8651 68.848 16.4731 68.224L17.0491 69.008C16.2811 69.776 15.2411 70.192 13.9771 70.192ZM16.3771 65.648C16.3611 64.496 15.5931 63.072 13.8331 63.072C12.1851 63.072 11.3691 64.464 11.3051 65.648H16.3771ZM22.7367 69.12C23.6967 69.12 24.6407 68.544 25.0407 67.872V64.384C24.6407 63.712 23.6967 63.152 22.7367 63.152C21.1847 63.152 20.2727 64.416 20.2727 66.128C20.2727 67.84 21.1847 69.12 22.7367 69.12ZM22.4487 70.192C20.4167 70.192 19.0087 68.624 19.0087 66.128C19.0087 63.616 20.4167 62.08 22.4487 62.08C23.5367 62.08 24.4967 62.64 25.0407 63.424V62.272H26.2407V72.944H25.0407V68.832C24.4167 69.696 23.4887 70.192 22.4487 70.192ZM35.0769 70H33.8769V68.912C33.2849 69.584 32.2769 70.192 31.1249 70.192C29.5089 70.192 28.6609 69.408 28.6609 67.728V62.272H29.8609V67.36C29.8609 68.72 30.5489 69.12 31.5889 69.12C32.5329 69.12 33.4289 68.576 33.8769 67.952V62.272H35.0769V70ZM40.9614 70.192C38.6734 70.192 37.0254 68.544 37.0254 66.128C37.0254 63.888 38.6254 62.08 40.8334 62.08C43.1694 62.08 44.5454 63.904 44.5454 66.224V66.528H38.2894C38.3854 67.984 39.4094 69.2 41.0734 69.2C41.9534 69.2 42.8494 68.848 43.4574 68.224L44.0334 69.008C43.2654 69.776 42.2254 70.192 40.9614 70.192ZM43.3614 65.648C43.3454 64.496 42.5774 63.072 40.8174 63.072C39.1694 63.072 38.3534 64.464 38.2894 65.648H43.3614ZM48.9371 70.192C47.6731 70.192 46.6011 69.808 45.8171 68.976L46.4411 68.112C46.9531 68.704 47.9291 69.216 48.9851 69.216C50.1691 69.216 50.8091 68.656 50.8091 67.888C50.8091 66.016 46.0251 67.168 46.0251 64.304C46.0251 63.104 47.0651 62.08 48.9051 62.08C50.2171 62.08 51.1451 62.576 51.7691 63.2L51.2091 64.032C50.7451 63.472 49.8971 63.056 48.9051 63.056C47.8491 63.056 47.1931 63.584 47.1931 64.272C47.1931 65.968 51.9771 64.848 51.9771 67.856C51.9771 69.152 50.9371 70.192 48.9371 70.192ZM55.8786 70.192C54.7426 70.192 54.1666 69.536 54.1666 68.384V63.328H52.8866V62.272H54.1666V60.16H55.3666V62.272H56.9346V63.328H55.3666V68.128C55.3666 68.704 55.6226 69.12 56.1506 69.12C56.4866 69.12 56.8066 68.976 56.9666 68.8L57.3186 69.696C57.0146 69.984 56.5826 70.192 55.8786 70.192ZM68.7867 70H67.5867V69.12C66.9467 69.824 66.0667 70.192 65.0267 70.192C63.7147 70.192 62.3227 69.312 62.3227 67.632C62.3227 65.904 63.7147 65.088 65.0267 65.088C66.0827 65.088 66.9627 65.424 67.5867 66.144V64.752C67.5867 63.712 66.7547 63.12 65.6347 63.12C64.7067 63.12 63.9547 63.456 63.2667 64.192L62.7067 63.36C63.5387 62.496 64.5307 62.08 65.7947 62.08C67.4267 62.08 68.7867 62.816 68.7867 64.688V70ZM65.4587 69.328C66.3067 69.328 67.1227 69.008 67.5867 68.368V66.912C67.1227 66.272 66.3067 65.952 65.4587 65.952C64.3387 65.952 63.5547 66.656 63.5547 67.648C63.5547 68.624 64.3387 69.328 65.4587 69.328ZM78.5492 69.12C79.5092 69.12 80.4532 68.544 80.8532 67.872V64.384C80.4532 63.712 79.5092 63.152 78.5492 63.152C76.9972 63.152 76.0852 64.416 76.0852 66.128C76.0852 67.84 76.9972 69.12 78.5492 69.12ZM78.2612 70.192C76.2292 70.192 74.8212 68.624 74.8212 66.128C74.8212 63.616 76.2292 62.08 78.2612 62.08C79.3492 62.08 80.3092 62.64 80.8532 63.424V62.272H82.0532V72.944H80.8532V68.832C80.2292 69.696 79.3012 70.192 78.2612 70.192ZM90.8894 70H89.6894V68.912C89.0974 69.584 88.0894 70.192 86.9374 70.192C85.3214 70.192 84.4734 69.408 84.4734 67.728V62.272H85.6734V67.36C85.6734 68.72 86.3614 69.12 87.4014 69.12C88.3454 69.12 89.2414 68.576 89.6894 67.952V62.272H90.8894V70ZM96.6619 70.192C94.3099 70.192 92.8379 68.368 92.8379 66.128C92.8379 63.888 94.3099 62.08 96.6619 62.08C99.0139 62.08 100.486 63.888 100.486 66.128C100.486 68.368 99.0139 70.192 96.6619 70.192ZM96.6619 69.12C98.3099 69.12 99.2219 67.712 99.2219 66.128C99.2219 64.56 98.3099 63.152 96.6619 63.152C95.0139 63.152 94.0859 64.56 94.0859 66.128C94.0859 67.712 95.0139 69.12 96.6619 69.12ZM104.394 70.192C103.258 70.192 102.682 69.536 102.682 68.384V63.328H101.402V62.272H102.682V60.16H103.882V62.272H105.45V63.328H103.882V68.128C103.882 68.704 104.138 69.12 104.666 69.12C105.002 69.12 105.322 68.976 105.482 68.8L105.834 69.696C105.53 69.984 105.098 70.192 104.394 70.192ZM110.633 70.192C108.345 70.192 106.697 68.544 106.697 66.128C106.697 63.888 108.297 62.08 110.505 62.08C112.841 62.08 114.217 63.904 114.217 66.224V66.528H107.961C108.057 67.984 109.081 69.2 110.745 69.2C111.625 69.2 112.521 68.848 113.129 68.224L113.705 69.008C112.937 69.776 111.897 70.192 110.633 70.192ZM113.033 65.648C113.017 64.496 112.249 63.072 110.489 63.072C108.841 63.072 108.025 64.464 107.961 65.648H113.033Z" fill="white"/>
<g clip-path="url(#clip0_1_2630)">
<path d="M137.025 71.6833C136.867 71.6833 136.709 71.625 136.584 71.5C136.342 71.2583 136.342 70.8583 136.584 70.6166L141.2 66L136.584 61.3833C136.342 61.1416 136.342 60.7416 136.584 60.5C136.825 60.2583 137.225 60.2583 137.467 60.5L142.525 65.5583C142.767 65.8 142.767 66.2 142.525 66.4416L137.467 71.5C137.342 71.625 137.184 71.6833 137.025 71.6833Z" fill="white"/>
<path d="M141.942 66.625H127.917C127.575 66.625 127.292 66.3417 127.292 66C127.292 65.6583 127.575 65.375 127.917 65.375H141.942C142.284 65.375 142.567 65.6583 142.567 66C142.567 66.3417 142.284 66.625 141.942 66.625Z" fill="white"/>
</g>
<defs>
<clipPath id="clip0_1_2630">
<rect width="20" height="20" fill="white" transform="translate(125 56)"/>
</clipPath>
</defs>
</svg>
