<svg width="210" height="36" viewBox="0 0 210 36" fill="none" xmlns="http://www.w3.org/2000/svg">
<rect width="36" height="36" rx="4" fill="#E9F4FF"/>
<path d="M21 28.75H15C9.57 28.75 7.25 26.43 7.25 21V15C7.25 9.57 9.57 7.25 15 7.25H21C26.43 7.25 28.75 9.57 28.75 15V21C28.75 26.43 26.43 28.75 21 28.75ZM15 8.75C10.39 8.75 8.75 10.39 8.75 15V21C8.75 25.61 10.39 27.25 15 27.25H21C25.61 27.25 27.25 25.61 27.25 21V15C27.25 10.39 25.61 8.75 21 8.75H15Z" fill="#1A2630"/>
<path d="M15.6 21.78C15.41 21.78 15.22 21.71 15.07 21.56L12.58 19.07C11.99 18.48 11.99 17.53 12.58 16.94L15.07 14.45C15.36 14.16 15.84 14.16 16.13 14.45C16.42 14.74 16.42 15.22 16.13 15.51L13.64 18L16.13 20.5C16.42 20.79 16.42 21.27 16.13 21.56C15.98 21.7 15.79 21.78 15.6 21.78Z" fill="#1A2630"/>
<path d="M20.4 21.78C20.21 21.78 20.02 21.71 19.87 21.56C19.58 21.27 19.58 20.79 19.87 20.5L22.36 18L19.87 15.5C19.58 15.21 19.58 14.73 19.87 14.44C20.16 14.15 20.64 14.15 20.93 14.44L23.42 16.93C24.01 17.52 24.01 18.47 23.42 19.06L20.93 21.55C20.79 21.7 20.59 21.78 20.4 21.78Z" fill="#1A2630"/>
<path d="M56.58 24H51.32V10.66H56.58C60.76 10.66 63.66 13.32 63.66 17.34C63.66 21.36 60.76 24 56.58 24ZM56.58 21.5C59.22 21.5 60.76 19.6 60.76 17.34C60.76 14.98 59.32 13.16 56.58 13.16H54.16V21.5H56.58ZM70.1555 24.24C67.2155 24.24 64.9955 22.26 64.9955 19.16C64.9955 16.36 67.0555 14.1 69.9955 14.1C72.8755 14.1 74.8355 16.26 74.8355 19.42V19.98H67.6555C67.8155 21.2 68.7955 22.22 70.4355 22.22C71.2555 22.22 72.3955 21.86 73.0155 21.26L74.1355 22.9C73.1755 23.78 71.6555 24.24 70.1555 24.24ZM72.3755 18.26C72.3155 17.34 71.6755 16.12 69.9955 16.12C68.4155 16.12 67.7355 17.3 67.6155 18.26H72.3755ZM81.9102 24H79.1702L75.2902 14.34H78.0102L80.5302 21.06L83.0502 14.34H85.7902L81.9102 24ZM91.4641 24.24C88.5241 24.24 86.3041 22.26 86.3041 19.16C86.3041 16.36 88.3641 14.1 91.3041 14.1C94.1841 14.1 96.1441 16.26 96.1441 19.42V19.98H88.9641C89.1241 21.2 90.1041 22.22 91.7441 22.22C92.5641 22.22 93.7041 21.86 94.3241 21.26L95.4441 22.9C94.4841 23.78 92.9641 24.24 91.4641 24.24ZM93.6841 18.26C93.6241 17.34 92.9841 16.12 91.3041 16.12C89.7241 16.12 89.0441 17.3 88.9241 18.26H93.6841ZM100.519 24H97.9788V10.66H100.519V24ZM107.517 24.24C104.337 24.24 102.417 21.92 102.417 19.16C102.417 16.42 104.337 14.1 107.517 14.1C110.717 14.1 112.637 16.42 112.637 19.16C112.637 21.92 110.717 24.24 107.517 24.24ZM107.517 21.98C109.097 21.98 109.997 20.68 109.997 19.16C109.997 17.66 109.097 16.36 107.517 16.36C105.937 16.36 105.057 17.66 105.057 19.16C105.057 20.68 105.937 21.98 107.517 21.98ZM120.042 24.24C118.902 24.24 117.842 23.76 117.062 22.76V27.68H114.522V14.34H117.062V15.56C117.802 14.62 118.862 14.1 120.042 14.1C122.522 14.1 124.322 15.94 124.322 19.16C124.322 22.38 122.522 24.24 120.042 24.24ZM119.242 21.98C120.702 21.98 121.682 20.84 121.682 19.16C121.682 17.5 120.702 16.36 119.242 16.36C118.422 16.36 117.482 16.84 117.062 17.46V20.88C117.482 21.48 118.422 21.98 119.242 21.98ZM140.722 24H138.162V17.9C138.162 17 137.762 16.36 136.722 16.36C135.822 16.36 135.082 16.96 134.722 17.48V24H132.162V17.9C132.162 17 131.762 16.36 130.722 16.36C129.842 16.36 129.102 16.96 128.722 17.5V24H126.182V14.34H128.722V15.6C129.122 15.02 130.402 14.1 131.882 14.1C133.302 14.1 134.202 14.76 134.562 15.86C135.122 14.98 136.402 14.1 137.882 14.1C139.662 14.1 140.722 15.04 140.722 17.02V24ZM147.753 24.24C144.813 24.24 142.593 22.26 142.593 19.16C142.593 16.36 144.653 14.1 147.593 14.1C150.473 14.1 152.433 16.26 152.433 19.42V19.98H145.253C145.413 21.2 146.393 22.22 148.033 22.22C148.853 22.22 149.993 21.86 150.613 21.26L151.733 22.9C150.773 23.78 149.253 24.24 147.753 24.24ZM149.973 18.26C149.913 17.34 149.273 16.12 147.593 16.12C146.013 16.12 145.333 17.3 145.213 18.26H149.973ZM163.328 24H160.788V18.16C160.788 16.82 160.088 16.36 159.008 16.36C158.008 16.36 157.228 16.92 156.808 17.5V24H154.268V14.34H156.808V15.6C157.428 14.86 158.608 14.1 160.188 14.1C162.308 14.1 163.328 15.3 163.328 17.18V24ZM169.09 24.24C167.31 24.24 166.35 23.32 166.35 21.6V16.56H164.75V14.34H166.35V11.7H168.91V14.34H170.87V16.56H168.91V20.92C168.91 21.52 169.23 21.98 169.79 21.98C170.17 21.98 170.53 21.84 170.67 21.7L171.21 23.62C170.83 23.96 170.15 24.24 169.09 24.24Z" fill="white"/>
</svg>
