<svg width="36" height="36" viewBox="0 0 36 36" fill="none" xmlns="http://www.w3.org/2000/svg">
<rect width="36" height="36" rx="4" fill="#E9F4FF"/>
<path d="M21 28.75H15C9.57 28.75 7.25 26.43 7.25 21V15C7.25 9.57 9.57 7.25 15 7.25H21C26.43 7.25 28.75 9.57 28.75 15V21C28.75 26.43 26.43 28.75 21 28.75ZM15 8.75C10.39 8.75 8.75 10.39 8.75 15V21C8.75 25.61 10.39 27.25 15 27.25H21C25.61 27.25 27.25 25.61 27.25 21V15C27.25 10.39 25.61 8.75 21 8.75H15Z" fill="#1A2630"/>
<path d="M15.6 21.78C15.41 21.78 15.22 21.71 15.07 21.56L12.58 19.07C11.99 18.48 11.99 17.53 12.58 16.94L15.07 14.45C15.36 14.16 15.84 14.16 16.13 14.45C16.42 14.74 16.42 15.22 16.13 15.51L13.64 18L16.13 20.5C16.42 20.79 16.42 21.27 16.13 21.56C15.98 21.7 15.79 21.78 15.6 21.78Z" fill="#1A2630"/>
<path d="M20.4 21.78C20.21 21.78 20.02 21.71 19.87 21.56C19.58 21.27 19.58 20.79 19.87 20.5L22.36 18L19.87 15.5C19.58 15.21 19.58 14.73 19.87 14.44C20.16 14.15 20.64 14.15 20.93 14.44L23.42 16.93C24.01 17.52 24.01 18.47 23.42 19.06L20.93 21.55C20.79 21.7 20.59 21.78 20.4 21.78Z" fill="#1A2630"/>
</svg>
