<svg width="107" height="20" viewBox="0 0 107 20" fill="none" xmlns="http://www.w3.org/2000/svg">
<path d="M9.28888 14H7.72088L5.00087 9.76H2.87288V14H1.54488V3.328H5.83288C7.78488 3.328 9.17688 4.576 9.17688 6.544C9.17688 8.464 7.86488 9.52 6.40888 9.648L9.28888 14ZM5.67288 8.592C6.93688 8.592 7.80088 7.744 7.80088 6.544C7.80088 5.344 6.93688 4.512 5.67288 4.512H2.87288V8.592H5.67288ZM14.2349 14.192C11.9469 14.192 10.2989 12.544 10.2989 10.128C10.2989 7.888 11.8989 6.08 14.1069 6.08C16.4429 6.08 17.8189 7.904 17.8189 10.224V10.528H11.5629C11.6589 11.984 12.6829 13.2 14.3469 13.2C15.2269 13.2 16.1229 12.848 16.7309 12.224L17.3069 13.008C16.5389 13.776 15.4989 14.192 14.2349 14.192ZM16.6349 9.648C16.6189 8.496 15.8509 7.072 14.0909 7.072C12.4429 7.072 11.6269 8.464 11.5629 9.648H16.6349ZM25.7945 14H24.5945V13.12C23.9545 13.824 23.0745 14.192 22.0345 14.192C20.7225 14.192 19.3305 13.312 19.3305 11.632C19.3305 9.904 20.7225 9.088 22.0345 9.088C23.0905 9.088 23.9705 9.424 24.5945 10.144V8.752C24.5945 7.712 23.7625 7.12 22.6425 7.12C21.7145 7.12 20.9625 7.456 20.2745 8.192L19.7145 7.36C20.5465 6.496 21.5385 6.08 22.8025 6.08C24.4345 6.08 25.7945 6.816 25.7945 8.688V14ZM22.4665 13.328C23.3145 13.328 24.1305 13.008 24.5945 12.368V10.912C24.1305 10.272 23.3145 9.952 22.4665 9.952C21.3465 9.952 20.5625 10.656 20.5625 11.648C20.5625 12.624 21.3465 13.328 22.4665 13.328ZM35 14H33.8V12.848C33.224 13.632 32.28 14.192 31.192 14.192C29.176 14.192 27.752 12.656 27.752 10.144C27.752 7.68 29.16 6.08 31.192 6.08C32.232 6.08 33.176 6.592 33.8 7.44V3.328H35V14ZM31.48 13.12C32.44 13.12 33.368 12.576 33.8 11.904V8.4C33.368 7.728 32.44 7.152 31.48 7.152C29.928 7.152 29 8.432 29 10.144C29 11.856 29.928 13.12 31.48 13.12ZM52.0561 14H50.8561V8.752C50.8561 7.776 50.4241 7.152 49.4321 7.152C48.6321 7.152 47.7841 7.728 47.3841 8.336V14H46.1841V8.752C46.1841 7.776 45.7681 7.152 44.7601 7.152C43.9761 7.152 43.1441 7.728 42.7281 8.352V14H41.5281V6.272H42.7281V7.392C43.0481 6.896 44.0881 6.08 45.2241 6.08C46.4081 6.08 47.0801 6.72 47.3041 7.52C47.7361 6.816 48.7761 6.08 49.8961 6.08C51.3041 6.08 52.0561 6.864 52.0561 8.416V14ZM57.826 14.192C55.474 14.192 54.002 12.368 54.002 10.128C54.002 7.888 55.474 6.08 57.826 6.08C60.178 6.08 61.65 7.888 61.65 10.128C61.65 12.368 60.178 14.192 57.826 14.192ZM57.826 13.12C59.474 13.12 60.386 11.712 60.386 10.128C60.386 8.56 59.474 7.152 57.826 7.152C56.178 7.152 55.25 8.56 55.25 10.128C55.25 11.712 56.178 13.12 57.826 13.12ZM64.8063 14H63.6063V6.272H64.8063V7.52C65.4303 6.704 66.3263 6.112 67.3823 6.112V7.344C67.2383 7.312 67.0943 7.296 66.9023 7.296C66.1663 7.296 65.1583 7.904 64.8063 8.528V14ZM72.3755 14.192C70.0875 14.192 68.4395 12.544 68.4395 10.128C68.4395 7.888 70.0395 6.08 72.2475 6.08C74.5835 6.08 75.9595 7.904 75.9595 10.224V10.528H69.7035C69.7995 11.984 70.8235 13.2 72.4875 13.2C73.3675 13.2 74.2635 12.848 74.8715 12.224L75.4475 13.008C74.6795 13.776 73.6395 14.192 72.3755 14.192ZM74.7755 9.648C74.7595 8.496 73.9915 7.072 72.2315 7.072C70.5835 7.072 69.7675 8.464 69.7035 9.648H74.7755Z" fill="#4361EE"/>
<g clip-path="url(#clip0_1_1475)">
<path d="M99.0253 15.6834C98.8669 15.6834 98.7086 15.6251 98.5836 15.5001C98.3419 15.2584 98.3419 14.8584 98.5836 14.6168L103.2 10.0001L98.5836 5.38343C98.3419 5.14176 98.3419 4.74176 98.5836 4.5001C98.8253 4.25843 99.2253 4.25843 99.4669 4.5001L104.525 9.55843C104.767 9.8001 104.767 10.2001 104.525 10.4418L99.4669 15.5001C99.3419 15.6251 99.1836 15.6834 99.0253 15.6834Z" fill="#4361EE"/>
<path d="M103.942 10.625H89.917C89.5753 10.625 89.292 10.3417 89.292 10C89.292 9.65833 89.5753 9.375 89.917 9.375H103.942C104.284 9.375 104.567 9.65833 104.567 10C104.567 10.3417 104.284 10.625 103.942 10.625Z" fill="#4361EE"/>
</g>
<defs>
<clipPath id="clip0_1_1475">
<rect width="20" height="20" fill="white" transform="translate(87)"/>
</clipPath>
</defs>
</svg>
