<svg width="127" height="127" viewBox="0 0 127 127" fill="none" xmlns="http://www.w3.org/2000/svg">
<g clip-path="url(#clip0_1_3560)">
<circle cx="4" cy="4" r="4" fill="white"/>
<circle cx="27.625" cy="4" r="4" fill="white"/>
<circle cx="51.25" cy="4" r="4" fill="white"/>
<circle cx="74.875" cy="4" r="4" fill="white"/>
<circle cx="98.5" cy="4" r="4" fill="white"/>
<circle cx="122.125" cy="4" r="4" fill="white"/>
<circle cx="4" cy="27.625" r="4" fill="white"/>
<circle cx="27.625" cy="27.625" r="4" fill="white"/>
<circle cx="51.25" cy="27.625" r="4" fill="white"/>
<circle cx="74.875" cy="27.625" r="4" fill="white"/>
<circle cx="98.5" cy="27.625" r="4" fill="white"/>
<circle cx="122.125" cy="27.625" r="4" fill="white"/>
<circle cx="4" cy="51.25" r="4" fill="white"/>
<circle cx="27.625" cy="51.25" r="4" fill="white"/>
<circle cx="51.25" cy="51.25" r="4" fill="white"/>
<circle cx="74.875" cy="51.25" r="4" fill="white"/>
<circle cx="98.5" cy="51.25" r="4" fill="white"/>
<circle cx="122.125" cy="51.25" r="4" fill="white"/>
<circle cx="4" cy="74.875" r="4" fill="white"/>
<circle cx="27.625" cy="74.875" r="4" fill="white"/>
<circle cx="51.25" cy="74.875" r="4" fill="white"/>
<circle cx="74.875" cy="74.875" r="4" fill="white"/>
<circle cx="98.5" cy="74.875" r="4" fill="white"/>
<circle cx="122.125" cy="74.875" r="4" fill="white"/>
<circle cx="4" cy="98.5" r="4" fill="white"/>
<circle cx="27.625" cy="98.5" r="4" fill="white"/>
<circle cx="51.25" cy="98.5" r="4" fill="white"/>
<circle cx="74.875" cy="98.5" r="4" fill="white"/>
<circle cx="98.5" cy="98.5" r="4" fill="white"/>
<circle cx="122.125" cy="98.5" r="4" fill="white"/>
<circle cx="4" cy="122.125" r="4" fill="white"/>
<circle cx="27.625" cy="122.125" r="4" fill="white"/>
<circle cx="51.25" cy="122.125" r="4" fill="white"/>
<circle cx="74.875" cy="122.125" r="4" fill="white"/>
<circle cx="98.5" cy="122.125" r="4" fill="white"/>
<circle cx="122.125" cy="122.125" r="4" fill="white"/>
</g>
<defs>
<clipPath id="clip0_1_3560">
<rect width="126.125" height="126.125" fill="white"/>
</clipPath>
</defs>
</svg>
