<svg width="50" height="50" viewBox="0 0 50 50" fill="none" xmlns="http://www.w3.org/2000/svg">
<circle cx="25" cy="25" r="25" fill="#F4F6FE"/>
<path d="M21.6525 34.3925C21.4467 34.3925 21.2408 34.3167 21.0783 34.1542C20.7642 33.84 20.7642 33.32 21.0783 33.0058L28.1417 25.9425C28.6617 25.4225 28.6617 24.5775 28.1417 24.0575L21.0783 16.9942C20.7642 16.68 20.7642 16.16 21.0783 15.8458C21.3925 15.5317 21.9125 15.5317 22.2267 15.8458L29.29 22.9092C29.8425 23.4617 30.1567 24.2092 30.1567 25C30.1567 25.7908 29.8533 26.5383 29.29 27.0908L22.2267 34.1542C22.0642 34.3058 21.8583 34.3925 21.6525 34.3925Z" fill="#1A2630"/>
</svg>
